G75*
G70*
%OFA0B0*%
%FSLAX24Y24*%
%IPPOS*%
%LPD*%
%AMOC8*
5,1,8,0,0,1.08239X$1,22.5*
%
%ADD10C,0.0000*%
D10*
X000161Y000161D02*
X000161Y033626D01*
X000163Y033703D01*
X000169Y033780D01*
X000178Y033857D01*
X000191Y033933D01*
X000208Y034009D01*
X000229Y034083D01*
X000253Y034157D01*
X000281Y034229D01*
X000312Y034299D01*
X000347Y034368D01*
X000385Y034436D01*
X000426Y034501D01*
X000471Y034564D01*
X000519Y034625D01*
X000569Y034684D01*
X000622Y034740D01*
X000678Y034793D01*
X000737Y034843D01*
X000798Y034891D01*
X000861Y034936D01*
X000926Y034977D01*
X000994Y035015D01*
X001063Y035050D01*
X001133Y035081D01*
X001205Y035109D01*
X001279Y035133D01*
X001353Y035154D01*
X001429Y035171D01*
X001505Y035184D01*
X001582Y035193D01*
X001659Y035199D01*
X001736Y035201D01*
X034413Y035201D01*
X034490Y035199D01*
X034567Y035193D01*
X034644Y035184D01*
X034720Y035171D01*
X034796Y035154D01*
X034870Y035133D01*
X034944Y035109D01*
X035016Y035081D01*
X035086Y035050D01*
X035155Y035015D01*
X035223Y034977D01*
X035288Y034936D01*
X035351Y034891D01*
X035412Y034843D01*
X035471Y034793D01*
X035527Y034740D01*
X035580Y034684D01*
X035630Y034625D01*
X035678Y034564D01*
X035723Y034501D01*
X035764Y034436D01*
X035802Y034368D01*
X035837Y034299D01*
X035868Y034229D01*
X035896Y034157D01*
X035920Y034083D01*
X035941Y034009D01*
X035958Y033933D01*
X035971Y033857D01*
X035980Y033780D01*
X035986Y033703D01*
X035988Y033626D01*
X035988Y001736D01*
X035986Y001659D01*
X035980Y001582D01*
X035971Y001505D01*
X035958Y001429D01*
X035941Y001353D01*
X035920Y001279D01*
X035896Y001205D01*
X035868Y001133D01*
X035837Y001063D01*
X035802Y000994D01*
X035764Y000926D01*
X035723Y000861D01*
X035678Y000798D01*
X035630Y000737D01*
X035580Y000678D01*
X035527Y000622D01*
X035471Y000569D01*
X035412Y000519D01*
X035351Y000471D01*
X035288Y000426D01*
X035223Y000385D01*
X035155Y000347D01*
X035086Y000312D01*
X035016Y000281D01*
X034944Y000253D01*
X034870Y000229D01*
X034796Y000208D01*
X034720Y000191D01*
X034644Y000178D01*
X034567Y000169D01*
X034490Y000163D01*
X034413Y000161D01*
X000161Y000161D01*
X005299Y002445D02*
X005301Y002476D01*
X005307Y002507D01*
X005316Y002537D01*
X005329Y002566D01*
X005346Y002593D01*
X005366Y002617D01*
X005388Y002639D01*
X005414Y002658D01*
X005441Y002674D01*
X005470Y002686D01*
X005500Y002695D01*
X005531Y002700D01*
X005563Y002701D01*
X005594Y002698D01*
X005625Y002691D01*
X005655Y002681D01*
X005683Y002667D01*
X005709Y002649D01*
X005733Y002629D01*
X005754Y002605D01*
X005773Y002580D01*
X005788Y002552D01*
X005799Y002523D01*
X005807Y002492D01*
X005811Y002461D01*
X005811Y002429D01*
X005807Y002398D01*
X005799Y002367D01*
X005788Y002338D01*
X005773Y002310D01*
X005754Y002285D01*
X005733Y002261D01*
X005709Y002241D01*
X005683Y002223D01*
X005655Y002209D01*
X005625Y002199D01*
X005594Y002192D01*
X005563Y002189D01*
X005531Y002190D01*
X005500Y002195D01*
X005470Y002204D01*
X005441Y002216D01*
X005414Y002232D01*
X005388Y002251D01*
X005366Y002273D01*
X005346Y002297D01*
X005329Y002324D01*
X005316Y002353D01*
X005307Y002383D01*
X005301Y002414D01*
X005299Y002445D01*
X007441Y003039D02*
X007443Y003067D01*
X007449Y003094D01*
X007458Y003121D01*
X007472Y003146D01*
X007488Y003168D01*
X007508Y003188D01*
X007530Y003206D01*
X007554Y003220D01*
X007580Y003230D01*
X007607Y003237D01*
X007635Y003240D01*
X007663Y003239D01*
X007691Y003234D01*
X007717Y003225D01*
X007742Y003213D01*
X007766Y003197D01*
X007787Y003179D01*
X007805Y003157D01*
X007819Y003133D01*
X007831Y003108D01*
X007839Y003081D01*
X007843Y003053D01*
X007843Y003025D01*
X007839Y002997D01*
X007831Y002970D01*
X007819Y002945D01*
X007805Y002921D01*
X007787Y002899D01*
X007766Y002881D01*
X007743Y002865D01*
X007717Y002853D01*
X007691Y002844D01*
X007663Y002839D01*
X007635Y002838D01*
X007607Y002841D01*
X007580Y002848D01*
X007554Y002858D01*
X007530Y002872D01*
X007508Y002890D01*
X007488Y002910D01*
X007472Y002932D01*
X007458Y002957D01*
X007449Y002984D01*
X007443Y003011D01*
X007441Y003039D01*
X012165Y003039D02*
X012167Y003067D01*
X012173Y003094D01*
X012182Y003121D01*
X012196Y003146D01*
X012212Y003168D01*
X012232Y003188D01*
X012254Y003206D01*
X012278Y003220D01*
X012304Y003230D01*
X012331Y003237D01*
X012359Y003240D01*
X012387Y003239D01*
X012415Y003234D01*
X012441Y003225D01*
X012466Y003213D01*
X012490Y003197D01*
X012511Y003179D01*
X012529Y003157D01*
X012543Y003133D01*
X012555Y003108D01*
X012563Y003081D01*
X012567Y003053D01*
X012567Y003025D01*
X012563Y002997D01*
X012555Y002970D01*
X012543Y002945D01*
X012529Y002921D01*
X012511Y002899D01*
X012490Y002881D01*
X012467Y002865D01*
X012441Y002853D01*
X012415Y002844D01*
X012387Y002839D01*
X012359Y002838D01*
X012331Y002841D01*
X012304Y002848D01*
X012278Y002858D01*
X012254Y002872D01*
X012232Y002890D01*
X012212Y002910D01*
X012196Y002932D01*
X012182Y002957D01*
X012173Y002984D01*
X012167Y003011D01*
X012165Y003039D01*
X013149Y003039D02*
X013151Y003067D01*
X013157Y003094D01*
X013166Y003121D01*
X013180Y003146D01*
X013196Y003168D01*
X013216Y003188D01*
X013238Y003206D01*
X013262Y003220D01*
X013288Y003230D01*
X013315Y003237D01*
X013343Y003240D01*
X013371Y003239D01*
X013399Y003234D01*
X013425Y003225D01*
X013450Y003213D01*
X013474Y003197D01*
X013495Y003179D01*
X013513Y003157D01*
X013527Y003133D01*
X013539Y003108D01*
X013547Y003081D01*
X013551Y003053D01*
X013551Y003025D01*
X013547Y002997D01*
X013539Y002970D01*
X013527Y002945D01*
X013513Y002921D01*
X013495Y002899D01*
X013474Y002881D01*
X013451Y002865D01*
X013425Y002853D01*
X013399Y002844D01*
X013371Y002839D01*
X013343Y002838D01*
X013315Y002841D01*
X013288Y002848D01*
X013262Y002858D01*
X013238Y002872D01*
X013216Y002890D01*
X013196Y002910D01*
X013180Y002932D01*
X013166Y002957D01*
X013157Y002984D01*
X013151Y003011D01*
X013149Y003039D01*
X017874Y003039D02*
X017876Y003067D01*
X017882Y003094D01*
X017891Y003121D01*
X017905Y003146D01*
X017921Y003168D01*
X017941Y003188D01*
X017963Y003206D01*
X017987Y003220D01*
X018013Y003230D01*
X018040Y003237D01*
X018068Y003240D01*
X018096Y003239D01*
X018124Y003234D01*
X018150Y003225D01*
X018175Y003213D01*
X018199Y003197D01*
X018220Y003179D01*
X018238Y003157D01*
X018252Y003133D01*
X018264Y003108D01*
X018272Y003081D01*
X018276Y003053D01*
X018276Y003025D01*
X018272Y002997D01*
X018264Y002970D01*
X018252Y002945D01*
X018238Y002921D01*
X018220Y002899D01*
X018199Y002881D01*
X018176Y002865D01*
X018150Y002853D01*
X018124Y002844D01*
X018096Y002839D01*
X018068Y002838D01*
X018040Y002841D01*
X018013Y002848D01*
X017987Y002858D01*
X017963Y002872D01*
X017941Y002890D01*
X017921Y002910D01*
X017905Y002932D01*
X017891Y002957D01*
X017882Y002984D01*
X017876Y003011D01*
X017874Y003039D01*
X013858Y012866D02*
X013860Y012907D01*
X013866Y012948D01*
X013876Y012988D01*
X013889Y013027D01*
X013906Y013064D01*
X013927Y013100D01*
X013951Y013134D01*
X013978Y013165D01*
X014007Y013193D01*
X014040Y013219D01*
X014074Y013241D01*
X014111Y013260D01*
X014149Y013275D01*
X014189Y013287D01*
X014229Y013295D01*
X014270Y013299D01*
X014312Y013299D01*
X014353Y013295D01*
X014393Y013287D01*
X014433Y013275D01*
X014471Y013260D01*
X014507Y013241D01*
X014542Y013219D01*
X014575Y013193D01*
X014604Y013165D01*
X014631Y013134D01*
X014655Y013100D01*
X014676Y013064D01*
X014693Y013027D01*
X014706Y012988D01*
X014716Y012948D01*
X014722Y012907D01*
X014724Y012866D01*
X014722Y012825D01*
X014716Y012784D01*
X014706Y012744D01*
X014693Y012705D01*
X014676Y012668D01*
X014655Y012632D01*
X014631Y012598D01*
X014604Y012567D01*
X014575Y012539D01*
X014542Y012513D01*
X014508Y012491D01*
X014471Y012472D01*
X014433Y012457D01*
X014393Y012445D01*
X014353Y012437D01*
X014312Y012433D01*
X014270Y012433D01*
X014229Y012437D01*
X014189Y012445D01*
X014149Y012457D01*
X014111Y012472D01*
X014075Y012491D01*
X014040Y012513D01*
X014007Y012539D01*
X013978Y012567D01*
X013951Y012598D01*
X013927Y012632D01*
X013906Y012668D01*
X013889Y012705D01*
X013876Y012744D01*
X013866Y012784D01*
X013860Y012825D01*
X013858Y012866D01*
X021732Y012866D02*
X021734Y012907D01*
X021740Y012948D01*
X021750Y012988D01*
X021763Y013027D01*
X021780Y013064D01*
X021801Y013100D01*
X021825Y013134D01*
X021852Y013165D01*
X021881Y013193D01*
X021914Y013219D01*
X021948Y013241D01*
X021985Y013260D01*
X022023Y013275D01*
X022063Y013287D01*
X022103Y013295D01*
X022144Y013299D01*
X022186Y013299D01*
X022227Y013295D01*
X022267Y013287D01*
X022307Y013275D01*
X022345Y013260D01*
X022381Y013241D01*
X022416Y013219D01*
X022449Y013193D01*
X022478Y013165D01*
X022505Y013134D01*
X022529Y013100D01*
X022550Y013064D01*
X022567Y013027D01*
X022580Y012988D01*
X022590Y012948D01*
X022596Y012907D01*
X022598Y012866D01*
X022596Y012825D01*
X022590Y012784D01*
X022580Y012744D01*
X022567Y012705D01*
X022550Y012668D01*
X022529Y012632D01*
X022505Y012598D01*
X022478Y012567D01*
X022449Y012539D01*
X022416Y012513D01*
X022382Y012491D01*
X022345Y012472D01*
X022307Y012457D01*
X022267Y012445D01*
X022227Y012437D01*
X022186Y012433D01*
X022144Y012433D01*
X022103Y012437D01*
X022063Y012445D01*
X022023Y012457D01*
X021985Y012472D01*
X021949Y012491D01*
X021914Y012513D01*
X021881Y012539D01*
X021852Y012567D01*
X021825Y012598D01*
X021801Y012632D01*
X021780Y012668D01*
X021763Y012705D01*
X021750Y012744D01*
X021740Y012784D01*
X021734Y012825D01*
X021732Y012866D01*
X028823Y010004D02*
X028825Y010062D01*
X028831Y010121D01*
X028841Y010178D01*
X028854Y010235D01*
X028872Y010291D01*
X028893Y010346D01*
X028918Y010398D01*
X028946Y010450D01*
X028978Y010499D01*
X029013Y010546D01*
X029051Y010590D01*
X029092Y010632D01*
X029136Y010671D01*
X029182Y010706D01*
X029231Y010739D01*
X029282Y010768D01*
X029334Y010794D01*
X029388Y010816D01*
X029444Y010835D01*
X029500Y010849D01*
X029558Y010860D01*
X029616Y010867D01*
X029674Y010870D01*
X029733Y010869D01*
X029791Y010864D01*
X029849Y010855D01*
X029906Y010842D01*
X029962Y010826D01*
X030017Y010805D01*
X030070Y010781D01*
X030122Y010754D01*
X030172Y010723D01*
X030219Y010689D01*
X030264Y010651D01*
X030307Y010611D01*
X030346Y010568D01*
X030383Y010522D01*
X030416Y010474D01*
X030446Y010424D01*
X030473Y010372D01*
X030496Y010318D01*
X030515Y010263D01*
X030531Y010207D01*
X030543Y010150D01*
X030551Y010092D01*
X030555Y010033D01*
X030555Y009975D01*
X030551Y009916D01*
X030543Y009858D01*
X030531Y009801D01*
X030515Y009745D01*
X030496Y009690D01*
X030473Y009636D01*
X030446Y009584D01*
X030416Y009534D01*
X030383Y009486D01*
X030346Y009440D01*
X030307Y009397D01*
X030264Y009357D01*
X030219Y009319D01*
X030172Y009285D01*
X030122Y009254D01*
X030070Y009227D01*
X030017Y009203D01*
X029962Y009182D01*
X029906Y009166D01*
X029849Y009153D01*
X029791Y009144D01*
X029733Y009139D01*
X029674Y009138D01*
X029616Y009141D01*
X029558Y009148D01*
X029500Y009159D01*
X029444Y009173D01*
X029388Y009192D01*
X029334Y009214D01*
X029282Y009240D01*
X029231Y009269D01*
X029182Y009302D01*
X029136Y009337D01*
X029092Y009376D01*
X029051Y009418D01*
X029013Y009462D01*
X028978Y009509D01*
X028946Y009558D01*
X028918Y009610D01*
X028893Y009662D01*
X028872Y009717D01*
X028854Y009773D01*
X028841Y009830D01*
X028831Y009887D01*
X028825Y009946D01*
X028823Y010004D01*
X021732Y028614D02*
X021734Y028655D01*
X021740Y028696D01*
X021750Y028736D01*
X021763Y028775D01*
X021780Y028812D01*
X021801Y028848D01*
X021825Y028882D01*
X021852Y028913D01*
X021881Y028941D01*
X021914Y028967D01*
X021948Y028989D01*
X021985Y029008D01*
X022023Y029023D01*
X022063Y029035D01*
X022103Y029043D01*
X022144Y029047D01*
X022186Y029047D01*
X022227Y029043D01*
X022267Y029035D01*
X022307Y029023D01*
X022345Y029008D01*
X022381Y028989D01*
X022416Y028967D01*
X022449Y028941D01*
X022478Y028913D01*
X022505Y028882D01*
X022529Y028848D01*
X022550Y028812D01*
X022567Y028775D01*
X022580Y028736D01*
X022590Y028696D01*
X022596Y028655D01*
X022598Y028614D01*
X022596Y028573D01*
X022590Y028532D01*
X022580Y028492D01*
X022567Y028453D01*
X022550Y028416D01*
X022529Y028380D01*
X022505Y028346D01*
X022478Y028315D01*
X022449Y028287D01*
X022416Y028261D01*
X022382Y028239D01*
X022345Y028220D01*
X022307Y028205D01*
X022267Y028193D01*
X022227Y028185D01*
X022186Y028181D01*
X022144Y028181D01*
X022103Y028185D01*
X022063Y028193D01*
X022023Y028205D01*
X021985Y028220D01*
X021949Y028239D01*
X021914Y028261D01*
X021881Y028287D01*
X021852Y028315D01*
X021825Y028346D01*
X021801Y028380D01*
X021780Y028416D01*
X021763Y028453D01*
X021750Y028492D01*
X021740Y028532D01*
X021734Y028573D01*
X021732Y028614D01*
X022917Y031657D02*
X022919Y031715D01*
X022925Y031774D01*
X022935Y031831D01*
X022948Y031888D01*
X022966Y031944D01*
X022987Y031999D01*
X023012Y032051D01*
X023040Y032103D01*
X023072Y032152D01*
X023107Y032199D01*
X023145Y032243D01*
X023186Y032285D01*
X023230Y032324D01*
X023276Y032359D01*
X023325Y032392D01*
X023376Y032421D01*
X023428Y032447D01*
X023482Y032469D01*
X023538Y032488D01*
X023594Y032502D01*
X023652Y032513D01*
X023710Y032520D01*
X023768Y032523D01*
X023827Y032522D01*
X023885Y032517D01*
X023943Y032508D01*
X024000Y032495D01*
X024056Y032479D01*
X024111Y032458D01*
X024164Y032434D01*
X024216Y032407D01*
X024266Y032376D01*
X024313Y032342D01*
X024358Y032304D01*
X024401Y032264D01*
X024440Y032221D01*
X024477Y032175D01*
X024510Y032127D01*
X024540Y032077D01*
X024567Y032025D01*
X024590Y031971D01*
X024609Y031916D01*
X024625Y031860D01*
X024637Y031803D01*
X024645Y031745D01*
X024649Y031686D01*
X024649Y031628D01*
X024645Y031569D01*
X024637Y031511D01*
X024625Y031454D01*
X024609Y031398D01*
X024590Y031343D01*
X024567Y031289D01*
X024540Y031237D01*
X024510Y031187D01*
X024477Y031139D01*
X024440Y031093D01*
X024401Y031050D01*
X024358Y031010D01*
X024313Y030972D01*
X024266Y030938D01*
X024216Y030907D01*
X024164Y030880D01*
X024111Y030856D01*
X024056Y030835D01*
X024000Y030819D01*
X023943Y030806D01*
X023885Y030797D01*
X023827Y030792D01*
X023768Y030791D01*
X023710Y030794D01*
X023652Y030801D01*
X023594Y030812D01*
X023538Y030826D01*
X023482Y030845D01*
X023428Y030867D01*
X023376Y030893D01*
X023325Y030922D01*
X023276Y030955D01*
X023230Y030990D01*
X023186Y031029D01*
X023145Y031071D01*
X023107Y031115D01*
X023072Y031162D01*
X023040Y031211D01*
X023012Y031263D01*
X022987Y031315D01*
X022966Y031370D01*
X022948Y031426D01*
X022935Y031483D01*
X022925Y031540D01*
X022919Y031599D01*
X022917Y031657D01*
X013858Y028614D02*
X013860Y028655D01*
X013866Y028696D01*
X013876Y028736D01*
X013889Y028775D01*
X013906Y028812D01*
X013927Y028848D01*
X013951Y028882D01*
X013978Y028913D01*
X014007Y028941D01*
X014040Y028967D01*
X014074Y028989D01*
X014111Y029008D01*
X014149Y029023D01*
X014189Y029035D01*
X014229Y029043D01*
X014270Y029047D01*
X014312Y029047D01*
X014353Y029043D01*
X014393Y029035D01*
X014433Y029023D01*
X014471Y029008D01*
X014507Y028989D01*
X014542Y028967D01*
X014575Y028941D01*
X014604Y028913D01*
X014631Y028882D01*
X014655Y028848D01*
X014676Y028812D01*
X014693Y028775D01*
X014706Y028736D01*
X014716Y028696D01*
X014722Y028655D01*
X014724Y028614D01*
X014722Y028573D01*
X014716Y028532D01*
X014706Y028492D01*
X014693Y028453D01*
X014676Y028416D01*
X014655Y028380D01*
X014631Y028346D01*
X014604Y028315D01*
X014575Y028287D01*
X014542Y028261D01*
X014508Y028239D01*
X014471Y028220D01*
X014433Y028205D01*
X014393Y028193D01*
X014353Y028185D01*
X014312Y028181D01*
X014270Y028181D01*
X014229Y028185D01*
X014189Y028193D01*
X014149Y028205D01*
X014111Y028220D01*
X014075Y028239D01*
X014040Y028261D01*
X014007Y028287D01*
X013978Y028315D01*
X013951Y028346D01*
X013927Y028380D01*
X013906Y028416D01*
X013889Y028453D01*
X013876Y028492D01*
X013866Y028532D01*
X013860Y028573D01*
X013858Y028614D01*
X003232Y031657D02*
X003234Y031715D01*
X003240Y031774D01*
X003250Y031831D01*
X003263Y031888D01*
X003281Y031944D01*
X003302Y031999D01*
X003327Y032051D01*
X003355Y032103D01*
X003387Y032152D01*
X003422Y032199D01*
X003460Y032243D01*
X003501Y032285D01*
X003545Y032324D01*
X003591Y032359D01*
X003640Y032392D01*
X003691Y032421D01*
X003743Y032447D01*
X003797Y032469D01*
X003853Y032488D01*
X003909Y032502D01*
X003967Y032513D01*
X004025Y032520D01*
X004083Y032523D01*
X004142Y032522D01*
X004200Y032517D01*
X004258Y032508D01*
X004315Y032495D01*
X004371Y032479D01*
X004426Y032458D01*
X004479Y032434D01*
X004531Y032407D01*
X004581Y032376D01*
X004628Y032342D01*
X004673Y032304D01*
X004716Y032264D01*
X004755Y032221D01*
X004792Y032175D01*
X004825Y032127D01*
X004855Y032077D01*
X004882Y032025D01*
X004905Y031971D01*
X004924Y031916D01*
X004940Y031860D01*
X004952Y031803D01*
X004960Y031745D01*
X004964Y031686D01*
X004964Y031628D01*
X004960Y031569D01*
X004952Y031511D01*
X004940Y031454D01*
X004924Y031398D01*
X004905Y031343D01*
X004882Y031289D01*
X004855Y031237D01*
X004825Y031187D01*
X004792Y031139D01*
X004755Y031093D01*
X004716Y031050D01*
X004673Y031010D01*
X004628Y030972D01*
X004581Y030938D01*
X004531Y030907D01*
X004479Y030880D01*
X004426Y030856D01*
X004371Y030835D01*
X004315Y030819D01*
X004258Y030806D01*
X004200Y030797D01*
X004142Y030792D01*
X004083Y030791D01*
X004025Y030794D01*
X003967Y030801D01*
X003909Y030812D01*
X003853Y030826D01*
X003797Y030845D01*
X003743Y030867D01*
X003691Y030893D01*
X003640Y030922D01*
X003591Y030955D01*
X003545Y030990D01*
X003501Y031029D01*
X003460Y031071D01*
X003422Y031115D01*
X003387Y031162D01*
X003355Y031211D01*
X003327Y031263D01*
X003302Y031315D01*
X003281Y031370D01*
X003263Y031426D01*
X003250Y031483D01*
X003240Y031540D01*
X003234Y031599D01*
X003232Y031657D01*
X003232Y010004D02*
X003234Y010062D01*
X003240Y010121D01*
X003250Y010178D01*
X003263Y010235D01*
X003281Y010291D01*
X003302Y010346D01*
X003327Y010398D01*
X003355Y010450D01*
X003387Y010499D01*
X003422Y010546D01*
X003460Y010590D01*
X003501Y010632D01*
X003545Y010671D01*
X003591Y010706D01*
X003640Y010739D01*
X003691Y010768D01*
X003743Y010794D01*
X003797Y010816D01*
X003853Y010835D01*
X003909Y010849D01*
X003967Y010860D01*
X004025Y010867D01*
X004083Y010870D01*
X004142Y010869D01*
X004200Y010864D01*
X004258Y010855D01*
X004315Y010842D01*
X004371Y010826D01*
X004426Y010805D01*
X004479Y010781D01*
X004531Y010754D01*
X004581Y010723D01*
X004628Y010689D01*
X004673Y010651D01*
X004716Y010611D01*
X004755Y010568D01*
X004792Y010522D01*
X004825Y010474D01*
X004855Y010424D01*
X004882Y010372D01*
X004905Y010318D01*
X004924Y010263D01*
X004940Y010207D01*
X004952Y010150D01*
X004960Y010092D01*
X004964Y010033D01*
X004964Y009975D01*
X004960Y009916D01*
X004952Y009858D01*
X004940Y009801D01*
X004924Y009745D01*
X004905Y009690D01*
X004882Y009636D01*
X004855Y009584D01*
X004825Y009534D01*
X004792Y009486D01*
X004755Y009440D01*
X004716Y009397D01*
X004673Y009357D01*
X004628Y009319D01*
X004581Y009285D01*
X004531Y009254D01*
X004479Y009227D01*
X004426Y009203D01*
X004371Y009182D01*
X004315Y009166D01*
X004258Y009153D01*
X004200Y009144D01*
X004142Y009139D01*
X004083Y009138D01*
X004025Y009141D01*
X003967Y009148D01*
X003909Y009159D01*
X003853Y009173D01*
X003797Y009192D01*
X003743Y009214D01*
X003691Y009240D01*
X003640Y009269D01*
X003591Y009302D01*
X003545Y009337D01*
X003501Y009376D01*
X003460Y009418D01*
X003422Y009462D01*
X003387Y009509D01*
X003355Y009558D01*
X003327Y009610D01*
X003302Y009662D01*
X003281Y009717D01*
X003263Y009773D01*
X003250Y009830D01*
X003240Y009887D01*
X003234Y009946D01*
X003232Y010004D01*
M02*
