G75*
G70*
%OFA0B0*%
%FSLAX24Y24*%
%IPPOS*%
%LPD*%
%AMOC8*
5,1,8,0,0,1.08239X$1,22.5*
%
%ADD10C,0.0060*%
%ADD11C,0.0039*%
%ADD12C,0.0050*%
%ADD13C,0.0004*%
%ADD14C,0.0150*%
D10*
X007852Y007055D02*
X007924Y007127D01*
X008068Y007127D01*
X008140Y007199D01*
X008068Y007271D01*
X007852Y007271D01*
X007852Y007055D02*
X007924Y006983D01*
X008140Y006983D01*
X008305Y006983D02*
X008305Y007199D01*
X008377Y007271D01*
X008521Y007271D01*
X008521Y007127D02*
X008305Y007127D01*
X008305Y006983D02*
X008521Y006983D01*
X008593Y007055D01*
X008521Y007127D01*
X008758Y007271D02*
X008974Y007271D01*
X009046Y007199D01*
X009046Y007055D01*
X008974Y006983D01*
X008758Y006983D01*
X008758Y006911D02*
X008758Y007271D01*
X008758Y006911D02*
X008830Y006838D01*
X008902Y006838D01*
X009211Y006983D02*
X009211Y007199D01*
X009283Y007271D01*
X009499Y007271D01*
X009499Y006983D01*
X009664Y006983D02*
X009880Y006983D01*
X009952Y007055D01*
X009880Y007127D01*
X009664Y007127D01*
X009664Y007199D02*
X009664Y006983D01*
X009664Y007199D02*
X009736Y007271D01*
X009880Y007271D01*
X010117Y007415D02*
X010405Y007127D01*
X010333Y007199D02*
X010117Y006983D01*
X010405Y006983D02*
X010405Y007415D01*
X010570Y007199D02*
X010859Y007199D01*
X011016Y006983D02*
X011161Y006983D01*
X011089Y006983D02*
X011089Y007415D01*
X011161Y007415D01*
X011391Y007415D02*
X011391Y006983D01*
X011463Y006983D02*
X011319Y006983D01*
X011628Y007127D02*
X011916Y007127D01*
X011916Y007055D02*
X011916Y007199D01*
X011844Y007271D01*
X011700Y007271D01*
X011628Y007199D01*
X011628Y007127D01*
X011700Y006983D02*
X011844Y006983D01*
X011916Y007055D01*
X012081Y006983D02*
X012081Y007199D01*
X012153Y007271D01*
X012369Y007271D01*
X012369Y006983D01*
X012534Y006983D02*
X012534Y007199D01*
X012606Y007271D01*
X012822Y007271D01*
X012822Y006983D01*
X012987Y007055D02*
X012987Y007199D01*
X013059Y007271D01*
X013203Y007271D01*
X013275Y007199D01*
X013275Y007055D01*
X013203Y006983D01*
X013059Y006983D01*
X012987Y007055D01*
X013440Y007055D02*
X013512Y006983D01*
X013728Y006983D01*
X013728Y007415D01*
X013512Y007415D01*
X013440Y007343D01*
X013440Y007271D01*
X013512Y007199D01*
X013728Y007199D01*
X013512Y007199D02*
X013440Y007127D01*
X013440Y007055D01*
X013351Y007672D02*
X013351Y007960D01*
X013351Y007816D02*
X013207Y007960D01*
X013134Y007960D01*
X013515Y007888D02*
X013515Y007816D01*
X013804Y007816D01*
X013804Y007744D02*
X013804Y007888D01*
X013732Y007960D01*
X013588Y007960D01*
X013515Y007888D01*
X013588Y007672D02*
X013732Y007672D01*
X013804Y007744D01*
X013969Y007672D02*
X014185Y007672D01*
X014257Y007744D01*
X014257Y007888D01*
X014185Y007960D01*
X013969Y007960D01*
X014422Y007888D02*
X014422Y007672D01*
X014422Y007888D02*
X014494Y007960D01*
X014710Y007960D01*
X014710Y007672D01*
X014875Y007672D02*
X014875Y007888D01*
X014947Y007960D01*
X015091Y007960D01*
X015091Y007816D02*
X014875Y007816D01*
X014875Y007672D02*
X015091Y007672D01*
X015163Y007744D01*
X015091Y007816D01*
X015321Y007672D02*
X015465Y007672D01*
X015393Y007672D02*
X015393Y008104D01*
X015465Y008104D01*
X015630Y007888D02*
X015630Y007672D01*
X015846Y007672D01*
X015918Y007744D01*
X015846Y007816D01*
X015630Y007816D01*
X015630Y007888D02*
X015702Y007960D01*
X015846Y007960D01*
X016083Y007960D02*
X016155Y007888D01*
X016371Y007888D01*
X016155Y007888D02*
X016083Y007816D01*
X016083Y007744D01*
X016155Y007672D01*
X016371Y007672D01*
X016371Y008104D01*
X016155Y008104D01*
X016083Y008032D01*
X016083Y007960D01*
X016227Y007415D02*
X016083Y007271D01*
X016083Y006983D01*
X015918Y007055D02*
X015846Y007127D01*
X015630Y007127D01*
X015630Y007199D02*
X015630Y006983D01*
X015846Y006983D01*
X015918Y007055D01*
X016083Y007199D02*
X016371Y007199D01*
X016371Y007271D02*
X016227Y007415D01*
X016371Y007271D02*
X016371Y006983D01*
X015846Y007271D02*
X015702Y007271D01*
X015630Y007199D01*
X015465Y007271D02*
X015465Y006983D01*
X015465Y007127D02*
X015321Y007271D01*
X015249Y007271D01*
X015088Y007199D02*
X015088Y007055D01*
X015016Y006983D01*
X014871Y006983D01*
X014799Y007055D01*
X014799Y007199D01*
X014871Y007271D01*
X015016Y007271D01*
X015088Y007199D01*
X014634Y007271D02*
X014634Y006983D01*
X014346Y006983D02*
X014346Y007199D01*
X014418Y007271D01*
X014634Y007271D01*
X012520Y007672D02*
X012520Y008104D01*
X012232Y008104D01*
X012067Y007960D02*
X012067Y007672D01*
X012067Y007816D02*
X011923Y007960D01*
X011851Y007960D01*
X011689Y007888D02*
X011689Y007744D01*
X011617Y007672D01*
X011473Y007672D01*
X011401Y007744D01*
X011401Y007888D01*
X011473Y007960D01*
X011617Y007960D01*
X011689Y007888D01*
X011236Y007960D02*
X011236Y007672D01*
X011236Y007960D02*
X011020Y007960D01*
X010948Y007888D01*
X010948Y007672D01*
X010711Y007744D02*
X010711Y008032D01*
X010783Y007960D02*
X010639Y007960D01*
X010711Y007744D02*
X010639Y007672D01*
X010028Y007672D02*
X010028Y008104D01*
X009812Y008104D01*
X009740Y008032D01*
X009740Y007888D01*
X009812Y007816D01*
X010028Y007816D01*
X009575Y007744D02*
X009503Y007816D01*
X009286Y007816D01*
X009286Y007888D02*
X009286Y007672D01*
X009503Y007672D01*
X009575Y007744D01*
X009503Y007960D02*
X009359Y007960D01*
X009286Y007888D01*
X009122Y007960D02*
X008905Y007960D01*
X008833Y007888D01*
X008833Y007672D01*
X008669Y007744D02*
X008669Y007888D01*
X008596Y007960D01*
X008452Y007960D01*
X008380Y007888D01*
X008380Y007816D01*
X008669Y007816D01*
X008669Y007744D02*
X008596Y007672D01*
X008452Y007672D01*
X008215Y007672D02*
X008071Y007672D01*
X008143Y007672D02*
X008143Y008104D01*
X008215Y008104D01*
X007460Y007960D02*
X007316Y007672D01*
X007172Y007960D01*
X007007Y007960D02*
X006863Y008104D01*
X006863Y007672D01*
X007007Y007672D02*
X006719Y007672D01*
X006554Y007672D02*
X006482Y007672D01*
X006482Y007744D01*
X006554Y007744D01*
X006554Y007672D01*
X006327Y007744D02*
X006039Y008032D01*
X006039Y007744D01*
X006111Y007672D01*
X006255Y007672D01*
X006327Y007744D01*
X006327Y008032D01*
X006255Y008104D01*
X006111Y008104D01*
X006039Y008032D01*
X009122Y007960D02*
X009122Y007672D01*
X011391Y007415D02*
X011463Y007415D01*
X012376Y007888D02*
X012520Y007888D01*
D11*
X006638Y021992D02*
X005516Y021992D01*
X005516Y022425D01*
X006638Y022425D01*
X006638Y021992D01*
X023311Y025437D02*
X024433Y025437D01*
X024433Y025870D01*
X023311Y025870D01*
X023311Y025437D01*
X028390Y025437D02*
X028390Y024315D01*
X028823Y024315D01*
X028823Y025437D01*
X028390Y025437D01*
X029866Y024886D02*
X029866Y026008D01*
X030299Y026008D01*
X030299Y024886D01*
X029866Y024886D01*
X032386Y023114D02*
X032386Y022681D01*
X033508Y022681D01*
X033508Y023114D01*
X032386Y023114D01*
X028685Y020063D02*
X027563Y020063D01*
X027563Y019630D01*
X028685Y019630D01*
X028685Y020063D01*
X028685Y014157D02*
X027563Y014157D01*
X027563Y013724D01*
X028685Y013724D01*
X028685Y014157D01*
X033665Y013960D02*
X033665Y013527D01*
X034787Y013527D01*
X034787Y013960D01*
X033665Y013960D01*
D12*
X022664Y006539D02*
X022666Y006553D01*
X022672Y006567D01*
X022680Y006579D01*
X022692Y006587D01*
X022706Y006593D01*
X022720Y006595D01*
X022734Y006593D01*
X022748Y006587D01*
X022760Y006579D01*
X022768Y006567D01*
X022774Y006553D01*
X022776Y006539D01*
X022774Y006525D01*
X022768Y006511D01*
X022760Y006499D01*
X022748Y006491D01*
X022734Y006485D01*
X022720Y006483D01*
X022706Y006485D01*
X022692Y006491D01*
X022680Y006499D01*
X022672Y006511D01*
X022666Y006525D01*
X022664Y006539D01*
X002093Y017464D02*
X002095Y017478D01*
X002101Y017492D01*
X002109Y017504D01*
X002121Y017512D01*
X002135Y017518D01*
X002149Y017520D01*
X002163Y017518D01*
X002177Y017512D01*
X002189Y017504D01*
X002197Y017492D01*
X002203Y017478D01*
X002205Y017464D01*
X002203Y017450D01*
X002197Y017436D01*
X002189Y017424D01*
X002177Y017416D01*
X002163Y017410D01*
X002149Y017408D01*
X002135Y017410D01*
X002121Y017416D01*
X002109Y017424D01*
X002101Y017436D01*
X002095Y017450D01*
X002093Y017464D01*
D13*
X016834Y009020D02*
X016834Y008527D01*
X017110Y008409D01*
X017386Y008527D01*
X017386Y008724D01*
X017484Y008823D01*
X018035Y008823D01*
X018134Y008724D01*
X018134Y007622D01*
X018685Y007622D01*
X018685Y007620D02*
X018131Y007620D01*
X018134Y007622D02*
X018035Y007523D01*
X017504Y007523D01*
X017386Y007642D01*
X016834Y007642D01*
X016834Y007644D02*
X017386Y007644D01*
X017386Y007642D02*
X017386Y007897D01*
X017385Y007897D01*
X017386Y007897D02*
X017110Y007779D01*
X016834Y007897D01*
X016835Y007897D01*
X016834Y007897D02*
X016834Y007346D01*
X017248Y006933D01*
X018271Y006933D01*
X018685Y007346D01*
X018685Y009020D01*
X018271Y009433D01*
X017248Y009433D01*
X016834Y009020D01*
X016834Y009018D02*
X018685Y009018D01*
X018685Y009016D02*
X016834Y009016D01*
X016834Y009014D02*
X018685Y009014D01*
X018685Y009011D02*
X016834Y009011D01*
X016834Y009009D02*
X018685Y009009D01*
X018685Y009006D02*
X016834Y009006D01*
X016834Y009004D02*
X018685Y009004D01*
X018685Y009001D02*
X016834Y009001D01*
X016834Y008999D02*
X018685Y008999D01*
X018685Y008996D02*
X016834Y008996D01*
X016834Y008994D02*
X018685Y008994D01*
X018685Y008991D02*
X016834Y008991D01*
X016834Y008989D02*
X018685Y008989D01*
X018685Y008986D02*
X016834Y008986D01*
X016834Y008984D02*
X018685Y008984D01*
X018685Y008981D02*
X016834Y008981D01*
X016834Y008979D02*
X018685Y008979D01*
X018685Y008976D02*
X016834Y008976D01*
X016834Y008974D02*
X018685Y008974D01*
X018685Y008971D02*
X016834Y008971D01*
X016834Y008969D02*
X018685Y008969D01*
X018685Y008966D02*
X016834Y008966D01*
X016834Y008964D02*
X018685Y008964D01*
X018685Y008961D02*
X016834Y008961D01*
X016834Y008959D02*
X018685Y008959D01*
X018685Y008956D02*
X016834Y008956D01*
X016834Y008954D02*
X018685Y008954D01*
X018685Y008951D02*
X016834Y008951D01*
X016834Y008949D02*
X018685Y008949D01*
X018685Y008947D02*
X016834Y008947D01*
X016834Y008944D02*
X018685Y008944D01*
X018685Y008942D02*
X016834Y008942D01*
X016834Y008939D02*
X018685Y008939D01*
X018685Y008937D02*
X016834Y008937D01*
X016834Y008934D02*
X018685Y008934D01*
X018685Y008932D02*
X016834Y008932D01*
X016834Y008929D02*
X018685Y008929D01*
X018685Y008927D02*
X016834Y008927D01*
X016834Y008924D02*
X018685Y008924D01*
X018685Y008922D02*
X016834Y008922D01*
X016834Y008919D02*
X018685Y008919D01*
X018685Y008917D02*
X016834Y008917D01*
X016834Y008914D02*
X018685Y008914D01*
X018685Y008912D02*
X016834Y008912D01*
X016834Y008909D02*
X018685Y008909D01*
X018685Y008907D02*
X016834Y008907D01*
X016834Y008904D02*
X018685Y008904D01*
X018685Y008902D02*
X016834Y008902D01*
X016834Y008899D02*
X018685Y008899D01*
X018685Y008897D02*
X016834Y008897D01*
X016834Y008894D02*
X018685Y008894D01*
X018685Y008892D02*
X016834Y008892D01*
X016834Y008889D02*
X018685Y008889D01*
X018685Y008887D02*
X016834Y008887D01*
X016834Y008885D02*
X018685Y008885D01*
X018685Y008882D02*
X016834Y008882D01*
X016834Y008880D02*
X018685Y008880D01*
X018685Y008877D02*
X016834Y008877D01*
X016834Y008875D02*
X018685Y008875D01*
X018685Y008872D02*
X016834Y008872D01*
X016834Y008870D02*
X018685Y008870D01*
X018685Y008867D02*
X016834Y008867D01*
X016834Y008865D02*
X018685Y008865D01*
X018685Y008862D02*
X016834Y008862D01*
X016834Y008860D02*
X018685Y008860D01*
X018685Y008857D02*
X016834Y008857D01*
X016834Y008855D02*
X018685Y008855D01*
X018685Y008852D02*
X016834Y008852D01*
X016834Y008850D02*
X018685Y008850D01*
X018685Y008847D02*
X016834Y008847D01*
X016834Y008845D02*
X018685Y008845D01*
X018685Y008842D02*
X016834Y008842D01*
X016834Y008840D02*
X018685Y008840D01*
X018685Y008837D02*
X016834Y008837D01*
X016834Y008835D02*
X018685Y008835D01*
X018685Y008832D02*
X016834Y008832D01*
X016834Y008830D02*
X018685Y008830D01*
X018685Y008827D02*
X016834Y008827D01*
X016834Y008825D02*
X018685Y008825D01*
X018685Y008823D02*
X018035Y008823D01*
X018038Y008820D02*
X018685Y008820D01*
X018685Y008818D02*
X018040Y008818D01*
X018043Y008815D02*
X018685Y008815D01*
X018685Y008813D02*
X018045Y008813D01*
X018048Y008810D02*
X018685Y008810D01*
X018685Y008808D02*
X018050Y008808D01*
X018053Y008805D02*
X018685Y008805D01*
X018685Y008803D02*
X018055Y008803D01*
X018058Y008800D02*
X018685Y008800D01*
X018685Y008798D02*
X018060Y008798D01*
X018063Y008795D02*
X018685Y008795D01*
X018685Y008793D02*
X018065Y008793D01*
X018068Y008790D02*
X018685Y008790D01*
X018685Y008788D02*
X018070Y008788D01*
X018073Y008785D02*
X018685Y008785D01*
X018685Y008783D02*
X018075Y008783D01*
X018078Y008780D02*
X018685Y008780D01*
X018685Y008778D02*
X018080Y008778D01*
X018083Y008775D02*
X018685Y008775D01*
X018685Y008773D02*
X018085Y008773D01*
X018088Y008770D02*
X018685Y008770D01*
X018685Y008768D02*
X018090Y008768D01*
X018092Y008765D02*
X018685Y008765D01*
X018685Y008763D02*
X018095Y008763D01*
X018097Y008761D02*
X018685Y008761D01*
X018685Y008758D02*
X018100Y008758D01*
X018102Y008756D02*
X018685Y008756D01*
X018685Y008753D02*
X018105Y008753D01*
X018107Y008751D02*
X018685Y008751D01*
X018685Y008748D02*
X018110Y008748D01*
X018112Y008746D02*
X018685Y008746D01*
X018685Y008743D02*
X018115Y008743D01*
X018117Y008741D02*
X018685Y008741D01*
X018685Y008738D02*
X018120Y008738D01*
X018122Y008736D02*
X018685Y008736D01*
X018685Y008733D02*
X018125Y008733D01*
X018127Y008731D02*
X018685Y008731D01*
X018685Y008728D02*
X018130Y008728D01*
X018132Y008726D02*
X018685Y008726D01*
X018685Y008723D02*
X018134Y008723D01*
X018134Y008721D02*
X018685Y008721D01*
X018685Y008718D02*
X018134Y008718D01*
X018134Y008716D02*
X018685Y008716D01*
X018685Y008713D02*
X018134Y008713D01*
X018134Y008711D02*
X018685Y008711D01*
X018685Y008708D02*
X018134Y008708D01*
X018134Y008706D02*
X018685Y008706D01*
X018685Y008703D02*
X018134Y008703D01*
X018134Y008701D02*
X018685Y008701D01*
X018685Y008699D02*
X018134Y008699D01*
X018134Y008696D02*
X018685Y008696D01*
X018685Y008694D02*
X018134Y008694D01*
X018134Y008691D02*
X018685Y008691D01*
X018685Y008689D02*
X018134Y008689D01*
X018134Y008686D02*
X018685Y008686D01*
X018685Y008684D02*
X018134Y008684D01*
X018134Y008681D02*
X018685Y008681D01*
X018685Y008679D02*
X018134Y008679D01*
X018134Y008676D02*
X018685Y008676D01*
X018685Y008674D02*
X018134Y008674D01*
X018134Y008671D02*
X018685Y008671D01*
X018685Y008669D02*
X018134Y008669D01*
X018134Y008666D02*
X018685Y008666D01*
X018685Y008664D02*
X018134Y008664D01*
X018134Y008661D02*
X018685Y008661D01*
X018685Y008659D02*
X018134Y008659D01*
X018134Y008656D02*
X018685Y008656D01*
X018685Y008654D02*
X018134Y008654D01*
X018134Y008651D02*
X018685Y008651D01*
X018685Y008649D02*
X018134Y008649D01*
X018134Y008646D02*
X018685Y008646D01*
X018685Y008644D02*
X018134Y008644D01*
X018134Y008641D02*
X018685Y008641D01*
X018685Y008639D02*
X018134Y008639D01*
X018134Y008636D02*
X018685Y008636D01*
X018685Y008634D02*
X018134Y008634D01*
X018134Y008632D02*
X018685Y008632D01*
X018685Y008629D02*
X018134Y008629D01*
X018134Y008627D02*
X018685Y008627D01*
X018685Y008624D02*
X018134Y008624D01*
X018134Y008622D02*
X018685Y008622D01*
X018685Y008619D02*
X018134Y008619D01*
X018134Y008617D02*
X018685Y008617D01*
X018685Y008614D02*
X018134Y008614D01*
X018134Y008612D02*
X018685Y008612D01*
X018685Y008609D02*
X018134Y008609D01*
X018134Y008607D02*
X018685Y008607D01*
X018685Y008604D02*
X018134Y008604D01*
X018134Y008602D02*
X018685Y008602D01*
X018685Y008599D02*
X018134Y008599D01*
X018134Y008597D02*
X018685Y008597D01*
X018685Y008594D02*
X018134Y008594D01*
X018134Y008592D02*
X018685Y008592D01*
X018685Y008589D02*
X018134Y008589D01*
X018134Y008587D02*
X018685Y008587D01*
X018685Y008584D02*
X018134Y008584D01*
X018134Y008582D02*
X018685Y008582D01*
X018685Y008579D02*
X018134Y008579D01*
X018134Y008577D02*
X018685Y008577D01*
X018685Y008574D02*
X018134Y008574D01*
X018134Y008572D02*
X018685Y008572D01*
X018685Y008570D02*
X018134Y008570D01*
X018134Y008567D02*
X018685Y008567D01*
X018685Y008565D02*
X018134Y008565D01*
X018134Y008562D02*
X018685Y008562D01*
X018685Y008560D02*
X018134Y008560D01*
X018134Y008557D02*
X018685Y008557D01*
X018685Y008555D02*
X018134Y008555D01*
X018134Y008552D02*
X018685Y008552D01*
X018685Y008550D02*
X018134Y008550D01*
X018134Y008547D02*
X018685Y008547D01*
X018685Y008545D02*
X018134Y008545D01*
X018134Y008542D02*
X018685Y008542D01*
X018685Y008540D02*
X018134Y008540D01*
X018134Y008537D02*
X018685Y008537D01*
X018685Y008535D02*
X018134Y008535D01*
X018134Y008532D02*
X018685Y008532D01*
X018685Y008530D02*
X018134Y008530D01*
X018134Y008527D02*
X018685Y008527D01*
X018685Y008525D02*
X018134Y008525D01*
X018134Y008522D02*
X018685Y008522D01*
X018685Y008520D02*
X018134Y008520D01*
X018134Y008517D02*
X018685Y008517D01*
X018685Y008515D02*
X018134Y008515D01*
X018134Y008512D02*
X018685Y008512D01*
X018685Y008510D02*
X018134Y008510D01*
X018134Y008508D02*
X018685Y008508D01*
X018685Y008505D02*
X018134Y008505D01*
X018134Y008503D02*
X018685Y008503D01*
X018685Y008500D02*
X018134Y008500D01*
X018134Y008498D02*
X018685Y008498D01*
X018685Y008495D02*
X018134Y008495D01*
X018134Y008493D02*
X018685Y008493D01*
X018685Y008490D02*
X018134Y008490D01*
X018134Y008488D02*
X018685Y008488D01*
X018685Y008485D02*
X018134Y008485D01*
X018134Y008483D02*
X018685Y008483D01*
X018685Y008480D02*
X018134Y008480D01*
X018134Y008478D02*
X018685Y008478D01*
X018685Y008475D02*
X018134Y008475D01*
X018134Y008473D02*
X018685Y008473D01*
X018685Y008470D02*
X018134Y008470D01*
X018134Y008468D02*
X018685Y008468D01*
X018685Y008465D02*
X018134Y008465D01*
X018134Y008463D02*
X018685Y008463D01*
X018685Y008460D02*
X018134Y008460D01*
X018134Y008458D02*
X018685Y008458D01*
X018685Y008455D02*
X018134Y008455D01*
X018134Y008453D02*
X018685Y008453D01*
X018685Y008450D02*
X018134Y008450D01*
X018134Y008448D02*
X018685Y008448D01*
X018685Y008446D02*
X018134Y008446D01*
X018134Y008443D02*
X018685Y008443D01*
X018685Y008441D02*
X018134Y008441D01*
X018134Y008438D02*
X018685Y008438D01*
X018685Y008436D02*
X018134Y008436D01*
X018134Y008433D02*
X018685Y008433D01*
X018685Y008431D02*
X018134Y008431D01*
X018134Y008428D02*
X018685Y008428D01*
X018685Y008426D02*
X018134Y008426D01*
X018134Y008423D02*
X018685Y008423D01*
X018685Y008421D02*
X018134Y008421D01*
X018134Y008418D02*
X018685Y008418D01*
X018685Y008416D02*
X018134Y008416D01*
X018134Y008413D02*
X018685Y008413D01*
X018685Y008411D02*
X018134Y008411D01*
X018134Y008408D02*
X018685Y008408D01*
X018685Y008406D02*
X018134Y008406D01*
X018134Y008403D02*
X018685Y008403D01*
X018685Y008401D02*
X018134Y008401D01*
X018134Y008398D02*
X018685Y008398D01*
X018685Y008396D02*
X018134Y008396D01*
X018134Y008393D02*
X018685Y008393D01*
X018685Y008391D02*
X018134Y008391D01*
X018134Y008388D02*
X018685Y008388D01*
X018685Y008386D02*
X018134Y008386D01*
X018134Y008384D02*
X018685Y008384D01*
X018685Y008381D02*
X018134Y008381D01*
X018134Y008379D02*
X018685Y008379D01*
X018685Y008376D02*
X018134Y008376D01*
X018134Y008374D02*
X018685Y008374D01*
X018685Y008371D02*
X018134Y008371D01*
X018134Y008369D02*
X018685Y008369D01*
X018685Y008366D02*
X018134Y008366D01*
X018134Y008364D02*
X018685Y008364D01*
X018685Y008361D02*
X018134Y008361D01*
X018134Y008359D02*
X018685Y008359D01*
X018685Y008356D02*
X018134Y008356D01*
X018134Y008354D02*
X018685Y008354D01*
X018685Y008351D02*
X018134Y008351D01*
X018134Y008349D02*
X018685Y008349D01*
X018685Y008346D02*
X018134Y008346D01*
X018134Y008344D02*
X018685Y008344D01*
X018685Y008341D02*
X018134Y008341D01*
X018134Y008339D02*
X018685Y008339D01*
X018685Y008336D02*
X018134Y008336D01*
X018134Y008334D02*
X018685Y008334D01*
X018685Y008331D02*
X018134Y008331D01*
X018134Y008329D02*
X018685Y008329D01*
X018685Y008326D02*
X018134Y008326D01*
X018134Y008324D02*
X018685Y008324D01*
X018685Y008321D02*
X018134Y008321D01*
X018134Y008319D02*
X018685Y008319D01*
X018685Y008317D02*
X018134Y008317D01*
X018134Y008314D02*
X018685Y008314D01*
X018685Y008312D02*
X018134Y008312D01*
X018134Y008309D02*
X018685Y008309D01*
X018685Y008307D02*
X018134Y008307D01*
X018134Y008304D02*
X018685Y008304D01*
X018685Y008302D02*
X018134Y008302D01*
X018134Y008299D02*
X018685Y008299D01*
X018685Y008297D02*
X018134Y008297D01*
X018134Y008294D02*
X018685Y008294D01*
X018685Y008292D02*
X018134Y008292D01*
X018134Y008289D02*
X018685Y008289D01*
X018685Y008287D02*
X018134Y008287D01*
X018134Y008284D02*
X018685Y008284D01*
X018685Y008282D02*
X018134Y008282D01*
X018134Y008279D02*
X018685Y008279D01*
X018685Y008277D02*
X018134Y008277D01*
X018134Y008274D02*
X018685Y008274D01*
X018685Y008272D02*
X018134Y008272D01*
X018134Y008269D02*
X018685Y008269D01*
X018685Y008267D02*
X018134Y008267D01*
X018134Y008264D02*
X018685Y008264D01*
X018685Y008262D02*
X018134Y008262D01*
X018134Y008259D02*
X018685Y008259D01*
X018685Y008257D02*
X018134Y008257D01*
X018134Y008255D02*
X018685Y008255D01*
X018685Y008252D02*
X018134Y008252D01*
X018134Y008250D02*
X018685Y008250D01*
X018685Y008247D02*
X018134Y008247D01*
X018134Y008245D02*
X018685Y008245D01*
X018685Y008242D02*
X018134Y008242D01*
X018134Y008240D02*
X018685Y008240D01*
X018685Y008237D02*
X018134Y008237D01*
X018134Y008235D02*
X018685Y008235D01*
X018685Y008232D02*
X018134Y008232D01*
X018134Y008230D02*
X018685Y008230D01*
X018685Y008227D02*
X018134Y008227D01*
X018134Y008225D02*
X018685Y008225D01*
X018685Y008222D02*
X018134Y008222D01*
X018134Y008220D02*
X018685Y008220D01*
X018685Y008217D02*
X018134Y008217D01*
X018134Y008215D02*
X018685Y008215D01*
X018685Y008212D02*
X018134Y008212D01*
X018134Y008210D02*
X018685Y008210D01*
X018685Y008207D02*
X018134Y008207D01*
X018134Y008205D02*
X018685Y008205D01*
X018685Y008202D02*
X018134Y008202D01*
X018134Y008200D02*
X018685Y008200D01*
X018685Y008197D02*
X018134Y008197D01*
X018134Y008195D02*
X018685Y008195D01*
X018685Y008193D02*
X018134Y008193D01*
X018134Y008190D02*
X018685Y008190D01*
X018685Y008188D02*
X018134Y008188D01*
X018134Y008185D02*
X018685Y008185D01*
X018685Y008183D02*
X018134Y008183D01*
X018134Y008180D02*
X018685Y008180D01*
X018685Y008178D02*
X018134Y008178D01*
X018134Y008175D02*
X018685Y008175D01*
X018685Y008173D02*
X018134Y008173D01*
X018134Y008170D02*
X018685Y008170D01*
X018685Y008168D02*
X018134Y008168D01*
X018134Y008165D02*
X018685Y008165D01*
X018685Y008163D02*
X018134Y008163D01*
X018134Y008160D02*
X018685Y008160D01*
X018685Y008158D02*
X018134Y008158D01*
X018134Y008155D02*
X018685Y008155D01*
X018685Y008153D02*
X018134Y008153D01*
X018134Y008150D02*
X018685Y008150D01*
X018685Y008148D02*
X018134Y008148D01*
X018134Y008145D02*
X018685Y008145D01*
X018685Y008143D02*
X018134Y008143D01*
X018134Y008140D02*
X018685Y008140D01*
X018685Y008138D02*
X018134Y008138D01*
X018134Y008135D02*
X018685Y008135D01*
X018685Y008133D02*
X018134Y008133D01*
X018134Y008131D02*
X018685Y008131D01*
X018685Y008128D02*
X018134Y008128D01*
X018134Y008126D02*
X018685Y008126D01*
X018685Y008123D02*
X018134Y008123D01*
X018134Y008121D02*
X018685Y008121D01*
X018685Y008118D02*
X018134Y008118D01*
X018134Y008116D02*
X018685Y008116D01*
X018685Y008113D02*
X018134Y008113D01*
X018134Y008111D02*
X018685Y008111D01*
X018685Y008108D02*
X018134Y008108D01*
X018134Y008106D02*
X018685Y008106D01*
X018685Y008103D02*
X018134Y008103D01*
X018134Y008101D02*
X018685Y008101D01*
X018685Y008098D02*
X018134Y008098D01*
X018134Y008096D02*
X018685Y008096D01*
X018685Y008093D02*
X018134Y008093D01*
X018134Y008091D02*
X018685Y008091D01*
X018685Y008088D02*
X018134Y008088D01*
X018134Y008086D02*
X018685Y008086D01*
X018685Y008083D02*
X018134Y008083D01*
X018134Y008081D02*
X018685Y008081D01*
X018685Y008078D02*
X018134Y008078D01*
X018134Y008076D02*
X018685Y008076D01*
X018685Y008073D02*
X018134Y008073D01*
X018134Y008071D02*
X018685Y008071D01*
X018685Y008069D02*
X018134Y008069D01*
X018134Y008066D02*
X018685Y008066D01*
X018685Y008064D02*
X018134Y008064D01*
X018134Y008061D02*
X018685Y008061D01*
X018685Y008059D02*
X018134Y008059D01*
X018134Y008056D02*
X018685Y008056D01*
X018685Y008054D02*
X018134Y008054D01*
X018134Y008051D02*
X018685Y008051D01*
X018685Y008049D02*
X018134Y008049D01*
X018134Y008046D02*
X018685Y008046D01*
X018685Y008044D02*
X018134Y008044D01*
X018134Y008041D02*
X018685Y008041D01*
X018685Y008039D02*
X018134Y008039D01*
X018134Y008036D02*
X018685Y008036D01*
X018685Y008034D02*
X018134Y008034D01*
X018134Y008031D02*
X018685Y008031D01*
X018685Y008029D02*
X018134Y008029D01*
X018134Y008026D02*
X018685Y008026D01*
X018685Y008024D02*
X018134Y008024D01*
X018134Y008021D02*
X018685Y008021D01*
X018685Y008019D02*
X018134Y008019D01*
X018134Y008016D02*
X018685Y008016D01*
X018685Y008014D02*
X018134Y008014D01*
X018134Y008011D02*
X018685Y008011D01*
X018685Y008009D02*
X018134Y008009D01*
X018134Y008006D02*
X018685Y008006D01*
X018685Y008004D02*
X018134Y008004D01*
X018134Y008002D02*
X018685Y008002D01*
X018685Y007999D02*
X018134Y007999D01*
X018134Y007997D02*
X018685Y007997D01*
X018685Y007994D02*
X018134Y007994D01*
X018134Y007992D02*
X018685Y007992D01*
X018685Y007989D02*
X018134Y007989D01*
X018134Y007987D02*
X018685Y007987D01*
X018685Y007984D02*
X018134Y007984D01*
X018134Y007982D02*
X018685Y007982D01*
X018685Y007979D02*
X018134Y007979D01*
X018134Y007977D02*
X018685Y007977D01*
X018685Y007974D02*
X018134Y007974D01*
X018134Y007972D02*
X018685Y007972D01*
X018685Y007969D02*
X018134Y007969D01*
X018134Y007967D02*
X018685Y007967D01*
X018685Y007964D02*
X018134Y007964D01*
X018134Y007962D02*
X018685Y007962D01*
X018685Y007959D02*
X018134Y007959D01*
X018134Y007957D02*
X018685Y007957D01*
X018685Y007954D02*
X018134Y007954D01*
X018134Y007952D02*
X018685Y007952D01*
X018685Y007949D02*
X018134Y007949D01*
X018134Y007947D02*
X018685Y007947D01*
X018685Y007944D02*
X018134Y007944D01*
X018134Y007942D02*
X018685Y007942D01*
X018685Y007940D02*
X018134Y007940D01*
X018134Y007937D02*
X018685Y007937D01*
X018685Y007935D02*
X018134Y007935D01*
X018134Y007932D02*
X018685Y007932D01*
X018685Y007930D02*
X018134Y007930D01*
X018134Y007927D02*
X018685Y007927D01*
X018685Y007925D02*
X018134Y007925D01*
X018134Y007922D02*
X018685Y007922D01*
X018685Y007920D02*
X018134Y007920D01*
X018134Y007917D02*
X018685Y007917D01*
X018685Y007915D02*
X018134Y007915D01*
X018134Y007912D02*
X018685Y007912D01*
X018685Y007910D02*
X018134Y007910D01*
X018134Y007907D02*
X018685Y007907D01*
X018685Y007905D02*
X018134Y007905D01*
X018134Y007902D02*
X018685Y007902D01*
X018685Y007900D02*
X018134Y007900D01*
X018134Y007897D02*
X018685Y007897D01*
X018685Y007895D02*
X018134Y007895D01*
X018134Y007892D02*
X018685Y007892D01*
X018685Y007890D02*
X018134Y007890D01*
X018134Y007887D02*
X018685Y007887D01*
X018685Y007885D02*
X018134Y007885D01*
X018134Y007882D02*
X018685Y007882D01*
X018685Y007880D02*
X018134Y007880D01*
X018134Y007878D02*
X018685Y007878D01*
X018685Y007875D02*
X018134Y007875D01*
X018134Y007873D02*
X018685Y007873D01*
X018685Y007870D02*
X018134Y007870D01*
X018134Y007868D02*
X018685Y007868D01*
X018685Y007865D02*
X018134Y007865D01*
X018134Y007863D02*
X018685Y007863D01*
X018685Y007860D02*
X018134Y007860D01*
X018134Y007858D02*
X018685Y007858D01*
X018685Y007855D02*
X018134Y007855D01*
X018134Y007853D02*
X018685Y007853D01*
X018685Y007850D02*
X018134Y007850D01*
X018134Y007848D02*
X018685Y007848D01*
X018685Y007845D02*
X018134Y007845D01*
X018134Y007843D02*
X018685Y007843D01*
X018685Y007840D02*
X018134Y007840D01*
X018134Y007838D02*
X018685Y007838D01*
X018685Y007835D02*
X018134Y007835D01*
X018134Y007833D02*
X018685Y007833D01*
X018685Y007830D02*
X018134Y007830D01*
X018134Y007828D02*
X018685Y007828D01*
X018685Y007825D02*
X018134Y007825D01*
X018134Y007823D02*
X018685Y007823D01*
X018685Y007820D02*
X018134Y007820D01*
X018134Y007818D02*
X018685Y007818D01*
X018685Y007816D02*
X018134Y007816D01*
X018134Y007813D02*
X018685Y007813D01*
X018685Y007811D02*
X018134Y007811D01*
X018134Y007808D02*
X018685Y007808D01*
X018685Y007806D02*
X018134Y007806D01*
X018134Y007803D02*
X018685Y007803D01*
X018685Y007801D02*
X018134Y007801D01*
X018134Y007798D02*
X018685Y007798D01*
X018685Y007796D02*
X018134Y007796D01*
X018134Y007793D02*
X018685Y007793D01*
X018685Y007791D02*
X018134Y007791D01*
X018134Y007788D02*
X018685Y007788D01*
X018685Y007786D02*
X018134Y007786D01*
X018134Y007783D02*
X018685Y007783D01*
X018685Y007781D02*
X018134Y007781D01*
X018134Y007778D02*
X018685Y007778D01*
X018685Y007776D02*
X018134Y007776D01*
X018134Y007773D02*
X018685Y007773D01*
X018685Y007771D02*
X018134Y007771D01*
X018134Y007768D02*
X018685Y007768D01*
X018685Y007766D02*
X018134Y007766D01*
X018134Y007763D02*
X018685Y007763D01*
X018685Y007761D02*
X018134Y007761D01*
X018134Y007758D02*
X018685Y007758D01*
X018685Y007756D02*
X018134Y007756D01*
X018134Y007754D02*
X018685Y007754D01*
X018685Y007751D02*
X018134Y007751D01*
X018134Y007749D02*
X018685Y007749D01*
X018685Y007746D02*
X018134Y007746D01*
X018134Y007744D02*
X018685Y007744D01*
X018685Y007741D02*
X018134Y007741D01*
X018134Y007739D02*
X018685Y007739D01*
X018685Y007736D02*
X018134Y007736D01*
X018134Y007734D02*
X018685Y007734D01*
X018685Y007731D02*
X018134Y007731D01*
X018134Y007729D02*
X018685Y007729D01*
X018685Y007726D02*
X018134Y007726D01*
X018134Y007724D02*
X018685Y007724D01*
X018685Y007721D02*
X018134Y007721D01*
X018134Y007719D02*
X018685Y007719D01*
X018685Y007716D02*
X018134Y007716D01*
X018134Y007714D02*
X018685Y007714D01*
X018685Y007711D02*
X018134Y007711D01*
X018134Y007709D02*
X018685Y007709D01*
X018685Y007706D02*
X018134Y007706D01*
X018134Y007704D02*
X018685Y007704D01*
X018685Y007701D02*
X018134Y007701D01*
X018134Y007699D02*
X018685Y007699D01*
X018685Y007696D02*
X018134Y007696D01*
X018134Y007694D02*
X018685Y007694D01*
X018685Y007691D02*
X018134Y007691D01*
X018134Y007689D02*
X018685Y007689D01*
X018685Y007687D02*
X018134Y007687D01*
X018134Y007684D02*
X018685Y007684D01*
X018685Y007682D02*
X018134Y007682D01*
X018134Y007679D02*
X018685Y007679D01*
X018685Y007677D02*
X018134Y007677D01*
X018134Y007674D02*
X018685Y007674D01*
X018685Y007672D02*
X018134Y007672D01*
X018134Y007669D02*
X018685Y007669D01*
X018685Y007667D02*
X018134Y007667D01*
X018134Y007664D02*
X018685Y007664D01*
X018685Y007662D02*
X018134Y007662D01*
X018134Y007659D02*
X018685Y007659D01*
X018685Y007657D02*
X018134Y007657D01*
X018134Y007654D02*
X018685Y007654D01*
X018685Y007652D02*
X018134Y007652D01*
X018134Y007649D02*
X018685Y007649D01*
X018685Y007647D02*
X018134Y007647D01*
X018134Y007644D02*
X018685Y007644D01*
X018685Y007642D02*
X018134Y007642D01*
X018134Y007639D02*
X018685Y007639D01*
X018685Y007637D02*
X018134Y007637D01*
X018134Y007634D02*
X018685Y007634D01*
X018685Y007632D02*
X018134Y007632D01*
X018134Y007629D02*
X018685Y007629D01*
X018685Y007627D02*
X018134Y007627D01*
X018134Y007625D02*
X018685Y007625D01*
X018685Y007617D02*
X018129Y007617D01*
X018126Y007615D02*
X018685Y007615D01*
X018685Y007612D02*
X018124Y007612D01*
X018121Y007610D02*
X018685Y007610D01*
X018685Y007607D02*
X018119Y007607D01*
X018116Y007605D02*
X018685Y007605D01*
X018685Y007602D02*
X018114Y007602D01*
X018112Y007600D02*
X018685Y007600D01*
X018685Y007597D02*
X018109Y007597D01*
X018107Y007595D02*
X018685Y007595D01*
X018685Y007592D02*
X018104Y007592D01*
X018102Y007590D02*
X018685Y007590D01*
X018685Y007587D02*
X018099Y007587D01*
X018097Y007585D02*
X018685Y007585D01*
X018685Y007582D02*
X018094Y007582D01*
X018092Y007580D02*
X018685Y007580D01*
X018685Y007577D02*
X018089Y007577D01*
X018087Y007575D02*
X018685Y007575D01*
X018685Y007572D02*
X018084Y007572D01*
X018082Y007570D02*
X018685Y007570D01*
X018685Y007567D02*
X018079Y007567D01*
X018077Y007565D02*
X018685Y007565D01*
X018685Y007563D02*
X018074Y007563D01*
X018072Y007560D02*
X018685Y007560D01*
X018685Y007558D02*
X018069Y007558D01*
X018067Y007555D02*
X018685Y007555D01*
X018685Y007553D02*
X018064Y007553D01*
X018062Y007550D02*
X018685Y007550D01*
X018685Y007548D02*
X018059Y007548D01*
X018057Y007545D02*
X018685Y007545D01*
X018685Y007543D02*
X018054Y007543D01*
X018052Y007540D02*
X018685Y007540D01*
X018685Y007538D02*
X018050Y007538D01*
X018047Y007535D02*
X018685Y007535D01*
X018685Y007533D02*
X018045Y007533D01*
X018042Y007530D02*
X018685Y007530D01*
X018685Y007528D02*
X018040Y007528D01*
X018037Y007525D02*
X018685Y007525D01*
X018685Y007523D02*
X016834Y007523D01*
X016834Y007525D02*
X017502Y007525D01*
X017499Y007528D02*
X016834Y007528D01*
X016834Y007530D02*
X017497Y007530D01*
X017494Y007533D02*
X016834Y007533D01*
X016834Y007535D02*
X017492Y007535D01*
X017490Y007538D02*
X016834Y007538D01*
X016834Y007540D02*
X017487Y007540D01*
X017485Y007543D02*
X016834Y007543D01*
X016834Y007545D02*
X017482Y007545D01*
X017480Y007548D02*
X016834Y007548D01*
X016834Y007550D02*
X017477Y007550D01*
X017475Y007553D02*
X016834Y007553D01*
X016834Y007555D02*
X017472Y007555D01*
X017470Y007558D02*
X016834Y007558D01*
X016834Y007560D02*
X017467Y007560D01*
X017465Y007563D02*
X016834Y007563D01*
X016834Y007565D02*
X017462Y007565D01*
X017460Y007567D02*
X016834Y007567D01*
X016834Y007570D02*
X017457Y007570D01*
X017455Y007572D02*
X016834Y007572D01*
X016834Y007575D02*
X017452Y007575D01*
X017450Y007577D02*
X016834Y007577D01*
X016834Y007580D02*
X017447Y007580D01*
X017445Y007582D02*
X016834Y007582D01*
X016834Y007585D02*
X017442Y007585D01*
X017440Y007587D02*
X016834Y007587D01*
X016834Y007590D02*
X017437Y007590D01*
X017435Y007592D02*
X016834Y007592D01*
X016834Y007595D02*
X017432Y007595D01*
X017430Y007597D02*
X016834Y007597D01*
X016834Y007600D02*
X017428Y007600D01*
X017425Y007602D02*
X016834Y007602D01*
X016834Y007605D02*
X017423Y007605D01*
X017420Y007607D02*
X016834Y007607D01*
X016834Y007610D02*
X017418Y007610D01*
X017415Y007612D02*
X016834Y007612D01*
X016834Y007615D02*
X017413Y007615D01*
X017410Y007617D02*
X016834Y007617D01*
X016834Y007620D02*
X017408Y007620D01*
X017405Y007622D02*
X016834Y007622D01*
X016834Y007625D02*
X017403Y007625D01*
X017400Y007627D02*
X016834Y007627D01*
X016834Y007629D02*
X017398Y007629D01*
X017395Y007632D02*
X016834Y007632D01*
X016834Y007634D02*
X017393Y007634D01*
X017390Y007637D02*
X016834Y007637D01*
X016834Y007639D02*
X017388Y007639D01*
X017386Y007647D02*
X016834Y007647D01*
X016834Y007649D02*
X017386Y007649D01*
X017386Y007652D02*
X016834Y007652D01*
X016834Y007654D02*
X017386Y007654D01*
X017386Y007657D02*
X016834Y007657D01*
X016834Y007659D02*
X017386Y007659D01*
X017386Y007662D02*
X016834Y007662D01*
X016834Y007664D02*
X017386Y007664D01*
X017386Y007667D02*
X016834Y007667D01*
X016834Y007669D02*
X017386Y007669D01*
X017386Y007672D02*
X016834Y007672D01*
X016834Y007674D02*
X017386Y007674D01*
X017386Y007677D02*
X016834Y007677D01*
X016834Y007679D02*
X017386Y007679D01*
X017386Y007682D02*
X016834Y007682D01*
X016834Y007684D02*
X017386Y007684D01*
X017386Y007687D02*
X016834Y007687D01*
X016834Y007689D02*
X017386Y007689D01*
X017386Y007691D02*
X016834Y007691D01*
X016834Y007694D02*
X017386Y007694D01*
X017386Y007696D02*
X016834Y007696D01*
X016834Y007699D02*
X017386Y007699D01*
X017386Y007701D02*
X016834Y007701D01*
X016834Y007704D02*
X017386Y007704D01*
X017386Y007706D02*
X016834Y007706D01*
X016834Y007709D02*
X017386Y007709D01*
X017386Y007711D02*
X016834Y007711D01*
X016834Y007714D02*
X017386Y007714D01*
X017386Y007716D02*
X016834Y007716D01*
X016834Y007719D02*
X017386Y007719D01*
X017386Y007721D02*
X016834Y007721D01*
X016834Y007724D02*
X017386Y007724D01*
X017386Y007726D02*
X016834Y007726D01*
X016834Y007729D02*
X017386Y007729D01*
X017386Y007731D02*
X016834Y007731D01*
X016834Y007734D02*
X017386Y007734D01*
X017386Y007736D02*
X016834Y007736D01*
X016834Y007739D02*
X017386Y007739D01*
X017386Y007741D02*
X016834Y007741D01*
X016834Y007744D02*
X017386Y007744D01*
X017386Y007746D02*
X016834Y007746D01*
X016834Y007749D02*
X017386Y007749D01*
X017386Y007751D02*
X016834Y007751D01*
X016834Y007754D02*
X017386Y007754D01*
X017386Y007756D02*
X016834Y007756D01*
X016834Y007758D02*
X017386Y007758D01*
X017386Y007761D02*
X016834Y007761D01*
X016834Y007763D02*
X017386Y007763D01*
X017386Y007766D02*
X016834Y007766D01*
X016834Y007768D02*
X017386Y007768D01*
X017386Y007771D02*
X016834Y007771D01*
X016834Y007773D02*
X017386Y007773D01*
X017386Y007776D02*
X016834Y007776D01*
X016834Y007778D02*
X017386Y007778D01*
X017386Y007781D02*
X017113Y007781D01*
X017107Y007781D02*
X016834Y007781D01*
X016834Y007783D02*
X017101Y007783D01*
X017095Y007786D02*
X016834Y007786D01*
X016834Y007788D02*
X017089Y007788D01*
X017084Y007791D02*
X016834Y007791D01*
X016834Y007793D02*
X017078Y007793D01*
X017072Y007796D02*
X016834Y007796D01*
X016834Y007798D02*
X017066Y007798D01*
X017060Y007801D02*
X016834Y007801D01*
X016834Y007803D02*
X017055Y007803D01*
X017049Y007806D02*
X016834Y007806D01*
X016834Y007808D02*
X017043Y007808D01*
X017037Y007811D02*
X016834Y007811D01*
X016834Y007813D02*
X017032Y007813D01*
X017026Y007816D02*
X016834Y007816D01*
X016834Y007818D02*
X017020Y007818D01*
X017014Y007820D02*
X016834Y007820D01*
X016834Y007823D02*
X017008Y007823D01*
X017003Y007825D02*
X016834Y007825D01*
X016834Y007828D02*
X016997Y007828D01*
X016991Y007830D02*
X016834Y007830D01*
X016834Y007833D02*
X016985Y007833D01*
X016979Y007835D02*
X016834Y007835D01*
X016834Y007838D02*
X016974Y007838D01*
X016968Y007840D02*
X016834Y007840D01*
X016834Y007843D02*
X016962Y007843D01*
X016956Y007845D02*
X016834Y007845D01*
X016834Y007848D02*
X016951Y007848D01*
X016945Y007850D02*
X016834Y007850D01*
X016834Y007853D02*
X016939Y007853D01*
X016933Y007855D02*
X016834Y007855D01*
X016834Y007858D02*
X016927Y007858D01*
X016922Y007860D02*
X016834Y007860D01*
X016834Y007863D02*
X016916Y007863D01*
X016910Y007865D02*
X016834Y007865D01*
X016834Y007868D02*
X016904Y007868D01*
X016898Y007870D02*
X016834Y007870D01*
X016834Y007873D02*
X016893Y007873D01*
X016887Y007875D02*
X016834Y007875D01*
X016834Y007878D02*
X016881Y007878D01*
X016875Y007880D02*
X016834Y007880D01*
X016834Y007882D02*
X016869Y007882D01*
X016864Y007885D02*
X016834Y007885D01*
X016834Y007887D02*
X016858Y007887D01*
X016852Y007890D02*
X016834Y007890D01*
X016834Y007892D02*
X016846Y007892D01*
X016841Y007895D02*
X016834Y007895D01*
X017119Y007783D02*
X017386Y007783D01*
X017386Y007786D02*
X017125Y007786D01*
X017131Y007788D02*
X017386Y007788D01*
X017386Y007791D02*
X017137Y007791D01*
X017142Y007793D02*
X017386Y007793D01*
X017386Y007796D02*
X017148Y007796D01*
X017154Y007798D02*
X017386Y007798D01*
X017386Y007801D02*
X017160Y007801D01*
X017165Y007803D02*
X017386Y007803D01*
X017386Y007806D02*
X017171Y007806D01*
X017177Y007808D02*
X017386Y007808D01*
X017386Y007811D02*
X017183Y007811D01*
X017189Y007813D02*
X017386Y007813D01*
X017386Y007816D02*
X017194Y007816D01*
X017200Y007818D02*
X017386Y007818D01*
X017386Y007820D02*
X017206Y007820D01*
X017212Y007823D02*
X017386Y007823D01*
X017386Y007825D02*
X017218Y007825D01*
X017223Y007828D02*
X017386Y007828D01*
X017386Y007830D02*
X017229Y007830D01*
X017235Y007833D02*
X017386Y007833D01*
X017386Y007835D02*
X017241Y007835D01*
X017246Y007838D02*
X017386Y007838D01*
X017386Y007840D02*
X017252Y007840D01*
X017258Y007843D02*
X017386Y007843D01*
X017386Y007845D02*
X017264Y007845D01*
X017270Y007848D02*
X017386Y007848D01*
X017386Y007850D02*
X017275Y007850D01*
X017281Y007853D02*
X017386Y007853D01*
X017386Y007855D02*
X017287Y007855D01*
X017293Y007858D02*
X017386Y007858D01*
X017386Y007860D02*
X017299Y007860D01*
X017304Y007863D02*
X017386Y007863D01*
X017386Y007865D02*
X017310Y007865D01*
X017316Y007868D02*
X017386Y007868D01*
X017386Y007870D02*
X017322Y007870D01*
X017328Y007873D02*
X017386Y007873D01*
X017386Y007875D02*
X017333Y007875D01*
X017339Y007878D02*
X017386Y007878D01*
X017386Y007880D02*
X017345Y007880D01*
X017351Y007882D02*
X017386Y007882D01*
X017386Y007885D02*
X017356Y007885D01*
X017362Y007887D02*
X017386Y007887D01*
X017386Y007890D02*
X017368Y007890D01*
X017374Y007892D02*
X017386Y007892D01*
X017386Y007895D02*
X017380Y007895D01*
X017154Y008428D02*
X017066Y008428D01*
X017060Y008431D02*
X017160Y008431D01*
X017166Y008433D02*
X017055Y008433D01*
X017049Y008436D02*
X017171Y008436D01*
X017177Y008438D02*
X017043Y008438D01*
X017037Y008441D02*
X017183Y008441D01*
X017189Y008443D02*
X017031Y008443D01*
X017026Y008446D02*
X017195Y008446D01*
X017200Y008448D02*
X017020Y008448D01*
X017014Y008450D02*
X017206Y008450D01*
X017212Y008453D02*
X017008Y008453D01*
X017002Y008455D02*
X017218Y008455D01*
X017224Y008458D02*
X016997Y008458D01*
X016991Y008460D02*
X017229Y008460D01*
X017235Y008463D02*
X016985Y008463D01*
X016979Y008465D02*
X017241Y008465D01*
X017247Y008468D02*
X016974Y008468D01*
X016968Y008470D02*
X017252Y008470D01*
X017258Y008473D02*
X016962Y008473D01*
X016956Y008475D02*
X017264Y008475D01*
X017270Y008478D02*
X016950Y008478D01*
X016945Y008480D02*
X017276Y008480D01*
X017281Y008483D02*
X016939Y008483D01*
X016933Y008485D02*
X017287Y008485D01*
X017293Y008488D02*
X016927Y008488D01*
X016921Y008490D02*
X017299Y008490D01*
X017305Y008493D02*
X016916Y008493D01*
X016910Y008495D02*
X017310Y008495D01*
X017316Y008498D02*
X016904Y008498D01*
X016898Y008500D02*
X017322Y008500D01*
X017328Y008503D02*
X016892Y008503D01*
X016887Y008505D02*
X017334Y008505D01*
X017339Y008508D02*
X016881Y008508D01*
X016875Y008510D02*
X017345Y008510D01*
X017351Y008512D02*
X016869Y008512D01*
X016864Y008515D02*
X017357Y008515D01*
X017362Y008517D02*
X016858Y008517D01*
X016852Y008520D02*
X017368Y008520D01*
X017374Y008522D02*
X016846Y008522D01*
X016840Y008525D02*
X017380Y008525D01*
X017386Y008527D02*
X016835Y008527D01*
X016834Y008530D02*
X017386Y008530D01*
X017386Y008532D02*
X016834Y008532D01*
X016834Y008535D02*
X017386Y008535D01*
X017386Y008537D02*
X016834Y008537D01*
X016834Y008540D02*
X017386Y008540D01*
X017386Y008542D02*
X016834Y008542D01*
X016834Y008545D02*
X017386Y008545D01*
X017386Y008547D02*
X016834Y008547D01*
X016834Y008550D02*
X017386Y008550D01*
X017386Y008552D02*
X016834Y008552D01*
X016834Y008555D02*
X017386Y008555D01*
X017386Y008557D02*
X016834Y008557D01*
X016834Y008560D02*
X017386Y008560D01*
X017386Y008562D02*
X016834Y008562D01*
X016834Y008565D02*
X017386Y008565D01*
X017386Y008567D02*
X016834Y008567D01*
X016834Y008570D02*
X017386Y008570D01*
X017386Y008572D02*
X016834Y008572D01*
X016834Y008574D02*
X017386Y008574D01*
X017386Y008577D02*
X016834Y008577D01*
X016834Y008579D02*
X017386Y008579D01*
X017386Y008582D02*
X016834Y008582D01*
X016834Y008584D02*
X017386Y008584D01*
X017386Y008587D02*
X016834Y008587D01*
X016834Y008589D02*
X017386Y008589D01*
X017386Y008592D02*
X016834Y008592D01*
X016834Y008594D02*
X017386Y008594D01*
X017386Y008597D02*
X016834Y008597D01*
X016834Y008599D02*
X017386Y008599D01*
X017386Y008602D02*
X016834Y008602D01*
X016834Y008604D02*
X017386Y008604D01*
X017386Y008607D02*
X016834Y008607D01*
X016834Y008609D02*
X017386Y008609D01*
X017386Y008612D02*
X016834Y008612D01*
X016834Y008614D02*
X017386Y008614D01*
X017386Y008617D02*
X016834Y008617D01*
X016834Y008619D02*
X017386Y008619D01*
X017386Y008622D02*
X016834Y008622D01*
X016834Y008624D02*
X017386Y008624D01*
X017386Y008627D02*
X016834Y008627D01*
X016834Y008629D02*
X017386Y008629D01*
X017386Y008632D02*
X016834Y008632D01*
X016834Y008634D02*
X017386Y008634D01*
X017386Y008636D02*
X016834Y008636D01*
X016834Y008639D02*
X017386Y008639D01*
X017386Y008641D02*
X016834Y008641D01*
X016834Y008644D02*
X017386Y008644D01*
X017386Y008646D02*
X016834Y008646D01*
X016834Y008649D02*
X017386Y008649D01*
X017386Y008651D02*
X016834Y008651D01*
X016834Y008654D02*
X017386Y008654D01*
X017386Y008656D02*
X016834Y008656D01*
X016834Y008659D02*
X017386Y008659D01*
X017386Y008661D02*
X016834Y008661D01*
X016834Y008664D02*
X017386Y008664D01*
X017386Y008666D02*
X016834Y008666D01*
X016834Y008669D02*
X017386Y008669D01*
X017386Y008671D02*
X016834Y008671D01*
X016834Y008674D02*
X017386Y008674D01*
X017386Y008676D02*
X016834Y008676D01*
X016834Y008679D02*
X017386Y008679D01*
X017386Y008681D02*
X016834Y008681D01*
X016834Y008684D02*
X017386Y008684D01*
X017386Y008686D02*
X016834Y008686D01*
X016834Y008689D02*
X017386Y008689D01*
X017386Y008691D02*
X016834Y008691D01*
X016834Y008694D02*
X017386Y008694D01*
X017386Y008696D02*
X016834Y008696D01*
X016834Y008699D02*
X017386Y008699D01*
X017386Y008701D02*
X016834Y008701D01*
X016834Y008703D02*
X017386Y008703D01*
X017386Y008706D02*
X016834Y008706D01*
X016834Y008708D02*
X017386Y008708D01*
X017386Y008711D02*
X016834Y008711D01*
X016834Y008713D02*
X017386Y008713D01*
X017386Y008716D02*
X016834Y008716D01*
X016834Y008718D02*
X017386Y008718D01*
X017386Y008721D02*
X016834Y008721D01*
X016834Y008723D02*
X017386Y008723D01*
X017387Y008726D02*
X016834Y008726D01*
X016834Y008728D02*
X017390Y008728D01*
X017392Y008731D02*
X016834Y008731D01*
X016834Y008733D02*
X017395Y008733D01*
X017397Y008736D02*
X016834Y008736D01*
X016834Y008738D02*
X017400Y008738D01*
X017402Y008741D02*
X016834Y008741D01*
X016834Y008743D02*
X017405Y008743D01*
X017407Y008746D02*
X016834Y008746D01*
X016834Y008748D02*
X017410Y008748D01*
X017412Y008751D02*
X016834Y008751D01*
X016834Y008753D02*
X017414Y008753D01*
X017417Y008756D02*
X016834Y008756D01*
X016834Y008758D02*
X017419Y008758D01*
X017422Y008761D02*
X016834Y008761D01*
X016834Y008763D02*
X017424Y008763D01*
X017427Y008765D02*
X016834Y008765D01*
X016834Y008768D02*
X017429Y008768D01*
X017432Y008770D02*
X016834Y008770D01*
X016834Y008773D02*
X017434Y008773D01*
X017437Y008775D02*
X016834Y008775D01*
X016834Y008778D02*
X017439Y008778D01*
X017442Y008780D02*
X016834Y008780D01*
X016834Y008783D02*
X017444Y008783D01*
X017447Y008785D02*
X016834Y008785D01*
X016834Y008788D02*
X017449Y008788D01*
X017452Y008790D02*
X016834Y008790D01*
X016834Y008793D02*
X017454Y008793D01*
X017457Y008795D02*
X016834Y008795D01*
X016834Y008798D02*
X017459Y008798D01*
X017462Y008800D02*
X016834Y008800D01*
X016834Y008803D02*
X017464Y008803D01*
X017467Y008805D02*
X016834Y008805D01*
X016834Y008808D02*
X017469Y008808D01*
X017472Y008810D02*
X016834Y008810D01*
X016834Y008813D02*
X017474Y008813D01*
X017476Y008815D02*
X016834Y008815D01*
X016834Y008818D02*
X017479Y008818D01*
X017481Y008820D02*
X016834Y008820D01*
X016834Y008823D02*
X017484Y008823D01*
X017148Y008426D02*
X017072Y008426D01*
X017078Y008423D02*
X017143Y008423D01*
X017137Y008421D02*
X017083Y008421D01*
X017089Y008418D02*
X017131Y008418D01*
X017125Y008416D02*
X017095Y008416D01*
X017101Y008413D02*
X017119Y008413D01*
X017114Y008411D02*
X017107Y008411D01*
X016836Y009021D02*
X018683Y009021D01*
X018681Y009023D02*
X016838Y009023D01*
X016841Y009026D02*
X018679Y009026D01*
X018676Y009028D02*
X016843Y009028D01*
X016846Y009031D02*
X018674Y009031D01*
X018671Y009033D02*
X016848Y009033D01*
X016851Y009036D02*
X018669Y009036D01*
X018666Y009038D02*
X016853Y009038D01*
X016856Y009041D02*
X018664Y009041D01*
X018661Y009043D02*
X016858Y009043D01*
X016861Y009046D02*
X018659Y009046D01*
X018656Y009048D02*
X016863Y009048D01*
X016866Y009051D02*
X018654Y009051D01*
X018651Y009053D02*
X016868Y009053D01*
X016871Y009056D02*
X018649Y009056D01*
X018646Y009058D02*
X016873Y009058D01*
X016876Y009061D02*
X018644Y009061D01*
X018641Y009063D02*
X016878Y009063D01*
X016881Y009066D02*
X018639Y009066D01*
X018636Y009068D02*
X016883Y009068D01*
X016886Y009071D02*
X018634Y009071D01*
X018631Y009073D02*
X016888Y009073D01*
X016890Y009076D02*
X018629Y009076D01*
X018626Y009078D02*
X016893Y009078D01*
X016895Y009080D02*
X018624Y009080D01*
X018621Y009083D02*
X016898Y009083D01*
X016900Y009085D02*
X018619Y009085D01*
X018616Y009088D02*
X016903Y009088D01*
X016905Y009090D02*
X018614Y009090D01*
X018612Y009093D02*
X016908Y009093D01*
X016910Y009095D02*
X018609Y009095D01*
X018607Y009098D02*
X016913Y009098D01*
X016915Y009100D02*
X018604Y009100D01*
X018602Y009103D02*
X016918Y009103D01*
X016920Y009105D02*
X018599Y009105D01*
X018597Y009108D02*
X016923Y009108D01*
X016925Y009110D02*
X018594Y009110D01*
X018592Y009113D02*
X016928Y009113D01*
X016930Y009115D02*
X018589Y009115D01*
X018587Y009118D02*
X016933Y009118D01*
X016935Y009120D02*
X018584Y009120D01*
X018582Y009123D02*
X016938Y009123D01*
X016940Y009125D02*
X018579Y009125D01*
X018577Y009128D02*
X016943Y009128D01*
X016945Y009130D02*
X018574Y009130D01*
X018572Y009133D02*
X016948Y009133D01*
X016950Y009135D02*
X018569Y009135D01*
X018567Y009138D02*
X016952Y009138D01*
X016955Y009140D02*
X018564Y009140D01*
X018562Y009142D02*
X016957Y009142D01*
X016960Y009145D02*
X018559Y009145D01*
X018557Y009147D02*
X016962Y009147D01*
X016965Y009150D02*
X018554Y009150D01*
X018552Y009152D02*
X016967Y009152D01*
X016970Y009155D02*
X018550Y009155D01*
X018547Y009157D02*
X016972Y009157D01*
X016975Y009160D02*
X018545Y009160D01*
X018542Y009162D02*
X016977Y009162D01*
X016980Y009165D02*
X018540Y009165D01*
X018537Y009167D02*
X016982Y009167D01*
X016985Y009170D02*
X018535Y009170D01*
X018532Y009172D02*
X016987Y009172D01*
X016990Y009175D02*
X018530Y009175D01*
X018527Y009177D02*
X016992Y009177D01*
X016995Y009180D02*
X018525Y009180D01*
X018522Y009182D02*
X016997Y009182D01*
X017000Y009185D02*
X018520Y009185D01*
X018517Y009187D02*
X017002Y009187D01*
X017005Y009190D02*
X018515Y009190D01*
X018512Y009192D02*
X017007Y009192D01*
X017010Y009195D02*
X018510Y009195D01*
X018507Y009197D02*
X017012Y009197D01*
X017014Y009200D02*
X018505Y009200D01*
X018502Y009202D02*
X017017Y009202D01*
X017019Y009204D02*
X018500Y009204D01*
X018497Y009207D02*
X017022Y009207D01*
X017024Y009209D02*
X018495Y009209D01*
X018492Y009212D02*
X017027Y009212D01*
X017029Y009214D02*
X018490Y009214D01*
X018488Y009217D02*
X017032Y009217D01*
X017034Y009219D02*
X018485Y009219D01*
X018483Y009222D02*
X017037Y009222D01*
X017039Y009224D02*
X018480Y009224D01*
X018478Y009227D02*
X017042Y009227D01*
X017044Y009229D02*
X018475Y009229D01*
X018473Y009232D02*
X017047Y009232D01*
X017049Y009234D02*
X018470Y009234D01*
X018468Y009237D02*
X017052Y009237D01*
X017054Y009239D02*
X018465Y009239D01*
X018463Y009242D02*
X017057Y009242D01*
X017059Y009244D02*
X018460Y009244D01*
X018458Y009247D02*
X017062Y009247D01*
X017064Y009249D02*
X018455Y009249D01*
X018453Y009252D02*
X017067Y009252D01*
X017069Y009254D02*
X018450Y009254D01*
X018448Y009257D02*
X017072Y009257D01*
X017074Y009259D02*
X018445Y009259D01*
X018443Y009262D02*
X017076Y009262D01*
X017079Y009264D02*
X018440Y009264D01*
X018438Y009266D02*
X017081Y009266D01*
X017084Y009269D02*
X018435Y009269D01*
X018433Y009271D02*
X017086Y009271D01*
X017089Y009274D02*
X018430Y009274D01*
X018428Y009276D02*
X017091Y009276D01*
X017094Y009279D02*
X018426Y009279D01*
X018423Y009281D02*
X017096Y009281D01*
X017099Y009284D02*
X018421Y009284D01*
X018418Y009286D02*
X017101Y009286D01*
X017104Y009289D02*
X018416Y009289D01*
X018413Y009291D02*
X017106Y009291D01*
X017109Y009294D02*
X018411Y009294D01*
X018408Y009296D02*
X017111Y009296D01*
X017114Y009299D02*
X018406Y009299D01*
X018403Y009301D02*
X017116Y009301D01*
X017119Y009304D02*
X018401Y009304D01*
X018398Y009306D02*
X017121Y009306D01*
X017124Y009309D02*
X018396Y009309D01*
X018393Y009311D02*
X017126Y009311D01*
X017129Y009314D02*
X018391Y009314D01*
X018388Y009316D02*
X017131Y009316D01*
X017134Y009319D02*
X018386Y009319D01*
X018383Y009321D02*
X017136Y009321D01*
X017139Y009324D02*
X018381Y009324D01*
X018378Y009326D02*
X017141Y009326D01*
X017143Y009329D02*
X018376Y009329D01*
X018373Y009331D02*
X017146Y009331D01*
X017148Y009333D02*
X018371Y009333D01*
X018368Y009336D02*
X017151Y009336D01*
X017153Y009338D02*
X018366Y009338D01*
X018364Y009341D02*
X017156Y009341D01*
X017158Y009343D02*
X018361Y009343D01*
X018359Y009346D02*
X017161Y009346D01*
X017163Y009348D02*
X018356Y009348D01*
X018354Y009351D02*
X017166Y009351D01*
X017168Y009353D02*
X018351Y009353D01*
X018349Y009356D02*
X017171Y009356D01*
X017173Y009358D02*
X018346Y009358D01*
X018344Y009361D02*
X017176Y009361D01*
X017178Y009363D02*
X018341Y009363D01*
X018339Y009366D02*
X017181Y009366D01*
X017183Y009368D02*
X018336Y009368D01*
X018334Y009371D02*
X017186Y009371D01*
X017188Y009373D02*
X018331Y009373D01*
X018329Y009376D02*
X017191Y009376D01*
X017193Y009378D02*
X018326Y009378D01*
X018324Y009381D02*
X017196Y009381D01*
X017198Y009383D02*
X018321Y009383D01*
X018319Y009386D02*
X017201Y009386D01*
X017203Y009388D02*
X018316Y009388D01*
X018314Y009391D02*
X017205Y009391D01*
X017208Y009393D02*
X018311Y009393D01*
X018309Y009395D02*
X017210Y009395D01*
X017213Y009398D02*
X018306Y009398D01*
X018304Y009400D02*
X017215Y009400D01*
X017218Y009403D02*
X018301Y009403D01*
X018299Y009405D02*
X017220Y009405D01*
X017223Y009408D02*
X018297Y009408D01*
X018294Y009410D02*
X017225Y009410D01*
X017228Y009413D02*
X018292Y009413D01*
X018289Y009415D02*
X017230Y009415D01*
X017233Y009418D02*
X018287Y009418D01*
X018284Y009420D02*
X017235Y009420D01*
X017238Y009423D02*
X018282Y009423D01*
X018279Y009425D02*
X017240Y009425D01*
X017243Y009428D02*
X018277Y009428D01*
X018274Y009430D02*
X017245Y009430D01*
X017248Y009433D02*
X018272Y009433D01*
X018685Y007520D02*
X016834Y007520D01*
X016834Y007518D02*
X018685Y007518D01*
X018685Y007515D02*
X016834Y007515D01*
X016834Y007513D02*
X018685Y007513D01*
X018685Y007510D02*
X016834Y007510D01*
X016834Y007508D02*
X018685Y007508D01*
X018685Y007505D02*
X016834Y007505D01*
X016834Y007503D02*
X018685Y007503D01*
X018685Y007501D02*
X016834Y007501D01*
X016834Y007498D02*
X018685Y007498D01*
X018685Y007496D02*
X016834Y007496D01*
X016834Y007493D02*
X018685Y007493D01*
X018685Y007491D02*
X016834Y007491D01*
X016834Y007488D02*
X018685Y007488D01*
X018685Y007486D02*
X016834Y007486D01*
X016834Y007483D02*
X018685Y007483D01*
X018685Y007481D02*
X016834Y007481D01*
X016834Y007478D02*
X018685Y007478D01*
X018685Y007476D02*
X016834Y007476D01*
X016834Y007473D02*
X018685Y007473D01*
X018685Y007471D02*
X016834Y007471D01*
X016834Y007468D02*
X018685Y007468D01*
X018685Y007466D02*
X016834Y007466D01*
X016834Y007463D02*
X018685Y007463D01*
X018685Y007461D02*
X016834Y007461D01*
X016834Y007458D02*
X018685Y007458D01*
X018685Y007456D02*
X016834Y007456D01*
X016834Y007453D02*
X018685Y007453D01*
X018685Y007451D02*
X016834Y007451D01*
X016834Y007448D02*
X018685Y007448D01*
X018685Y007446D02*
X016834Y007446D01*
X016834Y007443D02*
X018685Y007443D01*
X018685Y007441D02*
X016834Y007441D01*
X016834Y007439D02*
X018685Y007439D01*
X018685Y007436D02*
X016834Y007436D01*
X016834Y007434D02*
X018685Y007434D01*
X018685Y007431D02*
X016834Y007431D01*
X016834Y007429D02*
X018685Y007429D01*
X018685Y007426D02*
X016834Y007426D01*
X016834Y007424D02*
X018685Y007424D01*
X018685Y007421D02*
X016834Y007421D01*
X016834Y007419D02*
X018685Y007419D01*
X018685Y007416D02*
X016834Y007416D01*
X016834Y007414D02*
X018685Y007414D01*
X018685Y007411D02*
X016834Y007411D01*
X016834Y007409D02*
X018685Y007409D01*
X018685Y007406D02*
X016834Y007406D01*
X016834Y007404D02*
X018685Y007404D01*
X018685Y007401D02*
X016834Y007401D01*
X016834Y007399D02*
X018685Y007399D01*
X018685Y007396D02*
X016834Y007396D01*
X016834Y007394D02*
X018685Y007394D01*
X018685Y007391D02*
X016834Y007391D01*
X016834Y007389D02*
X018685Y007389D01*
X018685Y007386D02*
X016834Y007386D01*
X016834Y007384D02*
X018685Y007384D01*
X018685Y007381D02*
X016834Y007381D01*
X016834Y007379D02*
X018685Y007379D01*
X018685Y007376D02*
X016834Y007376D01*
X016834Y007374D02*
X018685Y007374D01*
X018685Y007372D02*
X016834Y007372D01*
X016834Y007369D02*
X018685Y007369D01*
X018685Y007367D02*
X016834Y007367D01*
X016834Y007364D02*
X018685Y007364D01*
X018685Y007362D02*
X016834Y007362D01*
X016834Y007359D02*
X018685Y007359D01*
X018685Y007357D02*
X016834Y007357D01*
X016834Y007354D02*
X018685Y007354D01*
X018685Y007352D02*
X016834Y007352D01*
X016834Y007349D02*
X018685Y007349D01*
X018685Y007347D02*
X016834Y007347D01*
X016837Y007344D02*
X018683Y007344D01*
X018680Y007342D02*
X016839Y007342D01*
X016841Y007339D02*
X018678Y007339D01*
X018675Y007337D02*
X016844Y007337D01*
X016846Y007334D02*
X018673Y007334D01*
X018670Y007332D02*
X016849Y007332D01*
X016851Y007329D02*
X018668Y007329D01*
X018665Y007327D02*
X016854Y007327D01*
X016856Y007324D02*
X018663Y007324D01*
X018661Y007322D02*
X016859Y007322D01*
X016861Y007319D02*
X018658Y007319D01*
X018656Y007317D02*
X016864Y007317D01*
X016866Y007314D02*
X018653Y007314D01*
X018651Y007312D02*
X016869Y007312D01*
X016871Y007310D02*
X018648Y007310D01*
X018646Y007307D02*
X016874Y007307D01*
X016876Y007305D02*
X018643Y007305D01*
X018641Y007302D02*
X016879Y007302D01*
X016881Y007300D02*
X018638Y007300D01*
X018636Y007297D02*
X016884Y007297D01*
X016886Y007295D02*
X018633Y007295D01*
X018631Y007292D02*
X016889Y007292D01*
X016891Y007290D02*
X018628Y007290D01*
X018626Y007287D02*
X016894Y007287D01*
X016896Y007285D02*
X018623Y007285D01*
X018621Y007282D02*
X016899Y007282D01*
X016901Y007280D02*
X018618Y007280D01*
X018616Y007277D02*
X016904Y007277D01*
X016906Y007275D02*
X018613Y007275D01*
X018611Y007272D02*
X016908Y007272D01*
X016911Y007270D02*
X018608Y007270D01*
X018606Y007267D02*
X016913Y007267D01*
X016916Y007265D02*
X018603Y007265D01*
X018601Y007262D02*
X016918Y007262D01*
X016921Y007260D02*
X018599Y007260D01*
X018596Y007257D02*
X016923Y007257D01*
X016926Y007255D02*
X018594Y007255D01*
X018591Y007252D02*
X016928Y007252D01*
X016931Y007250D02*
X018589Y007250D01*
X018586Y007248D02*
X016933Y007248D01*
X016936Y007245D02*
X018584Y007245D01*
X018581Y007243D02*
X016938Y007243D01*
X016941Y007240D02*
X018579Y007240D01*
X018576Y007238D02*
X016943Y007238D01*
X016946Y007235D02*
X018574Y007235D01*
X018571Y007233D02*
X016948Y007233D01*
X016951Y007230D02*
X018569Y007230D01*
X018566Y007228D02*
X016953Y007228D01*
X016956Y007225D02*
X018564Y007225D01*
X018561Y007223D02*
X016958Y007223D01*
X016961Y007220D02*
X018559Y007220D01*
X018556Y007218D02*
X016963Y007218D01*
X016966Y007215D02*
X018554Y007215D01*
X018551Y007213D02*
X016968Y007213D01*
X016970Y007210D02*
X018549Y007210D01*
X018546Y007208D02*
X016973Y007208D01*
X016975Y007205D02*
X018544Y007205D01*
X018541Y007203D02*
X016978Y007203D01*
X016980Y007200D02*
X018539Y007200D01*
X018536Y007198D02*
X016983Y007198D01*
X016985Y007195D02*
X018534Y007195D01*
X018532Y007193D02*
X016988Y007193D01*
X016990Y007190D02*
X018529Y007190D01*
X018527Y007188D02*
X016993Y007188D01*
X016995Y007186D02*
X018524Y007186D01*
X018522Y007183D02*
X016998Y007183D01*
X017000Y007181D02*
X018519Y007181D01*
X018517Y007178D02*
X017003Y007178D01*
X017005Y007176D02*
X018514Y007176D01*
X018512Y007173D02*
X017008Y007173D01*
X017010Y007171D02*
X018509Y007171D01*
X018507Y007168D02*
X017013Y007168D01*
X017015Y007166D02*
X018504Y007166D01*
X018502Y007163D02*
X017018Y007163D01*
X017020Y007161D02*
X018499Y007161D01*
X018497Y007158D02*
X017023Y007158D01*
X017025Y007156D02*
X018494Y007156D01*
X018492Y007153D02*
X017028Y007153D01*
X017030Y007151D02*
X018489Y007151D01*
X018487Y007148D02*
X017032Y007148D01*
X017035Y007146D02*
X018484Y007146D01*
X018482Y007143D02*
X017037Y007143D01*
X017040Y007141D02*
X018479Y007141D01*
X018477Y007138D02*
X017042Y007138D01*
X017045Y007136D02*
X018474Y007136D01*
X018472Y007133D02*
X017047Y007133D01*
X017050Y007131D02*
X018470Y007131D01*
X018467Y007128D02*
X017052Y007128D01*
X017055Y007126D02*
X018465Y007126D01*
X018462Y007124D02*
X017057Y007124D01*
X017060Y007121D02*
X018460Y007121D01*
X018457Y007119D02*
X017062Y007119D01*
X017065Y007116D02*
X018455Y007116D01*
X018452Y007114D02*
X017067Y007114D01*
X017070Y007111D02*
X018450Y007111D01*
X018447Y007109D02*
X017072Y007109D01*
X017075Y007106D02*
X018445Y007106D01*
X018442Y007104D02*
X017077Y007104D01*
X017080Y007101D02*
X018440Y007101D01*
X018437Y007099D02*
X017082Y007099D01*
X017085Y007096D02*
X018435Y007096D01*
X018432Y007094D02*
X017087Y007094D01*
X017090Y007091D02*
X018430Y007091D01*
X018427Y007089D02*
X017092Y007089D01*
X017094Y007086D02*
X018425Y007086D01*
X018422Y007084D02*
X017097Y007084D01*
X017099Y007081D02*
X018420Y007081D01*
X018417Y007079D02*
X017102Y007079D01*
X017104Y007076D02*
X018415Y007076D01*
X018412Y007074D02*
X017107Y007074D01*
X017109Y007071D02*
X018410Y007071D01*
X018408Y007069D02*
X017112Y007069D01*
X017114Y007066D02*
X018405Y007066D01*
X018403Y007064D02*
X017117Y007064D01*
X017119Y007061D02*
X018400Y007061D01*
X018398Y007059D02*
X017122Y007059D01*
X017124Y007057D02*
X018395Y007057D01*
X018393Y007054D02*
X017127Y007054D01*
X017129Y007052D02*
X018390Y007052D01*
X018388Y007049D02*
X017132Y007049D01*
X017134Y007047D02*
X018385Y007047D01*
X018383Y007044D02*
X017137Y007044D01*
X017139Y007042D02*
X018380Y007042D01*
X018378Y007039D02*
X017142Y007039D01*
X017144Y007037D02*
X018375Y007037D01*
X018373Y007034D02*
X017147Y007034D01*
X017149Y007032D02*
X018370Y007032D01*
X018368Y007029D02*
X017152Y007029D01*
X017154Y007027D02*
X018365Y007027D01*
X018363Y007024D02*
X017156Y007024D01*
X017159Y007022D02*
X018360Y007022D01*
X018358Y007019D02*
X017161Y007019D01*
X017164Y007017D02*
X018355Y007017D01*
X018353Y007014D02*
X017166Y007014D01*
X017169Y007012D02*
X018350Y007012D01*
X018348Y007009D02*
X017171Y007009D01*
X017174Y007007D02*
X018346Y007007D01*
X018343Y007004D02*
X017176Y007004D01*
X017179Y007002D02*
X018341Y007002D01*
X018338Y006999D02*
X017181Y006999D01*
X017184Y006997D02*
X018336Y006997D01*
X018333Y006995D02*
X017186Y006995D01*
X017189Y006992D02*
X018331Y006992D01*
X018328Y006990D02*
X017191Y006990D01*
X017194Y006987D02*
X018326Y006987D01*
X018323Y006985D02*
X017196Y006985D01*
X017199Y006982D02*
X018321Y006982D01*
X018318Y006980D02*
X017201Y006980D01*
X017204Y006977D02*
X018316Y006977D01*
X018313Y006975D02*
X017206Y006975D01*
X017209Y006972D02*
X018311Y006972D01*
X018308Y006970D02*
X017211Y006970D01*
X017214Y006967D02*
X018306Y006967D01*
X018303Y006965D02*
X017216Y006965D01*
X017219Y006962D02*
X018301Y006962D01*
X018298Y006960D02*
X017221Y006960D01*
X017223Y006957D02*
X018296Y006957D01*
X018293Y006955D02*
X017226Y006955D01*
X017228Y006952D02*
X018291Y006952D01*
X018288Y006950D02*
X017231Y006950D01*
X017233Y006947D02*
X018286Y006947D01*
X018284Y006945D02*
X017236Y006945D01*
X017238Y006942D02*
X018281Y006942D01*
X018279Y006940D02*
X017241Y006940D01*
X017243Y006937D02*
X018276Y006937D01*
X018274Y006935D02*
X017246Y006935D01*
D14*
X020382Y003055D02*
X020382Y001972D01*
M02*
