G75*
G70*
%OFA0B0*%
%FSLAX24Y24*%
%IPPOS*%
%LPD*%
%AMOC8*
5,1,8,0,0,1.08239X$1,22.5*
%
%ADD10C,0.1812*%
%ADD11R,0.2362X0.2362*%
%ADD12R,0.0513X0.0513*%
%ADD13C,0.0513*%
%ADD14R,0.0552X0.0552*%
%ADD15C,0.0552*%
%ADD16C,0.0946*%
%ADD17R,0.0513X0.0474*%
%ADD18R,0.0379X0.0379*%
%ADD19R,0.1143X0.0710*%
%ADD20R,0.0611X0.0611*%
%ADD21C,0.0611*%
%ADD22R,0.0316X0.0493*%
%ADD23C,0.0482*%
%ADD24R,0.0682X0.0682*%
%ADD25C,0.0682*%
%ADD26C,0.0592*%
%ADD27R,0.0710X0.0789*%
%ADD28R,0.0926X0.1360*%
%ADD29R,0.0926X0.0454*%
%ADD30R,0.1419X0.0828*%
%ADD31C,0.1753*%
%ADD32C,0.1950*%
%ADD33C,0.0560*%
%ADD34R,0.1064X0.0749*%
%ADD35C,0.0680*%
D10*
X004098Y010004D03*
X004098Y031657D03*
X023783Y031657D03*
X029689Y010004D03*
D11*
X008331Y034020D03*
D12*
X015978Y028614D03*
X015978Y012866D03*
D13*
X016478Y012866D03*
X016978Y012866D03*
X017478Y012866D03*
X017978Y012866D03*
X018478Y012866D03*
X018978Y012866D03*
X019478Y012866D03*
X019978Y012866D03*
X020478Y012866D03*
X020478Y028614D03*
X019978Y028614D03*
X019478Y028614D03*
X018978Y028614D03*
X018478Y028614D03*
X017978Y028614D03*
X017478Y028614D03*
X016978Y028614D03*
X016478Y028614D03*
D14*
X008189Y024677D03*
X010748Y014047D03*
X004768Y003114D03*
D15*
X001618Y003114D03*
X002405Y003114D03*
X003193Y003114D03*
X003980Y003114D03*
X003980Y005083D03*
X003193Y005083D03*
X002405Y005083D03*
X001618Y005083D03*
X004768Y005083D03*
X011732Y014047D03*
X011732Y014834D03*
X011732Y015622D03*
X011732Y016409D03*
X011732Y017197D03*
X011732Y017984D03*
X011732Y018771D03*
X011732Y019559D03*
X011732Y020346D03*
X011732Y021134D03*
X010748Y021134D03*
X010748Y020346D03*
X010748Y019559D03*
X010748Y018771D03*
X010748Y017984D03*
X010748Y017197D03*
X010748Y016409D03*
X010748Y015622D03*
X010748Y014834D03*
X008976Y024677D03*
X008976Y025464D03*
X008189Y025464D03*
X008189Y026252D03*
X008976Y026252D03*
D16*
X014291Y028614D03*
X022165Y028614D03*
X022165Y012866D03*
X014291Y012866D03*
D17*
X009216Y014000D03*
X009216Y014669D03*
X009216Y015575D03*
X009216Y016244D03*
X016205Y024827D03*
X016205Y025496D03*
X016894Y025496D03*
X016894Y024827D03*
X017583Y024827D03*
X017583Y025496D03*
X018271Y025496D03*
X018271Y024827D03*
X019846Y029748D03*
X019846Y030417D03*
X021027Y030417D03*
X021027Y029748D03*
X027130Y020083D03*
X027130Y019413D03*
X031854Y019512D03*
X031854Y020181D03*
X032838Y020181D03*
X032838Y019512D03*
X032838Y013980D03*
X032838Y013311D03*
X027130Y013409D03*
X027130Y014079D03*
X004886Y007189D03*
X004886Y006520D03*
X004098Y006520D03*
X004098Y007189D03*
X003311Y007189D03*
X003311Y006520D03*
X002523Y006520D03*
X002523Y007189D03*
X001736Y007189D03*
X001736Y006520D03*
D18*
X005693Y021758D03*
X006441Y021758D03*
X006067Y022659D03*
X023508Y026104D03*
X024256Y026104D03*
X023882Y025203D03*
X028155Y024866D03*
X029057Y024492D03*
X029632Y025083D03*
X029057Y025240D03*
X029632Y025831D03*
X030533Y025457D03*
X032937Y023348D03*
X033311Y022447D03*
X032563Y022447D03*
X028488Y019396D03*
X027740Y019396D03*
X028114Y020297D03*
X028114Y014392D03*
X027740Y013490D03*
X028488Y013490D03*
X033842Y013293D03*
X034590Y013293D03*
X034216Y014195D03*
D19*
X031854Y014197D03*
X031854Y013094D03*
X031460Y024315D03*
X031460Y025417D03*
X033035Y025417D03*
X033035Y024315D03*
X027130Y024315D03*
X027130Y025417D03*
X025555Y025417D03*
X025555Y024315D03*
D20*
X026146Y027031D03*
X031854Y027031D03*
X031854Y021126D03*
X026146Y021126D03*
X026146Y015220D03*
X031854Y015220D03*
X030575Y004394D03*
X024374Y004394D03*
X020240Y004492D03*
X001539Y015220D03*
X001638Y021126D03*
X004098Y027031D03*
D21*
X004098Y026047D03*
X003606Y021126D03*
X002622Y021126D03*
X002523Y015220D03*
X003508Y015220D03*
X021224Y004492D03*
X025358Y004394D03*
X026342Y004394D03*
X027327Y004394D03*
X031559Y004394D03*
X032543Y004394D03*
X033527Y004394D03*
X033823Y015220D03*
X032838Y015220D03*
X034807Y015220D03*
X029098Y015220D03*
X028114Y015220D03*
X027130Y015220D03*
X027130Y021126D03*
X028114Y021126D03*
X029098Y021126D03*
X032838Y021126D03*
X033823Y021126D03*
X033823Y027031D03*
X032838Y027031D03*
X028114Y027031D03*
X027130Y027031D03*
D22*
X023468Y006894D03*
X023094Y006894D03*
X022720Y006894D03*
X022720Y005831D03*
X023094Y005831D03*
X023468Y005831D03*
X002897Y016756D03*
X002149Y016756D03*
X002149Y017819D03*
X002523Y017819D03*
X002897Y017819D03*
D23*
X007642Y003039D03*
X012366Y003039D03*
X013350Y003039D03*
X018075Y003039D03*
D24*
X016894Y003409D03*
X011185Y003409D03*
D25*
X010004Y003409D03*
X008823Y003409D03*
X008823Y004590D03*
X010004Y004590D03*
X011185Y004590D03*
X014531Y004590D03*
X014531Y003409D03*
X015712Y003409D03*
X015712Y004590D03*
X016894Y004590D03*
D26*
X005555Y002445D03*
D27*
X006500Y002130D03*
X006500Y001146D03*
X007602Y001146D03*
X007602Y002130D03*
X007602Y003901D03*
X007602Y004886D03*
X007602Y005870D03*
X006500Y005870D03*
X006500Y004886D03*
X006500Y003901D03*
X007012Y016106D03*
X005909Y016106D03*
D28*
X005319Y013941D03*
D29*
X007602Y013941D03*
X007602Y013035D03*
X007602Y014846D03*
D30*
X008035Y011756D03*
X008035Y010220D03*
D31*
X033035Y031972D03*
X031854Y033823D03*
D32*
X030673Y031972D03*
D33*
X021732Y009260D02*
X021732Y008780D01*
X020732Y008780D02*
X020732Y009260D01*
X019732Y009260D02*
X019732Y008780D01*
D34*
X019945Y002523D03*
X021520Y002523D03*
D35*
X017138Y034113D02*
X017138Y034713D01*
X016138Y034713D02*
X016138Y034113D01*
X015138Y034113D02*
X015138Y034713D01*
X014138Y034713D02*
X014138Y034113D01*
X013138Y034113D02*
X013138Y034713D01*
X012138Y034713D02*
X012138Y034113D01*
X011138Y034113D02*
X011138Y034713D01*
M02*
