%
M48
M72
T01C0.0157
T02C0.0236
T03C0.0276
T04C0.0315
T05C0.0320
T06C0.0354
T07C0.0400
T08C0.0402
T09C0.0512
T10C0.0866
T11C0.1732
%
T01
X4984Y1834
X5673Y3705
X5279Y7642
X1342Y16303
X6657Y22209
X7838Y22405
X5181Y23980
X12268Y19157
X14827Y19354
X17386Y19354
X17583Y18370
X18764Y18370
X17484Y21027
X16697Y23980
X17189Y24275
X18862Y24374
X20831Y25358
X21421Y25653
X21224Y24571
X21421Y23980
X21618Y23390
X21815Y22799
X22405Y19846
X25358Y18665
X26146Y20240
X29689Y24177
X30870Y26146
X31854Y23390
X34020Y20240
X30870Y13350
X25516Y13586
X24964Y13153
X25161Y12071
X24275Y8527
X23882Y5181
X20732Y11480
X20043Y13744
X20142Y14334
X20043Y14925
X18567Y14433
X15909Y14630
X15220Y11480
X14334Y22405
X14138Y25653
X15122Y25653
X15614Y26638
X21224Y27228
X25161Y26736
X20732Y34020
X8921Y34512
X8232Y33527
X7642Y34512
T02
X9807Y24571
X9807Y21520
X8035Y10988
T03
X15978Y12866
X16478Y12866
X16978Y12866
X17478Y12866
X17978Y12866
X18478Y12866
X18978Y12866
X19478Y12866
X19978Y12866
X20478Y12866
X20478Y28614
X19978Y28614
X19478Y28614
X18978Y28614
X18478Y28614
X17978Y28614
X17478Y28614
X16978Y28614
X16478Y28614
X15978Y28614
T04
X1618Y3114
X2405Y3114
X3193Y3114
X3980Y3114
X4768Y3114
X4768Y5083
X3980Y5083
X3193Y5083
X2405Y5083
X1618Y5083
X10748Y14047
X10748Y14834
X10748Y15622
X10748Y16409
X10748Y17197
X10748Y17984
X10748Y18771
X10748Y19559
X10748Y20346
X10748Y21134
X11732Y21134
X11732Y20346
X11732Y19559
X11732Y18771
X11732Y17984
X11732Y17197
X11732Y16409
X11732Y15622
X11732Y14834
X11732Y14047
X8976Y24677
X8189Y24677
X8189Y25464
X8976Y25464
X8976Y26252
X8189Y26252
T05
X19732Y9020
X20732Y9020
X21732Y9020
T06
X21224Y4492
X20240Y4492
X24374Y4394
X25358Y4394
X26342Y4394
X27327Y4394
X30575Y4394
X31559Y4394
X32543Y4394
X33527Y4394
X33823Y15220
X32838Y15220
X31854Y15220
X29098Y15220
X28114Y15220
X27130Y15220
X26146Y15220
X26146Y21126
X27130Y21126
X28114Y21126
X29098Y21126
X31854Y21126
X32838Y21126
X33823Y21126
X34807Y15220
X33823Y27031
X32838Y27031
X31854Y27031
X28114Y27031
X27130Y27031
X26146Y27031
X4098Y27031
X4098Y26047
X3606Y21126
X2622Y21126
X1638Y21126
X1539Y15220
X2523Y15220
X3508Y15220
T07
X11138Y34413
X12138Y34413
X13138Y34413
X14138Y34413
X15138Y34413
X16138Y34413
X17138Y34413
T08
X30673Y31972
X31854Y33823
X33035Y31972
X16894Y4590
X16894Y3409
X15712Y3409
X14531Y3409
X14531Y4590
X15712Y4590
X13350Y3039
X12366Y3039
X11185Y3409
X10004Y3409
X8823Y3409
X8823Y4590
X10004Y4590
X11185Y4590
X7642Y3039
X18075Y3039
T09
X5555Y2445
T10
X14291Y12866
X22165Y12866
X22165Y28614
X14291Y28614
T11
X23783Y31657
X4098Y31657
X4098Y10004
X29689Y10004
M30
