G75*
G70*
%OFA0B0*%
%FSLAX24Y24*%
%IPPOS*%
%LPD*%
%AMOC8*
5,1,8,0,0,1.08239X$1,22.5*
%
%ADD10C,0.1812*%
%ADD11R,0.2362X0.2362*%
%ADD12R,0.0513X0.0513*%
%ADD13C,0.0513*%
%ADD14R,0.0552X0.0552*%
%ADD15C,0.0552*%
%ADD16C,0.0946*%
%ADD17R,0.0611X0.0611*%
%ADD18C,0.0611*%
%ADD19R,0.0198X0.0710*%
%ADD20R,0.0474X0.0513*%
%ADD21C,0.0482*%
%ADD22R,0.0682X0.0682*%
%ADD23C,0.0682*%
%ADD24C,0.0592*%
%ADD25C,0.1753*%
%ADD26C,0.1950*%
%ADD27R,0.0580X0.0330*%
%ADD28C,0.0560*%
%ADD29R,0.0513X0.0474*%
%ADD30C,0.0680*%
D10*
X004098Y010004D03*
X004098Y031657D03*
X023783Y031657D03*
X029689Y010004D03*
D11*
X008331Y034020D03*
D12*
X015978Y028614D03*
X015978Y012866D03*
D13*
X016478Y012866D03*
X016978Y012866D03*
X017478Y012866D03*
X017978Y012866D03*
X018478Y012866D03*
X018978Y012866D03*
X019478Y012866D03*
X019978Y012866D03*
X020478Y012866D03*
X020478Y028614D03*
X019978Y028614D03*
X019478Y028614D03*
X018978Y028614D03*
X018478Y028614D03*
X017978Y028614D03*
X017478Y028614D03*
X016978Y028614D03*
X016478Y028614D03*
D14*
X008189Y024677D03*
X010748Y014047D03*
X004768Y003114D03*
D15*
X001618Y003114D03*
X002405Y003114D03*
X003193Y003114D03*
X003980Y003114D03*
X003980Y005083D03*
X003193Y005083D03*
X002405Y005083D03*
X001618Y005083D03*
X004768Y005083D03*
X011732Y014047D03*
X011732Y014834D03*
X011732Y015622D03*
X011732Y016409D03*
X011732Y017197D03*
X011732Y017984D03*
X011732Y018771D03*
X011732Y019559D03*
X011732Y020346D03*
X011732Y021134D03*
X010748Y021134D03*
X010748Y020346D03*
X010748Y019559D03*
X010748Y018771D03*
X010748Y017984D03*
X010748Y017197D03*
X010748Y016409D03*
X010748Y015622D03*
X010748Y014834D03*
X008976Y024677D03*
X008976Y025464D03*
X008189Y025464D03*
X008189Y026252D03*
X008976Y026252D03*
D16*
X014291Y028614D03*
X022165Y028614D03*
X022165Y012866D03*
X014291Y012866D03*
D17*
X020240Y004492D03*
X024374Y004394D03*
X030575Y004394D03*
X031854Y015220D03*
X026146Y015220D03*
X026146Y021126D03*
X031854Y021126D03*
X031854Y027031D03*
X026146Y027031D03*
X004098Y027031D03*
X001638Y021126D03*
X001539Y015220D03*
D18*
X002523Y015220D03*
X003508Y015220D03*
X003606Y021126D03*
X002622Y021126D03*
X004098Y026047D03*
X021224Y004492D03*
X025358Y004394D03*
X026342Y004394D03*
X027327Y004394D03*
X031559Y004394D03*
X032543Y004394D03*
X033527Y004394D03*
X033823Y015220D03*
X032838Y015220D03*
X034807Y015220D03*
X029098Y015220D03*
X028114Y015220D03*
X027130Y015220D03*
X027130Y021126D03*
X028114Y021126D03*
X029098Y021126D03*
X032838Y021126D03*
X033823Y021126D03*
X033823Y027031D03*
X032838Y027031D03*
X028114Y027031D03*
X027130Y027031D03*
D19*
X021647Y021736D03*
X021392Y021736D03*
X021136Y021736D03*
X020880Y021736D03*
X020624Y021736D03*
X020368Y021736D03*
X020112Y021736D03*
X019856Y021736D03*
X019600Y021736D03*
X019344Y021736D03*
X019088Y021736D03*
X018833Y021736D03*
X018833Y019531D03*
X019088Y019531D03*
X019344Y019531D03*
X019600Y019531D03*
X019856Y019531D03*
X020112Y019531D03*
X020368Y019531D03*
X020624Y019531D03*
X020880Y019531D03*
X021136Y019531D03*
X021392Y019531D03*
X021647Y019531D03*
D20*
X018075Y021086D03*
X018075Y021756D03*
X016244Y021815D03*
X015575Y021815D03*
X015575Y020240D03*
X016244Y020240D03*
D21*
X018075Y003039D03*
X013350Y003039D03*
X012366Y003039D03*
X007642Y003039D03*
D22*
X011185Y003409D03*
X016894Y003409D03*
D23*
X016894Y004590D03*
X015712Y004590D03*
X014531Y004590D03*
X014531Y003409D03*
X015712Y003409D03*
X011185Y004590D03*
X010004Y004590D03*
X010004Y003409D03*
X008823Y003409D03*
X008823Y004590D03*
D24*
X005555Y002445D03*
D25*
X033035Y031972D03*
X031854Y033823D03*
D26*
X030673Y031972D03*
D27*
X021618Y026662D03*
X021618Y026342D03*
X021618Y026022D03*
X020831Y026022D03*
X020831Y026342D03*
X020831Y026662D03*
X020043Y026662D03*
X020043Y026342D03*
X020043Y026022D03*
D28*
X019732Y009260D02*
X019732Y008780D01*
X020732Y008780D02*
X020732Y009260D01*
X021732Y009260D02*
X021732Y008780D01*
D29*
X019354Y010555D03*
X019354Y011224D03*
X018665Y011224D03*
X018665Y010555D03*
X017976Y010555D03*
X017976Y011224D03*
D30*
X017138Y034113D02*
X017138Y034713D01*
X016138Y034713D02*
X016138Y034113D01*
X015138Y034113D02*
X015138Y034713D01*
X014138Y034713D02*
X014138Y034113D01*
X013138Y034113D02*
X013138Y034713D01*
X012138Y034713D02*
X012138Y034113D01*
X011138Y034113D02*
X011138Y034713D01*
M02*
