G75*
G70*
%OFA0B0*%
%FSLAX24Y24*%
%IPPOS*%
%LPD*%
%AMOC8*
5,1,8,0,0,1.08239X$1,22.5*
%
%ADD10C,0.0000*%
%ADD11R,0.0433X0.0433*%
%ADD12C,0.0433*%
%ADD13R,0.0472X0.0472*%
%ADD14C,0.0472*%
%ADD15R,0.0531X0.0531*%
%ADD16C,0.0531*%
%ADD17R,0.0118X0.0630*%
%ADD18R,0.0394X0.0433*%
%ADD19R,0.0602X0.0602*%
%ADD20C,0.0602*%
%ADD21C,0.0906*%
%ADD22C,0.0984*%
%ADD23R,0.0500X0.0250*%
%ADD24C,0.0480*%
%ADD25R,0.0433X0.0394*%
%ADD26C,0.0600*%
%ADD27C,0.0098*%
%ADD28C,0.0118*%
%ADD29C,0.0297*%
%ADD30C,0.0197*%
%ADD31C,0.0157*%
%ADD32C,0.0236*%
%ADD33C,0.0787*%
%ADD34C,0.0394*%
%ADD35C,0.0376*%
D10*
X000161Y000161D02*
X000161Y033626D01*
X000163Y033703D01*
X000169Y033780D01*
X000178Y033857D01*
X000191Y033933D01*
X000208Y034009D01*
X000229Y034083D01*
X000253Y034157D01*
X000281Y034229D01*
X000312Y034299D01*
X000347Y034368D01*
X000385Y034436D01*
X000426Y034501D01*
X000471Y034564D01*
X000519Y034625D01*
X000569Y034684D01*
X000622Y034740D01*
X000678Y034793D01*
X000737Y034843D01*
X000798Y034891D01*
X000861Y034936D01*
X000926Y034977D01*
X000994Y035015D01*
X001063Y035050D01*
X001133Y035081D01*
X001205Y035109D01*
X001279Y035133D01*
X001353Y035154D01*
X001429Y035171D01*
X001505Y035184D01*
X001582Y035193D01*
X001659Y035199D01*
X001736Y035201D01*
X034413Y035201D01*
X034490Y035199D01*
X034567Y035193D01*
X034644Y035184D01*
X034720Y035171D01*
X034796Y035154D01*
X034870Y035133D01*
X034944Y035109D01*
X035016Y035081D01*
X035086Y035050D01*
X035155Y035015D01*
X035223Y034977D01*
X035288Y034936D01*
X035351Y034891D01*
X035412Y034843D01*
X035471Y034793D01*
X035527Y034740D01*
X035580Y034684D01*
X035630Y034625D01*
X035678Y034564D01*
X035723Y034501D01*
X035764Y034436D01*
X035802Y034368D01*
X035837Y034299D01*
X035868Y034229D01*
X035896Y034157D01*
X035920Y034083D01*
X035941Y034009D01*
X035958Y033933D01*
X035971Y033857D01*
X035980Y033780D01*
X035986Y033703D01*
X035988Y033626D01*
X035988Y001736D01*
X035986Y001659D01*
X035980Y001582D01*
X035971Y001505D01*
X035958Y001429D01*
X035941Y001353D01*
X035920Y001279D01*
X035896Y001205D01*
X035868Y001133D01*
X035837Y001063D01*
X035802Y000994D01*
X035764Y000926D01*
X035723Y000861D01*
X035678Y000798D01*
X035630Y000737D01*
X035580Y000678D01*
X035527Y000622D01*
X035471Y000569D01*
X035412Y000519D01*
X035351Y000471D01*
X035288Y000426D01*
X035223Y000385D01*
X035155Y000347D01*
X035086Y000312D01*
X035016Y000281D01*
X034944Y000253D01*
X034870Y000229D01*
X034796Y000208D01*
X034720Y000191D01*
X034644Y000178D01*
X034567Y000169D01*
X034490Y000163D01*
X034413Y000161D01*
X000161Y000161D01*
X005299Y002445D02*
X005301Y002476D01*
X005307Y002507D01*
X005316Y002537D01*
X005329Y002566D01*
X005346Y002593D01*
X005366Y002617D01*
X005388Y002639D01*
X005414Y002658D01*
X005441Y002674D01*
X005470Y002686D01*
X005500Y002695D01*
X005531Y002700D01*
X005563Y002701D01*
X005594Y002698D01*
X005625Y002691D01*
X005655Y002681D01*
X005683Y002667D01*
X005709Y002649D01*
X005733Y002629D01*
X005754Y002605D01*
X005773Y002580D01*
X005788Y002552D01*
X005799Y002523D01*
X005807Y002492D01*
X005811Y002461D01*
X005811Y002429D01*
X005807Y002398D01*
X005799Y002367D01*
X005788Y002338D01*
X005773Y002310D01*
X005754Y002285D01*
X005733Y002261D01*
X005709Y002241D01*
X005683Y002223D01*
X005655Y002209D01*
X005625Y002199D01*
X005594Y002192D01*
X005563Y002189D01*
X005531Y002190D01*
X005500Y002195D01*
X005470Y002204D01*
X005441Y002216D01*
X005414Y002232D01*
X005388Y002251D01*
X005366Y002273D01*
X005346Y002297D01*
X005329Y002324D01*
X005316Y002353D01*
X005307Y002383D01*
X005301Y002414D01*
X005299Y002445D01*
X007441Y003039D02*
X007443Y003067D01*
X007449Y003094D01*
X007458Y003121D01*
X007472Y003146D01*
X007488Y003168D01*
X007508Y003188D01*
X007530Y003206D01*
X007554Y003220D01*
X007580Y003230D01*
X007607Y003237D01*
X007635Y003240D01*
X007663Y003239D01*
X007691Y003234D01*
X007717Y003225D01*
X007742Y003213D01*
X007766Y003197D01*
X007787Y003179D01*
X007805Y003157D01*
X007819Y003133D01*
X007831Y003108D01*
X007839Y003081D01*
X007843Y003053D01*
X007843Y003025D01*
X007839Y002997D01*
X007831Y002970D01*
X007819Y002945D01*
X007805Y002921D01*
X007787Y002899D01*
X007766Y002881D01*
X007743Y002865D01*
X007717Y002853D01*
X007691Y002844D01*
X007663Y002839D01*
X007635Y002838D01*
X007607Y002841D01*
X007580Y002848D01*
X007554Y002858D01*
X007530Y002872D01*
X007508Y002890D01*
X007488Y002910D01*
X007472Y002932D01*
X007458Y002957D01*
X007449Y002984D01*
X007443Y003011D01*
X007441Y003039D01*
X012165Y003039D02*
X012167Y003067D01*
X012173Y003094D01*
X012182Y003121D01*
X012196Y003146D01*
X012212Y003168D01*
X012232Y003188D01*
X012254Y003206D01*
X012278Y003220D01*
X012304Y003230D01*
X012331Y003237D01*
X012359Y003240D01*
X012387Y003239D01*
X012415Y003234D01*
X012441Y003225D01*
X012466Y003213D01*
X012490Y003197D01*
X012511Y003179D01*
X012529Y003157D01*
X012543Y003133D01*
X012555Y003108D01*
X012563Y003081D01*
X012567Y003053D01*
X012567Y003025D01*
X012563Y002997D01*
X012555Y002970D01*
X012543Y002945D01*
X012529Y002921D01*
X012511Y002899D01*
X012490Y002881D01*
X012467Y002865D01*
X012441Y002853D01*
X012415Y002844D01*
X012387Y002839D01*
X012359Y002838D01*
X012331Y002841D01*
X012304Y002848D01*
X012278Y002858D01*
X012254Y002872D01*
X012232Y002890D01*
X012212Y002910D01*
X012196Y002932D01*
X012182Y002957D01*
X012173Y002984D01*
X012167Y003011D01*
X012165Y003039D01*
X013149Y003039D02*
X013151Y003067D01*
X013157Y003094D01*
X013166Y003121D01*
X013180Y003146D01*
X013196Y003168D01*
X013216Y003188D01*
X013238Y003206D01*
X013262Y003220D01*
X013288Y003230D01*
X013315Y003237D01*
X013343Y003240D01*
X013371Y003239D01*
X013399Y003234D01*
X013425Y003225D01*
X013450Y003213D01*
X013474Y003197D01*
X013495Y003179D01*
X013513Y003157D01*
X013527Y003133D01*
X013539Y003108D01*
X013547Y003081D01*
X013551Y003053D01*
X013551Y003025D01*
X013547Y002997D01*
X013539Y002970D01*
X013527Y002945D01*
X013513Y002921D01*
X013495Y002899D01*
X013474Y002881D01*
X013451Y002865D01*
X013425Y002853D01*
X013399Y002844D01*
X013371Y002839D01*
X013343Y002838D01*
X013315Y002841D01*
X013288Y002848D01*
X013262Y002858D01*
X013238Y002872D01*
X013216Y002890D01*
X013196Y002910D01*
X013180Y002932D01*
X013166Y002957D01*
X013157Y002984D01*
X013151Y003011D01*
X013149Y003039D01*
X017874Y003039D02*
X017876Y003067D01*
X017882Y003094D01*
X017891Y003121D01*
X017905Y003146D01*
X017921Y003168D01*
X017941Y003188D01*
X017963Y003206D01*
X017987Y003220D01*
X018013Y003230D01*
X018040Y003237D01*
X018068Y003240D01*
X018096Y003239D01*
X018124Y003234D01*
X018150Y003225D01*
X018175Y003213D01*
X018199Y003197D01*
X018220Y003179D01*
X018238Y003157D01*
X018252Y003133D01*
X018264Y003108D01*
X018272Y003081D01*
X018276Y003053D01*
X018276Y003025D01*
X018272Y002997D01*
X018264Y002970D01*
X018252Y002945D01*
X018238Y002921D01*
X018220Y002899D01*
X018199Y002881D01*
X018176Y002865D01*
X018150Y002853D01*
X018124Y002844D01*
X018096Y002839D01*
X018068Y002838D01*
X018040Y002841D01*
X018013Y002848D01*
X017987Y002858D01*
X017963Y002872D01*
X017941Y002890D01*
X017921Y002910D01*
X017905Y002932D01*
X017891Y002957D01*
X017882Y002984D01*
X017876Y003011D01*
X017874Y003039D01*
X013858Y012866D02*
X013860Y012907D01*
X013866Y012948D01*
X013876Y012988D01*
X013889Y013027D01*
X013906Y013064D01*
X013927Y013100D01*
X013951Y013134D01*
X013978Y013165D01*
X014007Y013193D01*
X014040Y013219D01*
X014074Y013241D01*
X014111Y013260D01*
X014149Y013275D01*
X014189Y013287D01*
X014229Y013295D01*
X014270Y013299D01*
X014312Y013299D01*
X014353Y013295D01*
X014393Y013287D01*
X014433Y013275D01*
X014471Y013260D01*
X014507Y013241D01*
X014542Y013219D01*
X014575Y013193D01*
X014604Y013165D01*
X014631Y013134D01*
X014655Y013100D01*
X014676Y013064D01*
X014693Y013027D01*
X014706Y012988D01*
X014716Y012948D01*
X014722Y012907D01*
X014724Y012866D01*
X014722Y012825D01*
X014716Y012784D01*
X014706Y012744D01*
X014693Y012705D01*
X014676Y012668D01*
X014655Y012632D01*
X014631Y012598D01*
X014604Y012567D01*
X014575Y012539D01*
X014542Y012513D01*
X014508Y012491D01*
X014471Y012472D01*
X014433Y012457D01*
X014393Y012445D01*
X014353Y012437D01*
X014312Y012433D01*
X014270Y012433D01*
X014229Y012437D01*
X014189Y012445D01*
X014149Y012457D01*
X014111Y012472D01*
X014075Y012491D01*
X014040Y012513D01*
X014007Y012539D01*
X013978Y012567D01*
X013951Y012598D01*
X013927Y012632D01*
X013906Y012668D01*
X013889Y012705D01*
X013876Y012744D01*
X013866Y012784D01*
X013860Y012825D01*
X013858Y012866D01*
X021732Y012866D02*
X021734Y012907D01*
X021740Y012948D01*
X021750Y012988D01*
X021763Y013027D01*
X021780Y013064D01*
X021801Y013100D01*
X021825Y013134D01*
X021852Y013165D01*
X021881Y013193D01*
X021914Y013219D01*
X021948Y013241D01*
X021985Y013260D01*
X022023Y013275D01*
X022063Y013287D01*
X022103Y013295D01*
X022144Y013299D01*
X022186Y013299D01*
X022227Y013295D01*
X022267Y013287D01*
X022307Y013275D01*
X022345Y013260D01*
X022381Y013241D01*
X022416Y013219D01*
X022449Y013193D01*
X022478Y013165D01*
X022505Y013134D01*
X022529Y013100D01*
X022550Y013064D01*
X022567Y013027D01*
X022580Y012988D01*
X022590Y012948D01*
X022596Y012907D01*
X022598Y012866D01*
X022596Y012825D01*
X022590Y012784D01*
X022580Y012744D01*
X022567Y012705D01*
X022550Y012668D01*
X022529Y012632D01*
X022505Y012598D01*
X022478Y012567D01*
X022449Y012539D01*
X022416Y012513D01*
X022382Y012491D01*
X022345Y012472D01*
X022307Y012457D01*
X022267Y012445D01*
X022227Y012437D01*
X022186Y012433D01*
X022144Y012433D01*
X022103Y012437D01*
X022063Y012445D01*
X022023Y012457D01*
X021985Y012472D01*
X021949Y012491D01*
X021914Y012513D01*
X021881Y012539D01*
X021852Y012567D01*
X021825Y012598D01*
X021801Y012632D01*
X021780Y012668D01*
X021763Y012705D01*
X021750Y012744D01*
X021740Y012784D01*
X021734Y012825D01*
X021732Y012866D01*
X028823Y010004D02*
X028825Y010062D01*
X028831Y010121D01*
X028841Y010178D01*
X028854Y010235D01*
X028872Y010291D01*
X028893Y010346D01*
X028918Y010398D01*
X028946Y010450D01*
X028978Y010499D01*
X029013Y010546D01*
X029051Y010590D01*
X029092Y010632D01*
X029136Y010671D01*
X029182Y010706D01*
X029231Y010739D01*
X029282Y010768D01*
X029334Y010794D01*
X029388Y010816D01*
X029444Y010835D01*
X029500Y010849D01*
X029558Y010860D01*
X029616Y010867D01*
X029674Y010870D01*
X029733Y010869D01*
X029791Y010864D01*
X029849Y010855D01*
X029906Y010842D01*
X029962Y010826D01*
X030017Y010805D01*
X030070Y010781D01*
X030122Y010754D01*
X030172Y010723D01*
X030219Y010689D01*
X030264Y010651D01*
X030307Y010611D01*
X030346Y010568D01*
X030383Y010522D01*
X030416Y010474D01*
X030446Y010424D01*
X030473Y010372D01*
X030496Y010318D01*
X030515Y010263D01*
X030531Y010207D01*
X030543Y010150D01*
X030551Y010092D01*
X030555Y010033D01*
X030555Y009975D01*
X030551Y009916D01*
X030543Y009858D01*
X030531Y009801D01*
X030515Y009745D01*
X030496Y009690D01*
X030473Y009636D01*
X030446Y009584D01*
X030416Y009534D01*
X030383Y009486D01*
X030346Y009440D01*
X030307Y009397D01*
X030264Y009357D01*
X030219Y009319D01*
X030172Y009285D01*
X030122Y009254D01*
X030070Y009227D01*
X030017Y009203D01*
X029962Y009182D01*
X029906Y009166D01*
X029849Y009153D01*
X029791Y009144D01*
X029733Y009139D01*
X029674Y009138D01*
X029616Y009141D01*
X029558Y009148D01*
X029500Y009159D01*
X029444Y009173D01*
X029388Y009192D01*
X029334Y009214D01*
X029282Y009240D01*
X029231Y009269D01*
X029182Y009302D01*
X029136Y009337D01*
X029092Y009376D01*
X029051Y009418D01*
X029013Y009462D01*
X028978Y009509D01*
X028946Y009558D01*
X028918Y009610D01*
X028893Y009662D01*
X028872Y009717D01*
X028854Y009773D01*
X028841Y009830D01*
X028831Y009887D01*
X028825Y009946D01*
X028823Y010004D01*
X021732Y028614D02*
X021734Y028655D01*
X021740Y028696D01*
X021750Y028736D01*
X021763Y028775D01*
X021780Y028812D01*
X021801Y028848D01*
X021825Y028882D01*
X021852Y028913D01*
X021881Y028941D01*
X021914Y028967D01*
X021948Y028989D01*
X021985Y029008D01*
X022023Y029023D01*
X022063Y029035D01*
X022103Y029043D01*
X022144Y029047D01*
X022186Y029047D01*
X022227Y029043D01*
X022267Y029035D01*
X022307Y029023D01*
X022345Y029008D01*
X022381Y028989D01*
X022416Y028967D01*
X022449Y028941D01*
X022478Y028913D01*
X022505Y028882D01*
X022529Y028848D01*
X022550Y028812D01*
X022567Y028775D01*
X022580Y028736D01*
X022590Y028696D01*
X022596Y028655D01*
X022598Y028614D01*
X022596Y028573D01*
X022590Y028532D01*
X022580Y028492D01*
X022567Y028453D01*
X022550Y028416D01*
X022529Y028380D01*
X022505Y028346D01*
X022478Y028315D01*
X022449Y028287D01*
X022416Y028261D01*
X022382Y028239D01*
X022345Y028220D01*
X022307Y028205D01*
X022267Y028193D01*
X022227Y028185D01*
X022186Y028181D01*
X022144Y028181D01*
X022103Y028185D01*
X022063Y028193D01*
X022023Y028205D01*
X021985Y028220D01*
X021949Y028239D01*
X021914Y028261D01*
X021881Y028287D01*
X021852Y028315D01*
X021825Y028346D01*
X021801Y028380D01*
X021780Y028416D01*
X021763Y028453D01*
X021750Y028492D01*
X021740Y028532D01*
X021734Y028573D01*
X021732Y028614D01*
X022917Y031657D02*
X022919Y031715D01*
X022925Y031774D01*
X022935Y031831D01*
X022948Y031888D01*
X022966Y031944D01*
X022987Y031999D01*
X023012Y032051D01*
X023040Y032103D01*
X023072Y032152D01*
X023107Y032199D01*
X023145Y032243D01*
X023186Y032285D01*
X023230Y032324D01*
X023276Y032359D01*
X023325Y032392D01*
X023376Y032421D01*
X023428Y032447D01*
X023482Y032469D01*
X023538Y032488D01*
X023594Y032502D01*
X023652Y032513D01*
X023710Y032520D01*
X023768Y032523D01*
X023827Y032522D01*
X023885Y032517D01*
X023943Y032508D01*
X024000Y032495D01*
X024056Y032479D01*
X024111Y032458D01*
X024164Y032434D01*
X024216Y032407D01*
X024266Y032376D01*
X024313Y032342D01*
X024358Y032304D01*
X024401Y032264D01*
X024440Y032221D01*
X024477Y032175D01*
X024510Y032127D01*
X024540Y032077D01*
X024567Y032025D01*
X024590Y031971D01*
X024609Y031916D01*
X024625Y031860D01*
X024637Y031803D01*
X024645Y031745D01*
X024649Y031686D01*
X024649Y031628D01*
X024645Y031569D01*
X024637Y031511D01*
X024625Y031454D01*
X024609Y031398D01*
X024590Y031343D01*
X024567Y031289D01*
X024540Y031237D01*
X024510Y031187D01*
X024477Y031139D01*
X024440Y031093D01*
X024401Y031050D01*
X024358Y031010D01*
X024313Y030972D01*
X024266Y030938D01*
X024216Y030907D01*
X024164Y030880D01*
X024111Y030856D01*
X024056Y030835D01*
X024000Y030819D01*
X023943Y030806D01*
X023885Y030797D01*
X023827Y030792D01*
X023768Y030791D01*
X023710Y030794D01*
X023652Y030801D01*
X023594Y030812D01*
X023538Y030826D01*
X023482Y030845D01*
X023428Y030867D01*
X023376Y030893D01*
X023325Y030922D01*
X023276Y030955D01*
X023230Y030990D01*
X023186Y031029D01*
X023145Y031071D01*
X023107Y031115D01*
X023072Y031162D01*
X023040Y031211D01*
X023012Y031263D01*
X022987Y031315D01*
X022966Y031370D01*
X022948Y031426D01*
X022935Y031483D01*
X022925Y031540D01*
X022919Y031599D01*
X022917Y031657D01*
X030437Y031264D02*
X030437Y032720D01*
X030909Y032720D01*
X030909Y031264D01*
X030437Y031264D01*
X032799Y031382D02*
X032799Y032563D01*
X033271Y032563D01*
X033271Y031382D01*
X032799Y031382D01*
X032445Y033586D02*
X031264Y033586D01*
X031264Y034059D01*
X032445Y034059D01*
X032445Y033586D01*
X013858Y028614D02*
X013860Y028655D01*
X013866Y028696D01*
X013876Y028736D01*
X013889Y028775D01*
X013906Y028812D01*
X013927Y028848D01*
X013951Y028882D01*
X013978Y028913D01*
X014007Y028941D01*
X014040Y028967D01*
X014074Y028989D01*
X014111Y029008D01*
X014149Y029023D01*
X014189Y029035D01*
X014229Y029043D01*
X014270Y029047D01*
X014312Y029047D01*
X014353Y029043D01*
X014393Y029035D01*
X014433Y029023D01*
X014471Y029008D01*
X014507Y028989D01*
X014542Y028967D01*
X014575Y028941D01*
X014604Y028913D01*
X014631Y028882D01*
X014655Y028848D01*
X014676Y028812D01*
X014693Y028775D01*
X014706Y028736D01*
X014716Y028696D01*
X014722Y028655D01*
X014724Y028614D01*
X014722Y028573D01*
X014716Y028532D01*
X014706Y028492D01*
X014693Y028453D01*
X014676Y028416D01*
X014655Y028380D01*
X014631Y028346D01*
X014604Y028315D01*
X014575Y028287D01*
X014542Y028261D01*
X014508Y028239D01*
X014471Y028220D01*
X014433Y028205D01*
X014393Y028193D01*
X014353Y028185D01*
X014312Y028181D01*
X014270Y028181D01*
X014229Y028185D01*
X014189Y028193D01*
X014149Y028205D01*
X014111Y028220D01*
X014075Y028239D01*
X014040Y028261D01*
X014007Y028287D01*
X013978Y028315D01*
X013951Y028346D01*
X013927Y028380D01*
X013906Y028416D01*
X013889Y028453D01*
X013876Y028492D01*
X013866Y028532D01*
X013860Y028573D01*
X013858Y028614D01*
X003232Y031657D02*
X003234Y031715D01*
X003240Y031774D01*
X003250Y031831D01*
X003263Y031888D01*
X003281Y031944D01*
X003302Y031999D01*
X003327Y032051D01*
X003355Y032103D01*
X003387Y032152D01*
X003422Y032199D01*
X003460Y032243D01*
X003501Y032285D01*
X003545Y032324D01*
X003591Y032359D01*
X003640Y032392D01*
X003691Y032421D01*
X003743Y032447D01*
X003797Y032469D01*
X003853Y032488D01*
X003909Y032502D01*
X003967Y032513D01*
X004025Y032520D01*
X004083Y032523D01*
X004142Y032522D01*
X004200Y032517D01*
X004258Y032508D01*
X004315Y032495D01*
X004371Y032479D01*
X004426Y032458D01*
X004479Y032434D01*
X004531Y032407D01*
X004581Y032376D01*
X004628Y032342D01*
X004673Y032304D01*
X004716Y032264D01*
X004755Y032221D01*
X004792Y032175D01*
X004825Y032127D01*
X004855Y032077D01*
X004882Y032025D01*
X004905Y031971D01*
X004924Y031916D01*
X004940Y031860D01*
X004952Y031803D01*
X004960Y031745D01*
X004964Y031686D01*
X004964Y031628D01*
X004960Y031569D01*
X004952Y031511D01*
X004940Y031454D01*
X004924Y031398D01*
X004905Y031343D01*
X004882Y031289D01*
X004855Y031237D01*
X004825Y031187D01*
X004792Y031139D01*
X004755Y031093D01*
X004716Y031050D01*
X004673Y031010D01*
X004628Y030972D01*
X004581Y030938D01*
X004531Y030907D01*
X004479Y030880D01*
X004426Y030856D01*
X004371Y030835D01*
X004315Y030819D01*
X004258Y030806D01*
X004200Y030797D01*
X004142Y030792D01*
X004083Y030791D01*
X004025Y030794D01*
X003967Y030801D01*
X003909Y030812D01*
X003853Y030826D01*
X003797Y030845D01*
X003743Y030867D01*
X003691Y030893D01*
X003640Y030922D01*
X003591Y030955D01*
X003545Y030990D01*
X003501Y031029D01*
X003460Y031071D01*
X003422Y031115D01*
X003387Y031162D01*
X003355Y031211D01*
X003327Y031263D01*
X003302Y031315D01*
X003281Y031370D01*
X003263Y031426D01*
X003250Y031483D01*
X003240Y031540D01*
X003234Y031599D01*
X003232Y031657D01*
X003232Y010004D02*
X003234Y010062D01*
X003240Y010121D01*
X003250Y010178D01*
X003263Y010235D01*
X003281Y010291D01*
X003302Y010346D01*
X003327Y010398D01*
X003355Y010450D01*
X003387Y010499D01*
X003422Y010546D01*
X003460Y010590D01*
X003501Y010632D01*
X003545Y010671D01*
X003591Y010706D01*
X003640Y010739D01*
X003691Y010768D01*
X003743Y010794D01*
X003797Y010816D01*
X003853Y010835D01*
X003909Y010849D01*
X003967Y010860D01*
X004025Y010867D01*
X004083Y010870D01*
X004142Y010869D01*
X004200Y010864D01*
X004258Y010855D01*
X004315Y010842D01*
X004371Y010826D01*
X004426Y010805D01*
X004479Y010781D01*
X004531Y010754D01*
X004581Y010723D01*
X004628Y010689D01*
X004673Y010651D01*
X004716Y010611D01*
X004755Y010568D01*
X004792Y010522D01*
X004825Y010474D01*
X004855Y010424D01*
X004882Y010372D01*
X004905Y010318D01*
X004924Y010263D01*
X004940Y010207D01*
X004952Y010150D01*
X004960Y010092D01*
X004964Y010033D01*
X004964Y009975D01*
X004960Y009916D01*
X004952Y009858D01*
X004940Y009801D01*
X004924Y009745D01*
X004905Y009690D01*
X004882Y009636D01*
X004855Y009584D01*
X004825Y009534D01*
X004792Y009486D01*
X004755Y009440D01*
X004716Y009397D01*
X004673Y009357D01*
X004628Y009319D01*
X004581Y009285D01*
X004531Y009254D01*
X004479Y009227D01*
X004426Y009203D01*
X004371Y009182D01*
X004315Y009166D01*
X004258Y009153D01*
X004200Y009144D01*
X004142Y009139D01*
X004083Y009138D01*
X004025Y009141D01*
X003967Y009148D01*
X003909Y009159D01*
X003853Y009173D01*
X003797Y009192D01*
X003743Y009214D01*
X003691Y009240D01*
X003640Y009269D01*
X003591Y009302D01*
X003545Y009337D01*
X003501Y009376D01*
X003460Y009418D01*
X003422Y009462D01*
X003387Y009509D01*
X003355Y009558D01*
X003327Y009610D01*
X003302Y009662D01*
X003281Y009717D01*
X003263Y009773D01*
X003250Y009830D01*
X003240Y009887D01*
X003234Y009946D01*
X003232Y010004D01*
D11*
X015978Y012866D03*
X015978Y028614D03*
D12*
X016478Y028614D03*
X016978Y028614D03*
X017478Y028614D03*
X017978Y028614D03*
X018478Y028614D03*
X018978Y028614D03*
X019478Y028614D03*
X019978Y028614D03*
X020478Y028614D03*
X020478Y012866D03*
X019978Y012866D03*
X019478Y012866D03*
X018978Y012866D03*
X018478Y012866D03*
X017978Y012866D03*
X017478Y012866D03*
X016978Y012866D03*
X016478Y012866D03*
D13*
X010748Y014047D03*
X008189Y024677D03*
X004768Y003114D03*
D14*
X003980Y003114D03*
X003193Y003114D03*
X002405Y003114D03*
X001618Y003114D03*
X001618Y005083D03*
X002405Y005083D03*
X003193Y005083D03*
X003980Y005083D03*
X004768Y005083D03*
X011732Y014047D03*
X011732Y014834D03*
X011732Y015622D03*
X011732Y016409D03*
X011732Y017197D03*
X011732Y017984D03*
X011732Y018771D03*
X011732Y019559D03*
X011732Y020346D03*
X011732Y021134D03*
X010748Y021134D03*
X010748Y020346D03*
X010748Y019559D03*
X010748Y018771D03*
X010748Y017984D03*
X010748Y017197D03*
X010748Y016409D03*
X010748Y015622D03*
X010748Y014834D03*
X008976Y024677D03*
X008976Y025464D03*
X008189Y025464D03*
X008189Y026252D03*
X008976Y026252D03*
D15*
X004098Y027031D03*
X001638Y021126D03*
X001539Y015220D03*
X020240Y004492D03*
X024374Y004394D03*
X030575Y004394D03*
X031854Y015220D03*
X026146Y015220D03*
X026146Y021126D03*
X031854Y021126D03*
X031854Y027031D03*
X026146Y027031D03*
D16*
X027130Y027031D03*
X028114Y027031D03*
X032838Y027031D03*
X033823Y027031D03*
X033823Y021126D03*
X032838Y021126D03*
X029098Y021126D03*
X028114Y021126D03*
X027130Y021126D03*
X027130Y015220D03*
X028114Y015220D03*
X029098Y015220D03*
X032838Y015220D03*
X033823Y015220D03*
X034807Y015220D03*
X033527Y004394D03*
X032543Y004394D03*
X031559Y004394D03*
X027327Y004394D03*
X026342Y004394D03*
X025358Y004394D03*
X021224Y004492D03*
X003508Y015220D03*
X002523Y015220D03*
X002622Y021126D03*
X003606Y021126D03*
X004098Y026047D03*
D17*
X018833Y021736D03*
X019088Y021736D03*
X019344Y021736D03*
X019600Y021736D03*
X019856Y021736D03*
X020112Y021736D03*
X020368Y021736D03*
X020624Y021736D03*
X020880Y021736D03*
X021136Y021736D03*
X021392Y021736D03*
X021647Y021736D03*
X021647Y019531D03*
X021392Y019531D03*
X021136Y019531D03*
X020880Y019531D03*
X020624Y019531D03*
X020368Y019531D03*
X020112Y019531D03*
X019856Y019531D03*
X019600Y019531D03*
X019344Y019531D03*
X019088Y019531D03*
X018833Y019531D03*
D18*
X018075Y021086D03*
X018075Y021756D03*
X016244Y021815D03*
X015575Y021815D03*
X015575Y020240D03*
X016244Y020240D03*
D19*
X016894Y003409D03*
X011185Y003409D03*
D20*
X010004Y003409D03*
X008823Y003409D03*
X008823Y004590D03*
X010004Y004590D03*
X011185Y004590D03*
X014531Y004590D03*
X014531Y003409D03*
X015712Y003409D03*
X015712Y004590D03*
X016894Y004590D03*
D21*
X033035Y031520D02*
X033035Y032425D01*
X032307Y033823D02*
X031401Y033823D01*
D22*
X030673Y032464D02*
X030673Y031480D01*
D23*
X021618Y026662D03*
X021618Y026342D03*
X021618Y026022D03*
X020831Y026022D03*
X020831Y026342D03*
X020831Y026662D03*
X020043Y026662D03*
X020043Y026342D03*
X020043Y026022D03*
D24*
X019732Y009260D02*
X019732Y008780D01*
X020732Y008780D02*
X020732Y009260D01*
X021732Y009260D02*
X021732Y008780D01*
D25*
X019354Y010555D03*
X019354Y011224D03*
X018665Y011224D03*
X018665Y010555D03*
X017976Y010555D03*
X017976Y011224D03*
D26*
X017138Y034113D02*
X017138Y034713D01*
X016138Y034713D02*
X016138Y034113D01*
X015138Y034113D02*
X015138Y034713D01*
X014138Y034713D02*
X014138Y034113D01*
X013138Y034113D02*
X013138Y034713D01*
X012138Y034713D02*
X012138Y034113D01*
X011138Y034113D02*
X011138Y034713D01*
D27*
X016978Y028614D02*
X016978Y027805D01*
X016500Y027327D01*
X012169Y027327D01*
X010594Y025752D01*
X010594Y024571D01*
X010004Y023980D01*
X005181Y023980D01*
X004689Y023193D02*
X002622Y021126D01*
X001638Y021126D02*
X004098Y023586D01*
X020043Y023586D01*
X020624Y023006D01*
X020624Y021736D01*
X020880Y021736D02*
X020880Y024226D01*
X021224Y024571D01*
X021421Y023980D02*
X021136Y023695D01*
X021136Y021736D01*
X021392Y021736D02*
X021392Y023163D01*
X021618Y023390D01*
X021815Y022799D02*
X021647Y022632D01*
X021647Y021736D01*
X021913Y021126D02*
X022701Y021913D01*
X022701Y024374D01*
X022110Y024964D01*
X020240Y024964D01*
X019354Y025850D01*
X019354Y026146D01*
X019551Y026342D01*
X020043Y026342D01*
X020043Y026022D02*
X020831Y026022D01*
X020831Y025358D01*
X021421Y025653D02*
X022012Y025653D01*
X023094Y024571D01*
X023094Y021913D01*
X022012Y020831D01*
X019846Y020831D01*
X019088Y020073D01*
X019088Y019531D01*
X018833Y019531D02*
X018833Y018439D01*
X018764Y018370D01*
X017583Y018370D02*
X011149Y018370D01*
X010748Y018771D01*
X011685Y017984D02*
X011732Y017984D01*
X011685Y017984D02*
X011283Y017583D01*
X010496Y017583D01*
X010201Y017287D01*
X010201Y010004D01*
X006657Y006460D01*
X003783Y006460D01*
X002405Y005083D01*
X001618Y005083D02*
X003390Y006854D01*
X006460Y006854D01*
X009807Y010201D01*
X009807Y019453D01*
X010299Y019945D01*
X011283Y019945D01*
X011685Y020346D01*
X011732Y020346D01*
X014334Y022405D02*
X007838Y022405D01*
X007248Y022799D02*
X006657Y022209D01*
X007248Y022799D02*
X019649Y022799D01*
X020112Y022336D01*
X020112Y021736D01*
X020368Y021736D02*
X020368Y022671D01*
X019846Y023193D01*
X004689Y023193D01*
X011283Y016697D02*
X011732Y017146D01*
X011732Y017197D01*
X011283Y016697D02*
X011283Y010496D01*
X006854Y006067D01*
X004177Y006067D01*
X003193Y005083D01*
X003980Y005083D02*
X004571Y005673D01*
X007051Y005673D01*
X011732Y010354D01*
X011732Y014047D01*
X012366Y014334D02*
X011866Y014834D01*
X011732Y014834D01*
X012366Y014334D02*
X012366Y010397D01*
X007051Y005083D01*
X004768Y005083D01*
X015023Y011677D02*
X015220Y011480D01*
X015023Y011677D02*
X015023Y013449D01*
X015909Y014334D01*
X015909Y014630D01*
X016978Y012957D02*
X016978Y012866D01*
X017976Y012864D02*
X017976Y011224D01*
X017976Y011185D01*
X018016Y011224D01*
X018665Y011224D01*
X018764Y011224D01*
X019354Y011224D01*
X019354Y010555D02*
X018665Y010555D01*
X017976Y010555D01*
X019354Y010555D02*
X019984Y010555D01*
X020732Y009807D01*
X020732Y009020D01*
X020831Y011382D02*
X022504Y011382D01*
X028016Y005870D01*
X030181Y005870D01*
X030575Y005476D01*
X030575Y004394D01*
X031559Y004394D02*
X031559Y005476D01*
X030771Y006264D01*
X028114Y006264D01*
X022701Y011677D01*
X021520Y011677D01*
X020929Y012268D01*
X020929Y013153D01*
X020338Y013744D01*
X020043Y013744D01*
X020142Y014334D02*
X021224Y013252D01*
X021224Y012366D01*
X021618Y011972D01*
X022897Y011972D01*
X028212Y006657D01*
X031362Y006657D01*
X032543Y005476D01*
X032543Y004394D01*
X033527Y004394D02*
X033527Y005476D01*
X031953Y007051D01*
X028311Y007051D01*
X023390Y011972D01*
X023390Y012858D01*
X022307Y013941D01*
X021027Y013941D01*
X020043Y014925D01*
X018567Y014433D02*
X018370Y014630D01*
X018370Y019945D01*
X019344Y020919D01*
X019344Y021736D01*
X019344Y022120D01*
X019059Y022405D01*
X016834Y022405D01*
X016244Y021815D01*
X016244Y020240D02*
X018075Y020240D01*
X018075Y014138D01*
X018468Y013744D01*
X018468Y012876D01*
X018478Y012866D01*
X017978Y012866D02*
X017976Y012864D01*
X020732Y011480D02*
X020831Y011382D01*
X024374Y014334D02*
X026342Y014334D01*
X027130Y015122D01*
X024964Y013153D02*
X020112Y018006D01*
X020112Y019531D01*
X019856Y019531D02*
X019856Y017671D01*
X024964Y012563D01*
X031854Y012563D01*
X032838Y013547D01*
X032838Y015220D01*
X031657Y017878D02*
X032838Y019059D01*
X032838Y021126D01*
X031854Y021126D02*
X031854Y019059D01*
X031067Y018271D01*
X021421Y018271D01*
X020880Y018813D01*
X020880Y019531D01*
X021136Y019531D02*
X021136Y018951D01*
X021421Y018665D01*
X025358Y018665D01*
X026539Y019059D02*
X027130Y019649D01*
X027130Y021126D01*
X026539Y019059D02*
X021421Y019059D01*
X021392Y019088D01*
X021392Y019531D01*
X020624Y019531D02*
X020624Y018675D01*
X021421Y017878D01*
X031657Y017878D01*
X025161Y012071D02*
X024866Y012071D01*
X019600Y017336D01*
X019600Y019531D01*
X019344Y019531D02*
X019344Y019935D01*
X019945Y020535D01*
X022110Y020535D01*
X023488Y021913D01*
X023488Y024768D01*
X021913Y026342D01*
X021618Y026342D01*
X021618Y026022D02*
X020831Y026022D01*
X020831Y026342D02*
X021224Y026342D01*
X021224Y027228D01*
X018862Y024374D02*
X017878Y024374D01*
X015614Y026638D01*
X015122Y025653D02*
X016106Y024669D01*
X016795Y024669D01*
X017189Y024275D01*
X016697Y023980D02*
X015811Y023980D01*
X014138Y025653D01*
X019088Y021736D02*
X019088Y021254D01*
X018075Y020240D01*
X019600Y021273D02*
X019600Y021736D01*
X019600Y021273D02*
X019748Y021126D01*
X021913Y021126D01*
X020368Y019531D02*
X020368Y018340D01*
X024374Y014334D01*
D28*
X024253Y014160D02*
X024254Y014160D01*
X024288Y014126D02*
X026256Y014126D01*
X026429Y014126D01*
X027098Y014796D01*
X027214Y014796D01*
X027370Y014860D01*
X027490Y014980D01*
X027555Y015136D01*
X027555Y015305D01*
X027490Y015461D01*
X027370Y015580D01*
X027214Y015645D01*
X027045Y015645D01*
X026889Y015580D01*
X026770Y015461D01*
X026705Y015305D01*
X026705Y015136D01*
X026747Y015034D01*
X026256Y014543D01*
X024460Y014543D01*
X020576Y018427D01*
X020576Y018428D01*
X021213Y017791D01*
X021335Y017670D01*
X031571Y017670D01*
X031744Y017670D01*
X032925Y018851D01*
X033047Y018973D01*
X033047Y020752D01*
X033079Y020766D01*
X033199Y020885D01*
X033263Y021041D01*
X033263Y021210D01*
X033199Y021366D01*
X033079Y021486D01*
X032923Y021551D01*
X032754Y021551D01*
X032598Y021486D01*
X032478Y021366D01*
X032414Y021210D01*
X032414Y021041D01*
X032478Y020885D01*
X032598Y020766D01*
X032630Y020752D01*
X032630Y019145D01*
X031571Y018086D01*
X031176Y018086D01*
X031940Y018851D01*
X032062Y018973D01*
X032062Y020701D01*
X032186Y020701D01*
X032279Y020794D01*
X032279Y021457D01*
X032186Y021551D01*
X031523Y021551D01*
X031429Y021457D01*
X031429Y020794D01*
X031523Y020701D01*
X031646Y020701D01*
X031646Y019145D01*
X030980Y018480D01*
X025608Y018480D01*
X025619Y018491D01*
X025666Y018604D01*
X025666Y018726D01*
X025619Y018840D01*
X025608Y018851D01*
X026453Y018851D01*
X026625Y018851D01*
X027216Y019441D01*
X027338Y019563D01*
X027338Y020752D01*
X027370Y020766D01*
X027490Y020885D01*
X027555Y021041D01*
X027555Y021210D01*
X027490Y021366D01*
X027370Y021486D01*
X027214Y021551D01*
X027045Y021551D01*
X026889Y021486D01*
X026770Y021366D01*
X026705Y021210D01*
X026705Y021041D01*
X026770Y020885D01*
X026889Y020766D01*
X026921Y020752D01*
X026921Y019736D01*
X026453Y019267D01*
X021866Y019267D01*
X021866Y019313D01*
X022000Y019313D01*
X022181Y019313D01*
X022406Y019539D01*
X022467Y019539D01*
X022580Y019585D01*
X022666Y019672D01*
X022713Y019785D01*
X022713Y019908D01*
X022666Y020021D01*
X022580Y020107D01*
X022467Y020154D01*
X022344Y020154D01*
X022231Y020107D01*
X022144Y020021D01*
X022098Y019908D01*
X022098Y019847D01*
X022000Y019749D01*
X021866Y019749D01*
X021866Y019912D01*
X021772Y020005D01*
X021523Y020005D01*
X021519Y020002D01*
X021516Y020005D01*
X021267Y020005D01*
X021264Y020002D01*
X021261Y020005D01*
X021011Y020005D01*
X021008Y020002D01*
X021005Y020005D01*
X020755Y020005D01*
X020752Y020002D01*
X020749Y020005D01*
X020499Y020005D01*
X020496Y020002D01*
X020493Y020005D01*
X020243Y020005D01*
X020240Y020002D01*
X020237Y020005D01*
X019987Y020005D01*
X019984Y020002D01*
X019981Y020005D01*
X019731Y020005D01*
X019728Y020002D01*
X019725Y020005D01*
X019709Y020005D01*
X020031Y020327D01*
X022024Y020327D01*
X022196Y020327D01*
X023574Y021705D01*
X023696Y021827D01*
X023696Y024681D01*
X023696Y024854D01*
X022121Y026429D01*
X022027Y026523D01*
X022027Y026659D01*
X021622Y026659D01*
X021622Y026666D01*
X022027Y026666D01*
X022027Y026808D01*
X022016Y026849D01*
X021995Y026885D01*
X021966Y026915D01*
X021929Y026936D01*
X021889Y026946D01*
X021621Y026946D01*
X021621Y026666D01*
X021614Y026666D01*
X021614Y026946D01*
X021432Y026946D01*
X021432Y027001D01*
X021485Y027054D01*
X021532Y027167D01*
X021532Y027289D01*
X021485Y027403D01*
X021399Y027489D01*
X021285Y027536D01*
X021163Y027536D01*
X021050Y027489D01*
X020963Y027403D01*
X020916Y027289D01*
X020916Y027167D01*
X020963Y027054D01*
X021016Y027001D01*
X021016Y026946D01*
X020834Y026946D01*
X020834Y026666D01*
X020827Y026666D01*
X020827Y026946D01*
X020560Y026946D01*
X020519Y026936D01*
X020483Y026915D01*
X020453Y026885D01*
X020437Y026856D01*
X020420Y026885D01*
X020391Y026915D01*
X020355Y026936D01*
X020314Y026946D01*
X020047Y026946D01*
X020047Y026666D01*
X020452Y026666D01*
X020827Y026666D01*
X020827Y026659D01*
X020452Y026659D01*
X020047Y026659D01*
X020047Y026666D01*
X020040Y026666D01*
X020040Y026946D01*
X019772Y026946D01*
X019732Y026936D01*
X019695Y026915D01*
X019666Y026885D01*
X019645Y026849D01*
X019634Y026808D01*
X019634Y026666D01*
X020039Y026666D01*
X020039Y026659D01*
X019634Y026659D01*
X019634Y026551D01*
X019465Y026551D01*
X019343Y026429D01*
X019146Y026232D01*
X019146Y026059D01*
X019146Y025764D01*
X019268Y025642D01*
X020154Y024756D01*
X020326Y024756D01*
X020974Y024756D01*
X020963Y024745D01*
X020916Y024632D01*
X020916Y024557D01*
X020671Y024312D01*
X020671Y024140D01*
X020671Y023253D01*
X020251Y023673D01*
X020129Y023795D01*
X016946Y023795D01*
X016958Y023806D01*
X017004Y023919D01*
X017004Y024025D01*
X017014Y024014D01*
X017128Y023968D01*
X017250Y023968D01*
X017363Y024014D01*
X017450Y024101D01*
X017497Y024214D01*
X017497Y024337D01*
X017450Y024450D01*
X017363Y024536D01*
X017250Y024583D01*
X017176Y024583D01*
X016881Y024877D01*
X016709Y024877D01*
X016192Y024877D01*
X015430Y025640D01*
X015430Y025715D01*
X015383Y025828D01*
X015296Y025914D01*
X015183Y025961D01*
X015061Y025961D01*
X014948Y025914D01*
X014861Y025828D01*
X014814Y025715D01*
X014814Y025592D01*
X014861Y025479D01*
X014948Y025392D01*
X015061Y025346D01*
X015135Y025346D01*
X016020Y024461D01*
X016192Y024461D01*
X016709Y024461D01*
X016881Y024289D01*
X016881Y024231D01*
X016871Y024241D01*
X016758Y024288D01*
X016635Y024288D01*
X016522Y024241D01*
X016470Y024188D01*
X015897Y024188D01*
X014445Y025640D01*
X014445Y025715D01*
X014399Y025828D01*
X014312Y025914D01*
X014199Y025961D01*
X014076Y025961D01*
X013963Y025914D01*
X013877Y025828D01*
X013830Y025715D01*
X013830Y025592D01*
X013877Y025479D01*
X013963Y025392D01*
X014076Y025346D01*
X014151Y025346D01*
X015603Y023894D01*
X015702Y023795D01*
X010113Y023795D01*
X010212Y023894D01*
X010803Y024484D01*
X010803Y024657D01*
X010803Y025666D01*
X012255Y027118D01*
X016586Y027118D01*
X016708Y027240D01*
X017186Y027719D01*
X017186Y027891D01*
X017186Y028294D01*
X017191Y028296D01*
X017228Y028333D01*
X017265Y028296D01*
X017403Y028238D01*
X017553Y028238D01*
X017691Y028296D01*
X017728Y028333D01*
X017765Y028296D01*
X017903Y028238D01*
X018053Y028238D01*
X018191Y028296D01*
X018228Y028333D01*
X018265Y028296D01*
X018403Y028238D01*
X018553Y028238D01*
X018691Y028296D01*
X018728Y028333D01*
X018765Y028296D01*
X018903Y028238D01*
X019053Y028238D01*
X019191Y028296D01*
X019228Y028333D01*
X019265Y028296D01*
X019403Y028238D01*
X019553Y028238D01*
X019691Y028296D01*
X019728Y028333D01*
X019765Y028296D01*
X019903Y028238D01*
X020053Y028238D01*
X020191Y028296D01*
X020228Y028333D01*
X020265Y028296D01*
X020403Y028238D01*
X020553Y028238D01*
X020691Y028296D01*
X020797Y028401D01*
X020854Y028539D01*
X020854Y028689D01*
X020797Y028827D01*
X020691Y028932D01*
X020553Y028990D01*
X020403Y028990D01*
X020265Y028932D01*
X020228Y028895D01*
X020191Y028932D01*
X020053Y028990D01*
X019903Y028990D01*
X019765Y028932D01*
X019728Y028895D01*
X019691Y028932D01*
X019553Y028990D01*
X019403Y028990D01*
X019265Y028932D01*
X019228Y028895D01*
X019191Y028932D01*
X019053Y028990D01*
X018903Y028990D01*
X018765Y028932D01*
X018728Y028895D01*
X018691Y028932D01*
X018553Y028990D01*
X018403Y028990D01*
X018265Y028932D01*
X018228Y028895D01*
X018191Y028932D01*
X018053Y028990D01*
X017903Y028990D01*
X017765Y028932D01*
X017728Y028895D01*
X017691Y028932D01*
X017553Y028990D01*
X017403Y028990D01*
X017265Y028932D01*
X017228Y028895D01*
X017191Y028932D01*
X017053Y028990D01*
X016903Y028990D01*
X016765Y028932D01*
X016728Y028895D01*
X016691Y028932D01*
X016553Y028990D01*
X016403Y028990D01*
X016302Y028948D01*
X016261Y028990D01*
X015696Y028990D01*
X015603Y028896D01*
X015603Y028332D01*
X015696Y028238D01*
X016261Y028238D01*
X016302Y028280D01*
X016403Y028238D01*
X016553Y028238D01*
X016691Y028296D01*
X016728Y028333D01*
X016765Y028296D01*
X016770Y028294D01*
X016770Y027891D01*
X016414Y027535D01*
X012255Y027535D01*
X012083Y027535D01*
X010508Y025960D01*
X010386Y025838D01*
X010386Y024657D01*
X010116Y024387D01*
X010163Y024500D01*
X010163Y027758D01*
X011689Y027758D01*
X011892Y027842D01*
X012047Y027998D01*
X013973Y029923D01*
X017079Y029923D01*
X017299Y029923D01*
X017502Y030008D01*
X021201Y033706D01*
X021285Y033910D01*
X021285Y034129D01*
X021201Y034333D01*
X021045Y034488D01*
X020842Y034572D01*
X020622Y034572D01*
X020419Y034488D01*
X016960Y031029D01*
X013854Y031029D01*
X013634Y031029D01*
X013431Y030945D01*
X011350Y028864D01*
X009697Y028864D01*
X005488Y028864D01*
X005268Y028864D01*
X005065Y028779D01*
X003630Y027344D01*
X003546Y027141D01*
X003546Y026921D01*
X003630Y026718D01*
X003785Y026563D01*
X003988Y026479D01*
X004208Y026479D01*
X004374Y026547D01*
X004971Y025950D01*
X005102Y025896D01*
X005244Y025896D01*
X008015Y025896D01*
X008106Y025858D01*
X007965Y025799D01*
X007854Y025688D01*
X007794Y025543D01*
X007794Y025386D01*
X007854Y025240D01*
X007965Y025129D01*
X008103Y025072D01*
X007887Y025072D01*
X007794Y024979D01*
X007794Y024375D01*
X007887Y024282D01*
X008491Y024282D01*
X008584Y024375D01*
X008584Y024591D01*
X008641Y024453D01*
X008752Y024342D01*
X008898Y024282D01*
X009055Y024282D01*
X009200Y024342D01*
X009311Y024453D01*
X009371Y024598D01*
X009371Y024756D01*
X009311Y024901D01*
X009200Y025012D01*
X009059Y025071D01*
X009200Y025129D01*
X009311Y025240D01*
X009371Y025386D01*
X009371Y025543D01*
X009311Y025688D01*
X009200Y025799D01*
X009059Y025858D01*
X009200Y025917D01*
X009311Y026028D01*
X009371Y026173D01*
X009371Y026330D01*
X009311Y026476D01*
X009200Y026587D01*
X009055Y026647D01*
X008898Y026647D01*
X008752Y026587D01*
X008641Y026476D01*
X008582Y026334D01*
X008524Y026476D01*
X008413Y026587D01*
X008267Y026647D01*
X008110Y026647D01*
X008015Y026608D01*
X005320Y026608D01*
X004888Y027040D01*
X005607Y027758D01*
X009451Y027758D01*
X009451Y024500D01*
X009505Y024369D01*
X009605Y024269D01*
X009736Y024215D01*
X009878Y024215D01*
X009991Y024262D01*
X009917Y024188D01*
X005408Y024188D01*
X005355Y024241D01*
X005242Y024288D01*
X005120Y024288D01*
X005007Y024241D01*
X004920Y024154D01*
X004873Y024041D01*
X004873Y023919D01*
X004920Y023806D01*
X004931Y023795D01*
X004185Y023795D01*
X004012Y023795D01*
X001768Y021551D01*
X001306Y021551D01*
X001213Y021457D01*
X001213Y020794D01*
X001306Y020701D01*
X001969Y020701D01*
X002062Y020794D01*
X002062Y021256D01*
X004185Y023378D01*
X004580Y023378D01*
X002739Y021537D01*
X002706Y021551D01*
X002537Y021551D01*
X002381Y021486D01*
X002262Y021366D01*
X002197Y021210D01*
X002197Y021041D01*
X002262Y020885D01*
X002381Y020766D01*
X002537Y020701D01*
X002706Y020701D01*
X002862Y020766D01*
X002982Y020885D01*
X003047Y021041D01*
X003047Y021210D01*
X003033Y021243D01*
X004775Y022984D01*
X007139Y022984D01*
X006671Y022516D01*
X006596Y022516D01*
X006483Y022469D01*
X006396Y022383D01*
X006350Y022270D01*
X006350Y022147D01*
X006396Y022034D01*
X006483Y021948D01*
X006596Y021901D01*
X006719Y021901D01*
X006832Y021948D01*
X006918Y022034D01*
X006965Y022147D01*
X006965Y022222D01*
X007334Y022591D01*
X007589Y022591D01*
X007577Y022580D01*
X007531Y022467D01*
X007531Y022344D01*
X007577Y022231D01*
X007664Y022144D01*
X007777Y022098D01*
X007900Y022098D01*
X008013Y022144D01*
X008065Y022197D01*
X014107Y022197D01*
X014160Y022144D01*
X014273Y022098D01*
X014396Y022098D01*
X014509Y022144D01*
X014595Y022231D01*
X014642Y022344D01*
X014642Y022467D01*
X014595Y022580D01*
X014584Y022591D01*
X016725Y022591D01*
X016626Y022492D01*
X016626Y022492D01*
X016325Y022190D01*
X015981Y022190D01*
X015906Y022116D01*
X015899Y022129D01*
X015869Y022159D01*
X015833Y022180D01*
X015792Y022190D01*
X015614Y022190D01*
X015614Y021854D01*
X015535Y021854D01*
X015535Y021775D01*
X015614Y021775D01*
X015614Y021439D01*
X015792Y021439D01*
X015833Y021450D01*
X015869Y021471D01*
X015899Y021501D01*
X015906Y021514D01*
X015981Y021439D01*
X016507Y021439D01*
X016600Y021532D01*
X016600Y021876D01*
X016921Y022197D01*
X018708Y022197D01*
X018676Y022178D01*
X018646Y022149D01*
X018625Y022112D01*
X018614Y022072D01*
X018614Y021736D01*
X018614Y021400D01*
X018625Y021360D01*
X018646Y021323D01*
X018676Y021294D01*
X018712Y021273D01*
X018752Y021262D01*
X018802Y021262D01*
X018431Y020890D01*
X018431Y021369D01*
X018378Y021421D01*
X018399Y021442D01*
X018420Y021478D01*
X018431Y021518D01*
X018431Y021716D01*
X018114Y021716D01*
X018114Y021795D01*
X018431Y021795D01*
X018431Y021993D01*
X018420Y022034D01*
X018399Y022070D01*
X018369Y022100D01*
X018333Y022120D01*
X018292Y022131D01*
X018114Y022131D01*
X018114Y021795D01*
X018035Y021795D01*
X018035Y021716D01*
X017719Y021716D01*
X017719Y021518D01*
X017730Y021478D01*
X017751Y021442D01*
X017771Y021421D01*
X017719Y021369D01*
X017719Y021265D01*
X017682Y021265D01*
X017658Y021288D01*
X017545Y021335D01*
X017423Y021335D01*
X017310Y021288D01*
X017223Y021202D01*
X017176Y021089D01*
X017176Y020966D01*
X017223Y020853D01*
X017310Y020766D01*
X017423Y020720D01*
X017545Y020720D01*
X017658Y020766D01*
X017682Y020790D01*
X017733Y020790D01*
X017812Y020711D01*
X018251Y020711D01*
X017988Y020448D01*
X016600Y020448D01*
X016600Y020522D01*
X016507Y020616D01*
X015981Y020616D01*
X015906Y020541D01*
X015899Y020554D01*
X015869Y020584D01*
X015833Y020605D01*
X015792Y020616D01*
X015614Y020616D01*
X015614Y020280D01*
X015535Y020280D01*
X015535Y020616D01*
X015357Y020616D01*
X015316Y020605D01*
X015280Y020584D01*
X015251Y020554D01*
X015230Y020518D01*
X015219Y020477D01*
X015219Y020279D01*
X015535Y020279D01*
X015535Y020201D01*
X015219Y020201D01*
X015219Y020002D01*
X015230Y019962D01*
X015251Y019926D01*
X015280Y019896D01*
X015316Y019875D01*
X015357Y019864D01*
X015535Y019864D01*
X015535Y020200D01*
X015614Y020200D01*
X015614Y019864D01*
X015792Y019864D01*
X015833Y019875D01*
X015869Y019896D01*
X015899Y019926D01*
X015906Y019939D01*
X015981Y019864D01*
X016507Y019864D01*
X016600Y019958D01*
X016600Y020032D01*
X017866Y020032D01*
X017866Y018489D01*
X017843Y018544D01*
X017757Y018631D01*
X017644Y018678D01*
X017521Y018678D01*
X017408Y018631D01*
X017355Y018578D01*
X012080Y018578D01*
X012127Y018693D01*
X012127Y018850D01*
X012111Y018889D01*
X012206Y018850D01*
X012329Y018850D01*
X012442Y018896D01*
X012528Y018983D01*
X012575Y019096D01*
X012575Y019097D01*
X014649Y019097D01*
X014652Y019093D01*
X014765Y019046D01*
X014888Y019046D01*
X015001Y019093D01*
X015004Y019097D01*
X017208Y019097D01*
X017211Y019093D01*
X017324Y019046D01*
X017447Y019046D01*
X017560Y019093D01*
X017647Y019180D01*
X017693Y019293D01*
X017693Y019415D01*
X017647Y019529D01*
X017560Y019615D01*
X017447Y019662D01*
X017324Y019662D01*
X017211Y019615D01*
X017208Y019612D01*
X015004Y019612D01*
X015001Y019615D01*
X014888Y019662D01*
X014765Y019662D01*
X014652Y019615D01*
X014649Y019612D01*
X012413Y019612D01*
X012319Y019572D01*
X012246Y019500D01*
X012211Y019465D01*
X012206Y019465D01*
X012103Y019422D01*
X012127Y019480D01*
X012127Y019638D01*
X012067Y019783D01*
X011956Y019894D01*
X011814Y019953D01*
X011956Y020011D01*
X012067Y020122D01*
X012127Y020268D01*
X012127Y020425D01*
X012067Y020570D01*
X011956Y020681D01*
X011814Y020740D01*
X011956Y020799D01*
X012067Y020910D01*
X012127Y021055D01*
X012127Y021212D01*
X012067Y021358D01*
X011956Y021469D01*
X011811Y021529D01*
X011653Y021529D01*
X011508Y021469D01*
X011397Y021358D01*
X011337Y021212D01*
X011337Y021055D01*
X011397Y020910D01*
X011508Y020799D01*
X011650Y020740D01*
X011508Y020681D01*
X011397Y020570D01*
X011337Y020425D01*
X011337Y020293D01*
X011197Y020153D01*
X011096Y020153D01*
X011143Y020268D01*
X011143Y020425D01*
X011083Y020570D01*
X010972Y020681D01*
X010830Y020740D01*
X010972Y020799D01*
X011083Y020910D01*
X011143Y021055D01*
X011143Y021212D01*
X011083Y021358D01*
X010972Y021469D01*
X010826Y021529D01*
X010669Y021529D01*
X010524Y021469D01*
X010413Y021358D01*
X010353Y021212D01*
X010353Y021055D01*
X010413Y020910D01*
X010524Y020799D01*
X010665Y020740D01*
X010524Y020681D01*
X010413Y020570D01*
X010353Y020425D01*
X010353Y020268D01*
X010400Y020153D01*
X010213Y020153D01*
X010091Y020031D01*
X009599Y019539D01*
X009599Y019366D01*
X009599Y010287D01*
X006374Y007062D01*
X003303Y007062D01*
X003181Y006940D01*
X001712Y005471D01*
X001697Y005478D01*
X001539Y005478D01*
X001394Y005418D01*
X001283Y005306D01*
X001223Y005161D01*
X001223Y005004D01*
X001283Y004859D01*
X001394Y004747D01*
X001539Y004687D01*
X001677Y004687D01*
X002364Y004000D01*
X002504Y003860D01*
X004590Y003860D01*
X004942Y003509D01*
X004465Y003509D01*
X004372Y003416D01*
X004372Y003200D01*
X004315Y003338D01*
X004204Y003449D01*
X004059Y003509D01*
X003901Y003509D01*
X003756Y003449D01*
X003645Y003338D01*
X003586Y003196D01*
X003528Y003338D01*
X003417Y003449D01*
X003271Y003509D01*
X003114Y003509D01*
X002969Y003449D01*
X002858Y003338D01*
X002799Y003196D01*
X002740Y003338D01*
X002629Y003449D01*
X002484Y003509D01*
X002327Y003509D01*
X002181Y003449D01*
X002070Y003338D01*
X002012Y003196D01*
X001953Y003338D01*
X001842Y003449D01*
X001697Y003509D01*
X001539Y003509D01*
X001394Y003449D01*
X001283Y003338D01*
X001223Y003193D01*
X001223Y003035D01*
X001283Y002890D01*
X001394Y002779D01*
X001539Y002719D01*
X001697Y002719D01*
X001842Y002779D01*
X001953Y002890D01*
X002012Y003032D01*
X002070Y002890D01*
X002181Y002779D01*
X002327Y002719D01*
X002484Y002719D01*
X002629Y002779D01*
X002740Y002890D01*
X002799Y003032D01*
X002858Y002890D01*
X002969Y002779D01*
X003114Y002719D01*
X003271Y002719D01*
X003417Y002779D01*
X003528Y002890D01*
X003586Y003032D01*
X003645Y002890D01*
X003756Y002779D01*
X003901Y002719D01*
X004059Y002719D01*
X004204Y002779D01*
X004315Y002890D01*
X004372Y003028D01*
X004372Y002812D01*
X004465Y002719D01*
X005070Y002719D01*
X005163Y002812D01*
X005163Y003288D01*
X005591Y002860D01*
X005472Y002860D01*
X005320Y002796D01*
X005203Y002680D01*
X005140Y002527D01*
X005140Y002362D01*
X005203Y002210D01*
X005320Y002093D01*
X005472Y002030D01*
X005637Y002030D01*
X005790Y002093D01*
X005907Y002210D01*
X005970Y002362D01*
X005970Y002481D01*
X006026Y002425D01*
X006026Y002130D01*
X005870Y001974D01*
X005259Y001974D01*
X005245Y002009D01*
X005158Y002095D01*
X005045Y002142D01*
X004923Y002142D01*
X004810Y002095D01*
X004723Y002009D01*
X004676Y001896D01*
X004676Y001773D01*
X004723Y001660D01*
X004810Y001574D01*
X004923Y001527D01*
X004956Y001527D01*
X004984Y001498D01*
X005181Y001498D01*
X006067Y001498D01*
X006206Y001638D01*
X006501Y001933D01*
X006501Y002130D01*
X006501Y002622D01*
X006362Y002761D01*
X005726Y003397D01*
X005734Y003397D01*
X005847Y003444D01*
X005934Y003530D01*
X005981Y003643D01*
X005981Y003766D01*
X005934Y003879D01*
X005847Y003965D01*
X005734Y004012D01*
X005702Y004012D01*
X004984Y004730D01*
X004949Y004730D01*
X004991Y004747D01*
X005103Y004859D01*
X005109Y004874D01*
X006965Y004874D01*
X007137Y004874D01*
X012452Y010189D01*
X012574Y010311D01*
X012574Y014248D01*
X012574Y014421D01*
X012127Y014868D01*
X012127Y014913D01*
X012067Y015058D01*
X011956Y015170D01*
X011814Y015228D01*
X011956Y015287D01*
X012067Y015398D01*
X012127Y015543D01*
X012127Y015701D01*
X012067Y015846D01*
X011956Y015957D01*
X011814Y016016D01*
X011956Y016074D01*
X012067Y016185D01*
X012127Y016331D01*
X012127Y016488D01*
X012067Y016633D01*
X011956Y016744D01*
X011814Y016803D01*
X011956Y016862D01*
X012067Y016973D01*
X012127Y017118D01*
X012127Y017275D01*
X012067Y017421D01*
X011956Y017532D01*
X011814Y017590D01*
X011956Y017649D01*
X012067Y017760D01*
X012127Y017905D01*
X012127Y018063D01*
X012086Y018162D01*
X017355Y018162D01*
X017408Y018109D01*
X017521Y018062D01*
X017644Y018062D01*
X017757Y018109D01*
X017843Y018196D01*
X017866Y018251D01*
X017866Y014224D01*
X017866Y014051D01*
X018260Y013658D01*
X018260Y013179D01*
X018228Y013147D01*
X018191Y013184D01*
X018053Y013242D01*
X017903Y013242D01*
X017765Y013184D01*
X017728Y013147D01*
X017691Y013184D01*
X017553Y013242D01*
X017403Y013242D01*
X017265Y013184D01*
X017228Y013147D01*
X017191Y013184D01*
X017053Y013242D01*
X016903Y013242D01*
X016765Y013184D01*
X016728Y013147D01*
X016691Y013184D01*
X016553Y013242D01*
X016403Y013242D01*
X016302Y013200D01*
X016261Y013242D01*
X015696Y013242D01*
X015603Y013148D01*
X015603Y012584D01*
X015696Y012490D01*
X016261Y012490D01*
X016302Y012532D01*
X016403Y012490D01*
X016553Y012490D01*
X016691Y012548D01*
X016728Y012585D01*
X016765Y012548D01*
X016903Y012490D01*
X017053Y012490D01*
X017191Y012548D01*
X017228Y012585D01*
X017265Y012548D01*
X017403Y012490D01*
X017553Y012490D01*
X017691Y012548D01*
X017728Y012585D01*
X017765Y012548D01*
X017768Y012547D01*
X017768Y011580D01*
X017694Y011580D01*
X017601Y011487D01*
X017601Y010961D01*
X017673Y010890D01*
X017601Y010818D01*
X017601Y010292D01*
X017694Y010199D01*
X018259Y010199D01*
X018321Y010261D01*
X018383Y010199D01*
X018948Y010199D01*
X019010Y010261D01*
X019072Y010199D01*
X019637Y010199D01*
X019730Y010292D01*
X019730Y010347D01*
X019898Y010347D01*
X020524Y009721D01*
X020524Y009605D01*
X020506Y009598D01*
X020394Y009486D01*
X020333Y009339D01*
X020333Y008700D01*
X020394Y008553D01*
X020506Y008441D01*
X020653Y008380D01*
X020811Y008380D01*
X020958Y008441D01*
X021070Y008553D01*
X021131Y008700D01*
X021131Y009339D01*
X021070Y009486D01*
X020958Y009598D01*
X020940Y009605D01*
X020940Y009893D01*
X020818Y010015D01*
X020070Y010763D01*
X019898Y010763D01*
X019730Y010763D01*
X019730Y010818D01*
X019658Y010890D01*
X019730Y010961D01*
X019730Y011487D01*
X019637Y011580D01*
X019072Y011580D01*
X019010Y011518D01*
X018948Y011580D01*
X018383Y011580D01*
X018321Y011518D01*
X018259Y011580D01*
X018184Y011580D01*
X018184Y012545D01*
X018191Y012548D01*
X018228Y012585D01*
X018265Y012548D01*
X018403Y012490D01*
X018553Y012490D01*
X018691Y012548D01*
X018728Y012585D01*
X018739Y012574D01*
X018800Y012533D01*
X018869Y012505D01*
X018941Y012490D01*
X018968Y012490D01*
X018968Y012856D01*
X018988Y012856D01*
X018988Y012490D01*
X019015Y012490D01*
X019088Y012505D01*
X019156Y012533D01*
X019218Y012574D01*
X019228Y012585D01*
X019265Y012548D01*
X019403Y012490D01*
X019553Y012490D01*
X019691Y012548D01*
X019728Y012585D01*
X019765Y012548D01*
X019903Y012490D01*
X020053Y012490D01*
X020191Y012548D01*
X020228Y012585D01*
X020265Y012548D01*
X020403Y012490D01*
X020553Y012490D01*
X020691Y012548D01*
X020721Y012577D01*
X020721Y012354D01*
X020721Y012181D01*
X021311Y011591D01*
X021312Y011590D01*
X021020Y011590D01*
X020993Y011654D01*
X020906Y011741D01*
X020793Y011788D01*
X020671Y011788D01*
X020558Y011741D01*
X020471Y011654D01*
X020424Y011541D01*
X020424Y011419D01*
X020471Y011306D01*
X020558Y011219D01*
X020671Y011172D01*
X020793Y011172D01*
X020796Y011173D01*
X022417Y011173D01*
X027807Y005784D01*
X027929Y005662D01*
X030095Y005662D01*
X030366Y005390D01*
X030366Y004818D01*
X030243Y004818D01*
X030150Y004725D01*
X030150Y004062D01*
X030243Y003969D01*
X030906Y003969D01*
X030999Y004062D01*
X030999Y004725D01*
X030906Y004818D01*
X030783Y004818D01*
X030783Y005562D01*
X030661Y005684D01*
X030290Y006055D01*
X030685Y006055D01*
X031351Y005390D01*
X031351Y004767D01*
X031318Y004754D01*
X031199Y004634D01*
X031134Y004478D01*
X031134Y004309D01*
X031199Y004153D01*
X031318Y004033D01*
X031474Y003969D01*
X031643Y003969D01*
X031799Y004033D01*
X031919Y004153D01*
X031984Y004309D01*
X031984Y004478D01*
X031919Y004634D01*
X031799Y004754D01*
X031767Y004767D01*
X031767Y005562D01*
X031645Y005684D01*
X030881Y006449D01*
X031276Y006449D01*
X032335Y005390D01*
X032335Y004767D01*
X032303Y004754D01*
X032183Y004634D01*
X032118Y004478D01*
X032118Y004309D01*
X032183Y004153D01*
X032303Y004033D01*
X032459Y003969D01*
X032628Y003969D01*
X032784Y004033D01*
X032903Y004153D01*
X032968Y004309D01*
X032968Y004478D01*
X032903Y004634D01*
X032784Y004754D01*
X032751Y004767D01*
X032751Y005562D01*
X032629Y005684D01*
X031471Y006843D01*
X031866Y006843D01*
X033319Y005390D01*
X033319Y004767D01*
X033287Y004754D01*
X033167Y004634D01*
X033103Y004478D01*
X033103Y004309D01*
X033167Y004153D01*
X033287Y004033D01*
X033443Y003969D01*
X033612Y003969D01*
X033768Y004033D01*
X033887Y004153D01*
X033952Y004309D01*
X033952Y004478D01*
X033887Y004634D01*
X033768Y004754D01*
X033736Y004767D01*
X033736Y005562D01*
X033614Y005684D01*
X032039Y007259D01*
X031866Y007259D01*
X028397Y007259D01*
X023598Y012059D01*
X023598Y012944D01*
X023476Y013066D01*
X022393Y014149D01*
X022221Y014149D01*
X021114Y014149D01*
X020351Y014912D01*
X020351Y014986D01*
X020304Y015099D01*
X020217Y015186D01*
X020104Y015233D01*
X019982Y015233D01*
X019869Y015186D01*
X019782Y015099D01*
X019735Y014986D01*
X019735Y014864D01*
X019782Y014751D01*
X019869Y014664D01*
X019982Y014617D01*
X020020Y014617D01*
X019967Y014595D01*
X019881Y014509D01*
X019834Y014396D01*
X019834Y014273D01*
X019881Y014160D01*
X018711Y014160D01*
X018741Y014172D02*
X018828Y014259D01*
X018875Y014372D01*
X018875Y014494D01*
X018828Y014607D01*
X018741Y014694D01*
X018628Y014741D01*
X018578Y014741D01*
X018578Y018120D01*
X018589Y018109D01*
X018702Y018062D01*
X018825Y018062D01*
X018938Y018109D01*
X019025Y018196D01*
X019071Y018309D01*
X019071Y018431D01*
X019041Y018505D01*
X019041Y019057D01*
X019213Y019057D01*
X019216Y019060D01*
X019219Y019057D01*
X019392Y019057D01*
X019392Y017423D01*
X019392Y017250D01*
X024780Y011862D01*
X024934Y011862D01*
X024987Y011810D01*
X025100Y011763D01*
X025222Y011763D01*
X025336Y011810D01*
X025422Y011896D01*
X025469Y012009D01*
X025469Y012132D01*
X025422Y012245D01*
X025336Y012332D01*
X025280Y012355D01*
X031768Y012355D01*
X031940Y012355D01*
X032925Y013339D01*
X033047Y013461D01*
X033047Y014847D01*
X033079Y014860D01*
X033199Y014980D01*
X033263Y015136D01*
X033263Y015305D01*
X033199Y015461D01*
X033079Y015580D01*
X032923Y015645D01*
X032754Y015645D01*
X032598Y015580D01*
X032478Y015461D01*
X032414Y015305D01*
X032414Y015136D01*
X032478Y014980D01*
X032598Y014860D01*
X032630Y014847D01*
X032630Y013633D01*
X031768Y012771D01*
X025051Y012771D01*
X024976Y012846D01*
X025026Y012846D01*
X025139Y012892D01*
X025225Y012979D01*
X025272Y013092D01*
X025272Y013215D01*
X025225Y013328D01*
X025139Y013414D01*
X025026Y013461D01*
X024951Y013461D01*
X020320Y018092D01*
X020320Y018094D01*
X024166Y014248D01*
X024288Y014126D01*
X024369Y014043D02*
X032630Y014043D01*
X032630Y013926D02*
X024486Y013926D01*
X024603Y013810D02*
X032630Y013810D01*
X032630Y013693D02*
X024719Y013693D01*
X024836Y013576D02*
X032573Y013576D01*
X032457Y013460D02*
X025029Y013460D01*
X025210Y013343D02*
X032340Y013343D01*
X032223Y013226D02*
X025267Y013226D01*
X025272Y013110D02*
X032107Y013110D01*
X031990Y012993D02*
X025231Y012993D01*
X025100Y012876D02*
X031873Y012876D01*
X032112Y012527D02*
X035829Y012527D01*
X035829Y012643D02*
X032229Y012643D01*
X032346Y012760D02*
X035829Y012760D01*
X035829Y012876D02*
X032462Y012876D01*
X032579Y012993D02*
X035829Y012993D01*
X035829Y013110D02*
X032696Y013110D01*
X032812Y013226D02*
X035829Y013226D01*
X035829Y013343D02*
X032929Y013343D01*
X033046Y013460D02*
X035829Y013460D01*
X035829Y013576D02*
X033047Y013576D01*
X033047Y013693D02*
X035829Y013693D01*
X035829Y013810D02*
X033047Y013810D01*
X033047Y013926D02*
X035829Y013926D01*
X035829Y014043D02*
X033047Y014043D01*
X033047Y014160D02*
X035829Y014160D01*
X035829Y014276D02*
X033047Y014276D01*
X033047Y014393D02*
X035829Y014393D01*
X035829Y014510D02*
X033047Y014510D01*
X033047Y014626D02*
X035829Y014626D01*
X035829Y014743D02*
X033047Y014743D01*
X033078Y014860D02*
X033583Y014860D01*
X033582Y014860D02*
X033738Y014796D01*
X033907Y014796D01*
X034063Y014860D01*
X034183Y014980D01*
X034247Y015136D01*
X034247Y015305D01*
X034183Y015461D01*
X034063Y015580D01*
X033907Y015645D01*
X033738Y015645D01*
X033582Y015580D01*
X033463Y015461D01*
X033398Y015305D01*
X033398Y015136D01*
X033463Y014980D01*
X033582Y014860D01*
X033466Y014976D02*
X033195Y014976D01*
X033245Y015093D02*
X033416Y015093D01*
X033398Y015210D02*
X033263Y015210D01*
X033254Y015326D02*
X033407Y015326D01*
X033455Y015443D02*
X033206Y015443D01*
X033100Y015560D02*
X033561Y015560D01*
X034084Y015560D02*
X034545Y015560D01*
X034566Y015580D02*
X034447Y015461D01*
X034382Y015305D01*
X034382Y015136D01*
X034447Y014980D01*
X034566Y014860D01*
X034722Y014796D01*
X034891Y014796D01*
X035048Y014860D01*
X035167Y014980D01*
X035232Y015136D01*
X035232Y015305D01*
X035167Y015461D01*
X035048Y015580D01*
X034891Y015645D01*
X034722Y015645D01*
X034566Y015580D01*
X034439Y015443D02*
X034190Y015443D01*
X034239Y015326D02*
X034391Y015326D01*
X034382Y015210D02*
X034247Y015210D01*
X034230Y015093D02*
X034400Y015093D01*
X034450Y014976D02*
X034179Y014976D01*
X034062Y014860D02*
X034568Y014860D01*
X035046Y014860D02*
X035829Y014860D01*
X035829Y014976D02*
X035164Y014976D01*
X035214Y015093D02*
X035829Y015093D01*
X035829Y015210D02*
X035232Y015210D01*
X035223Y015326D02*
X035829Y015326D01*
X035829Y015443D02*
X035174Y015443D01*
X035068Y015560D02*
X035829Y015560D01*
X035829Y015676D02*
X023327Y015676D01*
X023443Y015560D02*
X025728Y015560D01*
X025721Y015552D02*
X025721Y014889D01*
X025814Y014796D01*
X026477Y014796D01*
X026570Y014889D01*
X026570Y015552D01*
X026477Y015645D01*
X025814Y015645D01*
X025721Y015552D01*
X025721Y015443D02*
X023560Y015443D01*
X023677Y015326D02*
X025721Y015326D01*
X025721Y015210D02*
X023793Y015210D01*
X023910Y015093D02*
X025721Y015093D01*
X025721Y014976D02*
X024027Y014976D01*
X024143Y014860D02*
X025750Y014860D01*
X026340Y014626D02*
X024377Y014626D01*
X024260Y014743D02*
X026456Y014743D01*
X026541Y014860D02*
X026573Y014860D01*
X026570Y014976D02*
X026690Y014976D01*
X026723Y015093D02*
X026570Y015093D01*
X026570Y015210D02*
X026705Y015210D01*
X026714Y015326D02*
X026570Y015326D01*
X026570Y015443D02*
X026762Y015443D01*
X026868Y015560D02*
X026563Y015560D01*
X027130Y015220D02*
X027130Y015122D01*
X027369Y014860D02*
X027875Y014860D01*
X027873Y014860D02*
X028029Y014796D01*
X028199Y014796D01*
X028355Y014860D01*
X028474Y014980D01*
X028539Y015136D01*
X028539Y015305D01*
X028474Y015461D01*
X028355Y015580D01*
X028199Y015645D01*
X028029Y015645D01*
X027873Y015580D01*
X027754Y015461D01*
X027689Y015305D01*
X027689Y015136D01*
X027754Y014980D01*
X027873Y014860D01*
X027757Y014976D02*
X027486Y014976D01*
X027537Y015093D02*
X027707Y015093D01*
X027689Y015210D02*
X027555Y015210D01*
X027546Y015326D02*
X027698Y015326D01*
X027746Y015443D02*
X027497Y015443D01*
X027391Y015560D02*
X027853Y015560D01*
X028375Y015560D02*
X028837Y015560D01*
X028858Y015580D02*
X028738Y015461D01*
X028673Y015305D01*
X028673Y015136D01*
X028738Y014980D01*
X028858Y014860D01*
X029014Y014796D01*
X029183Y014796D01*
X029339Y014860D01*
X029458Y014980D01*
X029523Y015136D01*
X029523Y015305D01*
X029458Y015461D01*
X029339Y015580D01*
X029183Y015645D01*
X029014Y015645D01*
X028858Y015580D01*
X028731Y015443D02*
X028482Y015443D01*
X028530Y015326D02*
X028682Y015326D01*
X028673Y015210D02*
X028539Y015210D01*
X028521Y015093D02*
X028691Y015093D01*
X028742Y014976D02*
X028471Y014976D01*
X028353Y014860D02*
X028859Y014860D01*
X029337Y014860D02*
X031458Y014860D01*
X031429Y014889D02*
X031523Y014796D01*
X032186Y014796D01*
X032279Y014889D01*
X032279Y015552D01*
X032186Y015645D01*
X031523Y015645D01*
X031429Y015552D01*
X031429Y014889D01*
X031429Y014976D02*
X029455Y014976D01*
X029505Y015093D02*
X031429Y015093D01*
X031429Y015210D02*
X029523Y015210D01*
X029514Y015326D02*
X031429Y015326D01*
X031429Y015443D02*
X029466Y015443D01*
X029360Y015560D02*
X031437Y015560D01*
X032271Y015560D02*
X032577Y015560D01*
X032471Y015443D02*
X032279Y015443D01*
X032279Y015326D02*
X032423Y015326D01*
X032414Y015210D02*
X032279Y015210D01*
X032279Y015093D02*
X032431Y015093D01*
X032482Y014976D02*
X032279Y014976D01*
X032250Y014860D02*
X032599Y014860D01*
X032630Y014743D02*
X027045Y014743D01*
X026929Y014626D02*
X032630Y014626D01*
X032630Y014510D02*
X026812Y014510D01*
X026695Y014393D02*
X032630Y014393D01*
X032630Y014276D02*
X026579Y014276D01*
X026462Y014160D02*
X032630Y014160D01*
X031996Y012410D02*
X035829Y012410D01*
X035829Y012293D02*
X025374Y012293D01*
X025451Y012177D02*
X035829Y012177D01*
X035829Y012060D02*
X025469Y012060D01*
X025442Y011943D02*
X035829Y011943D01*
X035829Y011827D02*
X025352Y011827D01*
X024970Y011827D02*
X023830Y011827D01*
X023713Y011943D02*
X024699Y011943D01*
X024582Y012060D02*
X023598Y012060D01*
X023598Y012177D02*
X024466Y012177D01*
X024349Y012293D02*
X023598Y012293D01*
X023598Y012410D02*
X024232Y012410D01*
X024116Y012527D02*
X023598Y012527D01*
X023598Y012643D02*
X023999Y012643D01*
X023882Y012760D02*
X023598Y012760D01*
X023598Y012876D02*
X023766Y012876D01*
X023649Y012993D02*
X023549Y012993D01*
X023532Y013110D02*
X023432Y013110D01*
X023416Y013226D02*
X023316Y013226D01*
X023299Y013343D02*
X023199Y013343D01*
X023182Y013460D02*
X023082Y013460D01*
X023066Y013576D02*
X022966Y013576D01*
X022949Y013693D02*
X022849Y013693D01*
X022832Y013810D02*
X022732Y013810D01*
X022716Y013926D02*
X022616Y013926D01*
X022599Y014043D02*
X022499Y014043D01*
X022482Y014160D02*
X021103Y014160D01*
X020986Y014276D02*
X022366Y014276D01*
X022249Y014393D02*
X020870Y014393D01*
X020753Y014510D02*
X022132Y014510D01*
X022016Y014626D02*
X020636Y014626D01*
X020520Y014743D02*
X021899Y014743D01*
X021783Y014860D02*
X020403Y014860D01*
X020351Y014976D02*
X021666Y014976D01*
X021549Y015093D02*
X020307Y015093D01*
X020160Y015210D02*
X021433Y015210D01*
X021316Y015326D02*
X018578Y015326D01*
X018578Y015210D02*
X019926Y015210D01*
X019780Y015093D02*
X018578Y015093D01*
X018578Y014976D02*
X019735Y014976D01*
X019737Y014860D02*
X018578Y014860D01*
X018578Y014743D02*
X019790Y014743D01*
X019960Y014626D02*
X018809Y014626D01*
X018868Y014510D02*
X019881Y014510D01*
X019834Y014393D02*
X018875Y014393D01*
X018835Y014276D02*
X019834Y014276D01*
X019881Y014160D02*
X019967Y014074D01*
X020020Y014052D01*
X019982Y014052D01*
X019869Y014005D01*
X019782Y013918D01*
X019735Y013805D01*
X019735Y013683D01*
X019782Y013570D01*
X019869Y013483D01*
X019982Y013436D01*
X020104Y013436D01*
X020217Y013483D01*
X020261Y013527D01*
X020546Y013242D01*
X020403Y013242D01*
X020265Y013184D01*
X020228Y013147D01*
X020191Y013184D01*
X020053Y013242D01*
X019903Y013242D01*
X019765Y013184D01*
X019728Y013147D01*
X019691Y013184D01*
X019553Y013242D01*
X019403Y013242D01*
X019265Y013184D01*
X019228Y013147D01*
X019218Y013158D01*
X019156Y013199D01*
X019088Y013227D01*
X019015Y013242D01*
X018988Y013242D01*
X018988Y012876D01*
X018968Y012876D01*
X018968Y013242D01*
X018941Y013242D01*
X018869Y013227D01*
X018800Y013199D01*
X018739Y013158D01*
X018728Y013147D01*
X018691Y013184D01*
X018677Y013190D01*
X018677Y013830D01*
X018555Y013952D01*
X018283Y014224D01*
X018283Y014314D01*
X018306Y014259D01*
X018392Y014172D01*
X018506Y014125D01*
X018628Y014125D01*
X018741Y014172D01*
X018580Y013926D02*
X019790Y013926D01*
X019737Y013810D02*
X018677Y013810D01*
X018677Y013693D02*
X019735Y013693D01*
X019779Y013576D02*
X018677Y013576D01*
X018677Y013460D02*
X019925Y013460D01*
X020161Y013460D02*
X020328Y013460D01*
X020445Y013343D02*
X018677Y013343D01*
X018677Y013226D02*
X018867Y013226D01*
X018968Y013226D02*
X018988Y013226D01*
X019089Y013226D02*
X019367Y013226D01*
X019589Y013226D02*
X019867Y013226D01*
X020089Y013226D02*
X020367Y013226D01*
X020316Y012527D02*
X020140Y012527D01*
X019816Y012527D02*
X019640Y012527D01*
X019316Y012527D02*
X019140Y012527D01*
X018988Y012527D02*
X018968Y012527D01*
X018968Y012643D02*
X018988Y012643D01*
X018988Y012760D02*
X018968Y012760D01*
X018968Y012876D02*
X018988Y012876D01*
X018988Y012993D02*
X018968Y012993D01*
X018968Y013110D02*
X018988Y013110D01*
X018816Y012527D02*
X018640Y012527D01*
X018316Y012527D02*
X018184Y012527D01*
X018184Y012410D02*
X020721Y012410D01*
X020721Y012527D02*
X020640Y012527D01*
X020721Y012293D02*
X018184Y012293D01*
X018184Y012177D02*
X020725Y012177D01*
X020842Y012060D02*
X018184Y012060D01*
X018184Y011943D02*
X020959Y011943D01*
X021075Y011827D02*
X018184Y011827D01*
X018184Y011710D02*
X020527Y011710D01*
X020446Y011593D02*
X018184Y011593D01*
X017768Y011593D02*
X015507Y011593D01*
X015528Y011541D02*
X015481Y011654D01*
X015395Y011741D01*
X015282Y011788D01*
X015232Y011788D01*
X015232Y013362D01*
X016118Y014248D01*
X016118Y014403D01*
X016170Y014455D01*
X016217Y014569D01*
X016217Y014691D01*
X016170Y014804D01*
X016084Y014891D01*
X015971Y014938D01*
X015848Y014938D01*
X015735Y014891D01*
X015648Y014804D01*
X015601Y014691D01*
X015601Y014569D01*
X015648Y014455D01*
X015692Y014412D01*
X014937Y013657D01*
X014815Y013535D01*
X014815Y013148D01*
X014793Y013201D01*
X014627Y013368D01*
X014409Y013458D01*
X014173Y013458D01*
X013956Y013368D01*
X013789Y013201D01*
X013699Y012984D01*
X013699Y012748D01*
X013789Y012531D01*
X013956Y012364D01*
X014173Y012274D01*
X014409Y012274D01*
X014627Y012364D01*
X014793Y012531D01*
X014815Y012584D01*
X014815Y011763D01*
X014815Y011591D01*
X014913Y011493D01*
X014913Y011419D01*
X014959Y011306D01*
X015046Y011219D01*
X015159Y011172D01*
X015282Y011172D01*
X015395Y011219D01*
X015481Y011306D01*
X015528Y011419D01*
X015528Y011541D01*
X015528Y011477D02*
X017601Y011477D01*
X017601Y011360D02*
X015504Y011360D01*
X015419Y011243D02*
X017601Y011243D01*
X017601Y011127D02*
X012574Y011127D01*
X012574Y011243D02*
X015022Y011243D01*
X014937Y011360D02*
X012574Y011360D01*
X012574Y011477D02*
X014913Y011477D01*
X014815Y011593D02*
X012574Y011593D01*
X012574Y011710D02*
X014815Y011710D01*
X014815Y011827D02*
X012574Y011827D01*
X012574Y011943D02*
X014815Y011943D01*
X014815Y012060D02*
X012574Y012060D01*
X012574Y012177D02*
X014815Y012177D01*
X014815Y012293D02*
X014456Y012293D01*
X014672Y012410D02*
X014815Y012410D01*
X014815Y012527D02*
X014789Y012527D01*
X015232Y012527D02*
X015660Y012527D01*
X015603Y012643D02*
X015232Y012643D01*
X015232Y012760D02*
X015603Y012760D01*
X015603Y012876D02*
X015232Y012876D01*
X015232Y012993D02*
X015603Y012993D01*
X015603Y013110D02*
X015232Y013110D01*
X015232Y013226D02*
X015681Y013226D01*
X015446Y013576D02*
X018260Y013576D01*
X018260Y013460D02*
X015329Y013460D01*
X015232Y013343D02*
X018260Y013343D01*
X018260Y013226D02*
X018089Y013226D01*
X017867Y013226D02*
X017589Y013226D01*
X017367Y013226D02*
X017089Y013226D01*
X016867Y013226D02*
X016589Y013226D01*
X016367Y013226D02*
X016276Y013226D01*
X016297Y012527D02*
X016316Y012527D01*
X016640Y012527D02*
X016816Y012527D01*
X017140Y012527D02*
X017316Y012527D01*
X017640Y012527D02*
X017768Y012527D01*
X017768Y012410D02*
X015232Y012410D01*
X015232Y012293D02*
X017768Y012293D01*
X017768Y012177D02*
X015232Y012177D01*
X015232Y012060D02*
X017768Y012060D01*
X017768Y011943D02*
X015232Y011943D01*
X015232Y011827D02*
X017768Y011827D01*
X017768Y011710D02*
X015426Y011710D01*
X014127Y012293D02*
X012574Y012293D01*
X012574Y012410D02*
X013910Y012410D01*
X013793Y012527D02*
X012574Y012527D01*
X012574Y012643D02*
X013743Y012643D01*
X013699Y012760D02*
X012574Y012760D01*
X012574Y012876D02*
X013699Y012876D01*
X013703Y012993D02*
X012574Y012993D01*
X012574Y013110D02*
X013751Y013110D01*
X013814Y013226D02*
X012574Y013226D01*
X012574Y013343D02*
X013931Y013343D01*
X014651Y013343D02*
X014815Y013343D01*
X014815Y013226D02*
X014768Y013226D01*
X014815Y013460D02*
X012574Y013460D01*
X012574Y013576D02*
X014857Y013576D01*
X014973Y013693D02*
X012574Y013693D01*
X012574Y013810D02*
X015090Y013810D01*
X015207Y013926D02*
X012574Y013926D01*
X012574Y014043D02*
X015323Y014043D01*
X015440Y014160D02*
X012574Y014160D01*
X012574Y014276D02*
X015557Y014276D01*
X015673Y014393D02*
X012574Y014393D01*
X012485Y014510D02*
X015626Y014510D01*
X015601Y014626D02*
X012369Y014626D01*
X012252Y014743D02*
X015623Y014743D01*
X015704Y014860D02*
X012135Y014860D01*
X012101Y014976D02*
X017866Y014976D01*
X017866Y014860D02*
X016115Y014860D01*
X016196Y014743D02*
X017866Y014743D01*
X017866Y014626D02*
X016217Y014626D01*
X016193Y014510D02*
X017866Y014510D01*
X017866Y014393D02*
X016118Y014393D01*
X016118Y014276D02*
X017866Y014276D01*
X017866Y014160D02*
X016029Y014160D01*
X015912Y014043D02*
X017875Y014043D01*
X017991Y013926D02*
X015796Y013926D01*
X015679Y013810D02*
X018108Y013810D01*
X018225Y013693D02*
X015562Y013693D01*
X017866Y015093D02*
X012033Y015093D01*
X011859Y015210D02*
X017866Y015210D01*
X017866Y015326D02*
X011995Y015326D01*
X012086Y015443D02*
X017866Y015443D01*
X017866Y015560D02*
X012127Y015560D01*
X012127Y015676D02*
X017866Y015676D01*
X017866Y015793D02*
X012089Y015793D01*
X012004Y015909D02*
X017866Y015909D01*
X017866Y016026D02*
X011840Y016026D01*
X012025Y016143D02*
X017866Y016143D01*
X017866Y016259D02*
X012098Y016259D01*
X012127Y016376D02*
X017866Y016376D01*
X017866Y016493D02*
X012125Y016493D01*
X012077Y016609D02*
X017866Y016609D01*
X017866Y016726D02*
X011974Y016726D01*
X011910Y016843D02*
X017866Y016843D01*
X017866Y016959D02*
X012054Y016959D01*
X012110Y017076D02*
X017866Y017076D01*
X017866Y017193D02*
X012127Y017193D01*
X012113Y017309D02*
X017866Y017309D01*
X017866Y017426D02*
X012062Y017426D01*
X011930Y017543D02*
X017866Y017543D01*
X017866Y017659D02*
X011966Y017659D01*
X012074Y017776D02*
X017866Y017776D01*
X017866Y017893D02*
X012122Y017893D01*
X012127Y018009D02*
X017866Y018009D01*
X017866Y018126D02*
X017774Y018126D01*
X017863Y018243D02*
X017866Y018243D01*
X017866Y018593D02*
X017795Y018593D01*
X017866Y018709D02*
X012127Y018709D01*
X012127Y018826D02*
X017866Y018826D01*
X017866Y018942D02*
X012488Y018942D01*
X012560Y019059D02*
X014735Y019059D01*
X014919Y019059D02*
X017294Y019059D01*
X017478Y019059D02*
X017866Y019059D01*
X017866Y019176D02*
X017643Y019176D01*
X017693Y019292D02*
X017866Y019292D01*
X017866Y019409D02*
X017693Y019409D01*
X017648Y019526D02*
X017866Y019526D01*
X017866Y019642D02*
X017494Y019642D01*
X017277Y019642D02*
X014935Y019642D01*
X014718Y019642D02*
X012125Y019642D01*
X012127Y019526D02*
X012272Y019526D01*
X012077Y019759D02*
X017866Y019759D01*
X017866Y019876D02*
X016518Y019876D01*
X016600Y019992D02*
X017866Y019992D01*
X017999Y020459D02*
X016600Y020459D01*
X016547Y020576D02*
X018116Y020576D01*
X018232Y020692D02*
X011930Y020692D01*
X011966Y020809D02*
X017267Y020809D01*
X017193Y020926D02*
X012074Y020926D01*
X012122Y021042D02*
X017176Y021042D01*
X017205Y021159D02*
X012127Y021159D01*
X012101Y021276D02*
X017297Y021276D01*
X017671Y021276D02*
X017719Y021276D01*
X017742Y021392D02*
X012033Y021392D01*
X011859Y021509D02*
X015246Y021509D01*
X015251Y021501D02*
X015230Y021537D01*
X015219Y021577D01*
X015219Y021775D01*
X015535Y021775D01*
X015535Y021439D01*
X015357Y021439D01*
X015316Y021450D01*
X015280Y021471D01*
X015251Y021501D01*
X015219Y021626D02*
X010148Y021626D01*
X010163Y021590D02*
X010109Y021721D01*
X010009Y021821D01*
X009878Y021875D01*
X009736Y021875D01*
X009605Y021821D01*
X007734Y019949D01*
X007679Y019819D01*
X007679Y019677D01*
X007679Y010917D01*
X007734Y010786D01*
X007834Y010686D01*
X007964Y010632D01*
X008106Y010632D01*
X008237Y010686D01*
X008337Y010786D01*
X008391Y010917D01*
X008391Y019600D01*
X010109Y021318D01*
X010163Y021449D01*
X010163Y021590D01*
X010163Y021509D02*
X010621Y021509D01*
X010447Y021392D02*
X010139Y021392D01*
X010066Y021276D02*
X010379Y021276D01*
X010353Y021159D02*
X009950Y021159D01*
X009833Y021042D02*
X010358Y021042D01*
X010406Y020926D02*
X009716Y020926D01*
X009600Y020809D02*
X010514Y020809D01*
X010550Y020692D02*
X009483Y020692D01*
X009366Y020576D02*
X010418Y020576D01*
X010367Y020459D02*
X009250Y020459D01*
X009133Y020342D02*
X010353Y020342D01*
X010370Y020226D02*
X009016Y020226D01*
X008900Y020109D02*
X010169Y020109D01*
X010052Y019992D02*
X008783Y019992D01*
X008666Y019876D02*
X009936Y019876D01*
X009819Y019759D02*
X008550Y019759D01*
X008433Y019642D02*
X009702Y019642D01*
X009599Y019526D02*
X008391Y019526D01*
X008391Y019409D02*
X009599Y019409D01*
X009599Y019292D02*
X008391Y019292D01*
X008391Y019176D02*
X009599Y019176D01*
X009599Y019059D02*
X008391Y019059D01*
X008391Y018942D02*
X009599Y018942D01*
X009599Y018826D02*
X008391Y018826D01*
X008391Y018709D02*
X009599Y018709D01*
X009599Y018593D02*
X008391Y018593D01*
X008391Y018476D02*
X009599Y018476D01*
X009599Y018359D02*
X008391Y018359D01*
X008391Y018243D02*
X009599Y018243D01*
X009599Y018126D02*
X008391Y018126D01*
X008391Y018009D02*
X009599Y018009D01*
X009599Y017893D02*
X008391Y017893D01*
X008391Y017776D02*
X009599Y017776D01*
X009599Y017659D02*
X008391Y017659D01*
X008391Y017543D02*
X009599Y017543D01*
X009599Y017426D02*
X008391Y017426D01*
X008391Y017309D02*
X009599Y017309D01*
X009599Y017193D02*
X008391Y017193D01*
X008391Y017076D02*
X009599Y017076D01*
X009599Y016959D02*
X008391Y016959D01*
X008391Y016843D02*
X009599Y016843D01*
X009599Y016726D02*
X008391Y016726D01*
X008391Y016609D02*
X009599Y016609D01*
X009599Y016493D02*
X008391Y016493D01*
X008391Y016376D02*
X009599Y016376D01*
X009599Y016259D02*
X008391Y016259D01*
X008391Y016143D02*
X009599Y016143D01*
X009599Y016026D02*
X008391Y016026D01*
X008391Y015909D02*
X009599Y015909D01*
X009599Y015793D02*
X008391Y015793D01*
X008391Y015676D02*
X009599Y015676D01*
X009599Y015560D02*
X008391Y015560D01*
X008391Y015443D02*
X009599Y015443D01*
X009599Y015326D02*
X008391Y015326D01*
X008391Y015210D02*
X009599Y015210D01*
X009599Y015093D02*
X008391Y015093D01*
X008391Y014976D02*
X009599Y014976D01*
X009599Y014860D02*
X008391Y014860D01*
X008391Y014743D02*
X009599Y014743D01*
X009599Y014626D02*
X008391Y014626D01*
X008391Y014510D02*
X009599Y014510D01*
X009599Y014393D02*
X008391Y014393D01*
X008391Y014276D02*
X009599Y014276D01*
X009599Y014160D02*
X008391Y014160D01*
X008391Y014043D02*
X009599Y014043D01*
X009599Y013926D02*
X008391Y013926D01*
X008391Y013810D02*
X009599Y013810D01*
X009599Y013693D02*
X008391Y013693D01*
X008391Y013576D02*
X009599Y013576D01*
X009599Y013460D02*
X008391Y013460D01*
X008391Y013343D02*
X009599Y013343D01*
X009599Y013226D02*
X008391Y013226D01*
X008391Y013110D02*
X009599Y013110D01*
X009599Y012993D02*
X008391Y012993D01*
X008391Y012876D02*
X009599Y012876D01*
X009599Y012760D02*
X008391Y012760D01*
X008391Y012643D02*
X009599Y012643D01*
X009599Y012527D02*
X008391Y012527D01*
X008391Y012410D02*
X009599Y012410D01*
X009599Y012293D02*
X008391Y012293D01*
X008391Y012177D02*
X009599Y012177D01*
X009599Y012060D02*
X008391Y012060D01*
X008391Y011943D02*
X009599Y011943D01*
X009599Y011827D02*
X008391Y011827D01*
X008391Y011710D02*
X009599Y011710D01*
X009599Y011593D02*
X008391Y011593D01*
X008391Y011477D02*
X009599Y011477D01*
X009599Y011360D02*
X008391Y011360D01*
X008391Y011243D02*
X009599Y011243D01*
X009599Y011127D02*
X008391Y011127D01*
X008391Y011010D02*
X009599Y011010D01*
X009599Y010893D02*
X008381Y010893D01*
X008327Y010777D02*
X009599Y010777D01*
X009599Y010660D02*
X008174Y010660D01*
X007897Y010660D02*
X004892Y010660D01*
X004919Y010633D02*
X004728Y010824D01*
X004494Y010959D01*
X004233Y011029D01*
X003963Y011029D01*
X003703Y010959D01*
X003469Y010824D01*
X003278Y010633D01*
X003143Y010399D01*
X003073Y010139D01*
X003073Y009869D01*
X003143Y009608D01*
X003278Y009374D01*
X003469Y009183D01*
X003703Y009048D01*
X003963Y008979D01*
X004233Y008979D01*
X004494Y009048D01*
X004728Y009183D01*
X004919Y009374D01*
X005054Y009608D01*
X005123Y009869D01*
X005123Y010139D01*
X005054Y010399D01*
X004919Y010633D01*
X004970Y010543D02*
X009599Y010543D01*
X009599Y010427D02*
X005038Y010427D01*
X005078Y010310D02*
X009599Y010310D01*
X009505Y010193D02*
X005109Y010193D01*
X005123Y010077D02*
X009389Y010077D01*
X009272Y009960D02*
X005123Y009960D01*
X005117Y009844D02*
X009155Y009844D01*
X009039Y009727D02*
X005085Y009727D01*
X005054Y009610D02*
X008922Y009610D01*
X008805Y009494D02*
X004987Y009494D01*
X004920Y009377D02*
X008689Y009377D01*
X008572Y009260D02*
X004805Y009260D01*
X004659Y009144D02*
X008455Y009144D01*
X008339Y009027D02*
X004414Y009027D01*
X003783Y009027D02*
X000320Y009027D01*
X000320Y009144D02*
X003538Y009144D01*
X003392Y009260D02*
X000320Y009260D01*
X000320Y009377D02*
X003276Y009377D01*
X003209Y009494D02*
X000320Y009494D01*
X000320Y009610D02*
X003142Y009610D01*
X003111Y009727D02*
X000320Y009727D01*
X000320Y009844D02*
X003080Y009844D01*
X003073Y009960D02*
X000320Y009960D01*
X000320Y010077D02*
X003073Y010077D01*
X003088Y010193D02*
X000320Y010193D01*
X000320Y010310D02*
X003119Y010310D01*
X003159Y010427D02*
X000320Y010427D01*
X000320Y010543D02*
X003226Y010543D01*
X003305Y010660D02*
X000320Y010660D01*
X000320Y010777D02*
X003421Y010777D01*
X003589Y010893D02*
X000320Y010893D01*
X000320Y011010D02*
X003893Y011010D01*
X004304Y011010D02*
X007679Y011010D01*
X007679Y011127D02*
X000320Y011127D01*
X000320Y011243D02*
X007679Y011243D01*
X007679Y011360D02*
X000320Y011360D01*
X000320Y011477D02*
X007679Y011477D01*
X007679Y011593D02*
X000320Y011593D01*
X000320Y011710D02*
X007679Y011710D01*
X007679Y011827D02*
X000320Y011827D01*
X000320Y011943D02*
X007679Y011943D01*
X007679Y012060D02*
X000320Y012060D01*
X000320Y012177D02*
X007679Y012177D01*
X007679Y012293D02*
X000320Y012293D01*
X000320Y012410D02*
X007679Y012410D01*
X007679Y012527D02*
X000320Y012527D01*
X000320Y012643D02*
X007679Y012643D01*
X007679Y012760D02*
X000320Y012760D01*
X000320Y012876D02*
X007679Y012876D01*
X007679Y012993D02*
X000320Y012993D01*
X000320Y013110D02*
X007679Y013110D01*
X007679Y013226D02*
X000320Y013226D01*
X000320Y013343D02*
X007679Y013343D01*
X007679Y013460D02*
X000320Y013460D01*
X000320Y013576D02*
X007679Y013576D01*
X007679Y013693D02*
X000320Y013693D01*
X000320Y013810D02*
X007679Y013810D01*
X007679Y013926D02*
X000320Y013926D01*
X000320Y014043D02*
X007679Y014043D01*
X007679Y014160D02*
X000320Y014160D01*
X000320Y014276D02*
X007679Y014276D01*
X007679Y014393D02*
X000320Y014393D01*
X000320Y014510D02*
X007679Y014510D01*
X007679Y014626D02*
X000320Y014626D01*
X000320Y014743D02*
X007679Y014743D01*
X007679Y014860D02*
X003747Y014860D01*
X003748Y014860D02*
X003868Y014980D01*
X003932Y015136D01*
X003932Y015305D01*
X003868Y015461D01*
X003748Y015580D01*
X003592Y015645D01*
X003423Y015645D01*
X003267Y015580D01*
X003148Y015461D01*
X003083Y015305D01*
X003083Y015136D01*
X003148Y014980D01*
X003267Y014860D01*
X003423Y014796D01*
X003592Y014796D01*
X003748Y014860D01*
X003864Y014976D02*
X007679Y014976D01*
X007679Y015093D02*
X003915Y015093D01*
X003932Y015210D02*
X007679Y015210D01*
X007679Y015326D02*
X003924Y015326D01*
X003875Y015443D02*
X007679Y015443D01*
X007679Y015560D02*
X003769Y015560D01*
X003246Y015560D02*
X002785Y015560D01*
X002764Y015580D02*
X002608Y015645D01*
X002439Y015645D01*
X002283Y015580D01*
X002163Y015461D01*
X002099Y015305D01*
X002099Y015136D01*
X002163Y014980D01*
X002283Y014860D01*
X002439Y014796D01*
X002608Y014796D01*
X002764Y014860D01*
X002884Y014980D01*
X002948Y015136D01*
X002948Y015305D01*
X002884Y015461D01*
X002764Y015580D01*
X002891Y015443D02*
X003140Y015443D01*
X003092Y015326D02*
X002939Y015326D01*
X002948Y015210D02*
X003083Y015210D01*
X003101Y015093D02*
X002930Y015093D01*
X002880Y014976D02*
X003151Y014976D01*
X003269Y014860D02*
X002763Y014860D01*
X002284Y014860D02*
X001935Y014860D01*
X001964Y014889D02*
X001871Y014796D01*
X001208Y014796D01*
X001114Y014889D01*
X001114Y015552D01*
X001208Y015645D01*
X001871Y015645D01*
X001964Y015552D01*
X001964Y014889D01*
X001964Y014976D02*
X002167Y014976D01*
X002116Y015093D02*
X001964Y015093D01*
X001964Y015210D02*
X002099Y015210D01*
X002108Y015326D02*
X001964Y015326D01*
X001964Y015443D02*
X002156Y015443D01*
X002262Y015560D02*
X001956Y015560D01*
X001143Y014860D02*
X000320Y014860D01*
X000320Y014976D02*
X001114Y014976D01*
X001114Y015093D02*
X000320Y015093D01*
X000320Y015210D02*
X001114Y015210D01*
X001114Y015326D02*
X000320Y015326D01*
X000320Y015443D02*
X001114Y015443D01*
X001122Y015560D02*
X000320Y015560D01*
X000320Y015676D02*
X007679Y015676D01*
X007679Y015793D02*
X000320Y015793D01*
X000320Y015909D02*
X007679Y015909D01*
X007679Y016026D02*
X000320Y016026D01*
X000320Y016143D02*
X007679Y016143D01*
X007679Y016259D02*
X000320Y016259D01*
X000320Y016376D02*
X007679Y016376D01*
X007679Y016493D02*
X000320Y016493D01*
X000320Y016609D02*
X007679Y016609D01*
X007679Y016726D02*
X000320Y016726D01*
X000320Y016843D02*
X007679Y016843D01*
X007679Y016959D02*
X000320Y016959D01*
X000320Y017076D02*
X007679Y017076D01*
X007679Y017193D02*
X000320Y017193D01*
X000320Y017309D02*
X007679Y017309D01*
X007679Y017426D02*
X000320Y017426D01*
X000320Y017543D02*
X007679Y017543D01*
X007679Y017659D02*
X000320Y017659D01*
X000320Y017776D02*
X007679Y017776D01*
X007679Y017893D02*
X000320Y017893D01*
X000320Y018009D02*
X007679Y018009D01*
X007679Y018126D02*
X000320Y018126D01*
X000320Y018243D02*
X007679Y018243D01*
X007679Y018359D02*
X000320Y018359D01*
X000320Y018476D02*
X007679Y018476D01*
X007679Y018593D02*
X000320Y018593D01*
X000320Y018709D02*
X007679Y018709D01*
X007679Y018826D02*
X000320Y018826D01*
X000320Y018942D02*
X007679Y018942D01*
X007679Y019059D02*
X000320Y019059D01*
X000320Y019176D02*
X007679Y019176D01*
X007679Y019292D02*
X000320Y019292D01*
X000320Y019409D02*
X007679Y019409D01*
X007679Y019526D02*
X000320Y019526D01*
X000320Y019642D02*
X007679Y019642D01*
X007679Y019759D02*
X000320Y019759D01*
X000320Y019876D02*
X007703Y019876D01*
X007776Y019992D02*
X000320Y019992D01*
X000320Y020109D02*
X007893Y020109D01*
X008010Y020226D02*
X000320Y020226D01*
X000320Y020342D02*
X008126Y020342D01*
X008243Y020459D02*
X000320Y020459D01*
X000320Y020576D02*
X008360Y020576D01*
X008476Y020692D02*
X000320Y020692D01*
X000320Y020809D02*
X001213Y020809D01*
X001213Y020926D02*
X000320Y020926D01*
X000320Y021042D02*
X001213Y021042D01*
X001213Y021159D02*
X000320Y021159D01*
X000320Y021276D02*
X001213Y021276D01*
X001213Y021392D02*
X000320Y021392D01*
X000320Y021509D02*
X001264Y021509D01*
X001843Y021626D02*
X000320Y021626D01*
X000320Y021742D02*
X001959Y021742D01*
X002076Y021859D02*
X000320Y021859D01*
X000320Y021975D02*
X002193Y021975D01*
X002309Y022092D02*
X000320Y022092D01*
X000320Y022209D02*
X002426Y022209D01*
X002543Y022325D02*
X000320Y022325D01*
X000320Y022442D02*
X002659Y022442D01*
X002776Y022559D02*
X000320Y022559D01*
X000320Y022675D02*
X002893Y022675D01*
X003009Y022792D02*
X000320Y022792D01*
X000320Y022909D02*
X003126Y022909D01*
X003243Y023025D02*
X000320Y023025D01*
X000320Y023142D02*
X003359Y023142D01*
X003476Y023259D02*
X000320Y023259D01*
X000320Y023375D02*
X003593Y023375D01*
X003709Y023492D02*
X000320Y023492D01*
X000320Y023609D02*
X003826Y023609D01*
X003943Y023725D02*
X000320Y023725D01*
X000320Y023842D02*
X004905Y023842D01*
X004873Y023959D02*
X000320Y023959D01*
X000320Y024075D02*
X004887Y024075D01*
X004957Y024192D02*
X000320Y024192D01*
X000320Y024309D02*
X007860Y024309D01*
X007794Y024425D02*
X000320Y024425D01*
X000320Y024542D02*
X007794Y024542D01*
X007794Y024659D02*
X000320Y024659D01*
X000320Y024775D02*
X007794Y024775D01*
X007794Y024892D02*
X000320Y024892D01*
X000320Y025008D02*
X007823Y025008D01*
X007975Y025125D02*
X000320Y025125D01*
X000320Y025242D02*
X007853Y025242D01*
X007805Y025358D02*
X000320Y025358D01*
X000320Y025475D02*
X007794Y025475D01*
X007814Y025592D02*
X000320Y025592D01*
X000320Y025708D02*
X003836Y025708D01*
X003858Y025687D02*
X004014Y025622D01*
X004183Y025622D01*
X004339Y025687D01*
X004458Y025806D01*
X004523Y025963D01*
X004523Y026132D01*
X004458Y026288D01*
X004339Y026407D01*
X004183Y026472D01*
X004014Y026472D01*
X003858Y026407D01*
X003738Y026288D01*
X003673Y026132D01*
X003673Y025963D01*
X003738Y025806D01*
X003858Y025687D01*
X003730Y025825D02*
X000320Y025825D01*
X000320Y025942D02*
X003682Y025942D01*
X003673Y026058D02*
X000320Y026058D01*
X000320Y026175D02*
X003691Y026175D01*
X003742Y026292D02*
X000320Y026292D01*
X000320Y026408D02*
X003860Y026408D01*
X003876Y026525D02*
X000320Y026525D01*
X000320Y026642D02*
X003706Y026642D01*
X003613Y026758D02*
X000320Y026758D01*
X000320Y026875D02*
X003565Y026875D01*
X003546Y026992D02*
X000320Y026992D01*
X000320Y027108D02*
X003546Y027108D01*
X003580Y027225D02*
X000320Y027225D01*
X000320Y027342D02*
X003628Y027342D01*
X003743Y027458D02*
X000320Y027458D01*
X000320Y027575D02*
X003860Y027575D01*
X003977Y027691D02*
X000320Y027691D01*
X000320Y027808D02*
X004093Y027808D01*
X004210Y027925D02*
X000320Y027925D01*
X000320Y028041D02*
X004327Y028041D01*
X004443Y028158D02*
X000320Y028158D01*
X000320Y028275D02*
X004560Y028275D01*
X004677Y028391D02*
X000320Y028391D01*
X000320Y028508D02*
X004793Y028508D01*
X004910Y028625D02*
X000320Y028625D01*
X000320Y028741D02*
X005027Y028741D01*
X005254Y028858D02*
X000320Y028858D01*
X000320Y028975D02*
X011461Y028975D01*
X011577Y029091D02*
X000320Y029091D01*
X000320Y029208D02*
X011694Y029208D01*
X011811Y029325D02*
X000320Y029325D01*
X000320Y029441D02*
X011927Y029441D01*
X012044Y029558D02*
X000320Y029558D01*
X000320Y029675D02*
X012161Y029675D01*
X012277Y029791D02*
X000320Y029791D01*
X000320Y029908D02*
X012394Y029908D01*
X012511Y030025D02*
X000320Y030025D01*
X000320Y030141D02*
X012627Y030141D01*
X012744Y030258D02*
X000320Y030258D01*
X000320Y030375D02*
X012861Y030375D01*
X012977Y030491D02*
X000320Y030491D01*
X000320Y030608D02*
X013094Y030608D01*
X013211Y030724D02*
X004533Y030724D01*
X004494Y030702D02*
X004728Y030837D01*
X004919Y031028D01*
X005054Y031262D01*
X005123Y031522D01*
X005123Y031792D01*
X005054Y032053D01*
X004919Y032287D01*
X004728Y032478D01*
X004494Y032613D01*
X004233Y032682D01*
X003963Y032682D01*
X003703Y032613D01*
X003469Y032478D01*
X003278Y032287D01*
X003143Y032053D01*
X003073Y031792D01*
X003073Y031522D01*
X003143Y031262D01*
X003278Y031028D01*
X003469Y030837D01*
X003703Y030702D01*
X003963Y030632D01*
X004233Y030632D01*
X004494Y030702D01*
X004732Y030841D02*
X013327Y030841D01*
X013462Y030958D02*
X004849Y030958D01*
X004945Y031074D02*
X017005Y031074D01*
X017122Y031191D02*
X005013Y031191D01*
X005066Y031308D02*
X017239Y031308D01*
X017355Y031424D02*
X005097Y031424D01*
X005123Y031541D02*
X017472Y031541D01*
X017589Y031658D02*
X005123Y031658D01*
X005123Y031774D02*
X017705Y031774D01*
X017822Y031891D02*
X005097Y031891D01*
X005066Y032008D02*
X017939Y032008D01*
X018055Y032124D02*
X005012Y032124D01*
X004945Y032241D02*
X018172Y032241D01*
X018289Y032358D02*
X004848Y032358D01*
X004731Y032474D02*
X018405Y032474D01*
X018522Y032591D02*
X004531Y032591D01*
X003665Y032591D02*
X000320Y032591D01*
X000320Y032708D02*
X007141Y032708D01*
X007149Y032699D02*
X007346Y032699D01*
X009512Y032699D01*
X009651Y032838D01*
X009651Y033035D01*
X009651Y035042D01*
X010817Y035042D01*
X010748Y034973D01*
X010679Y034805D01*
X010679Y034022D01*
X010748Y033853D01*
X010878Y033724D01*
X011046Y033654D01*
X011229Y033654D01*
X011398Y033724D01*
X011527Y033853D01*
X011597Y034022D01*
X011597Y034805D01*
X011527Y034973D01*
X011458Y035042D01*
X011817Y035042D01*
X011748Y034973D01*
X011679Y034805D01*
X011679Y034022D01*
X011748Y033853D01*
X011878Y033724D01*
X012046Y033654D01*
X012229Y033654D01*
X012398Y033724D01*
X012527Y033853D01*
X012597Y034022D01*
X012597Y034805D01*
X012527Y034973D01*
X012458Y035042D01*
X012817Y035042D01*
X012748Y034973D01*
X012679Y034805D01*
X012679Y034022D01*
X012748Y033853D01*
X012878Y033724D01*
X013046Y033654D01*
X013229Y033654D01*
X013398Y033724D01*
X013527Y033853D01*
X013597Y034022D01*
X013597Y034805D01*
X013527Y034973D01*
X013458Y035042D01*
X013817Y035042D01*
X013748Y034973D01*
X013679Y034805D01*
X013679Y034022D01*
X013748Y033853D01*
X013878Y033724D01*
X014046Y033654D01*
X014229Y033654D01*
X014398Y033724D01*
X014527Y033853D01*
X014597Y034022D01*
X014597Y034805D01*
X014527Y034973D01*
X014458Y035042D01*
X014817Y035042D01*
X014748Y034973D01*
X014679Y034805D01*
X014679Y034022D01*
X014748Y033853D01*
X014878Y033724D01*
X015046Y033654D01*
X015229Y033654D01*
X015398Y033724D01*
X015527Y033853D01*
X015597Y034022D01*
X015597Y034805D01*
X015527Y034973D01*
X015458Y035042D01*
X015817Y035042D01*
X015748Y034973D01*
X015679Y034805D01*
X015679Y034022D01*
X015748Y033853D01*
X015878Y033724D01*
X016046Y033654D01*
X016229Y033654D01*
X016398Y033724D01*
X016527Y033853D01*
X016597Y034022D01*
X016597Y034805D01*
X016527Y034973D01*
X016458Y035042D01*
X016817Y035042D01*
X016748Y034973D01*
X016679Y034805D01*
X016679Y034022D01*
X016748Y033853D01*
X016878Y033724D01*
X017046Y033654D01*
X017229Y033654D01*
X017398Y033724D01*
X017527Y033853D01*
X017597Y034022D01*
X017597Y034805D01*
X017527Y034973D01*
X017458Y035042D01*
X034413Y035042D01*
X034598Y035029D01*
X034955Y034934D01*
X035275Y034749D01*
X035536Y034488D01*
X035721Y034168D01*
X035817Y033811D01*
X035829Y033626D01*
X035829Y033591D01*
X035829Y033560D01*
X035829Y001736D01*
X035817Y001551D01*
X035721Y001194D01*
X035536Y000874D01*
X035275Y000613D01*
X034955Y000428D01*
X034598Y000332D01*
X034413Y000320D01*
X034347Y000320D01*
X000320Y000320D01*
X000320Y033626D01*
X000332Y033811D01*
X000428Y034168D01*
X000613Y034488D01*
X000874Y034749D01*
X001194Y034934D01*
X001551Y035029D01*
X001736Y035042D01*
X001785Y035042D01*
X001802Y035042D01*
X007010Y035042D01*
X007010Y032838D01*
X007149Y032699D01*
X007024Y032824D02*
X000320Y032824D01*
X000320Y032941D02*
X007010Y032941D01*
X007010Y033058D02*
X000320Y033058D01*
X000320Y033174D02*
X007010Y033174D01*
X007010Y033291D02*
X000320Y033291D01*
X000320Y033408D02*
X007010Y033408D01*
X007010Y033524D02*
X000320Y033524D01*
X000321Y033641D02*
X007010Y033641D01*
X007010Y033757D02*
X000329Y033757D01*
X000349Y033874D02*
X007010Y033874D01*
X007010Y033991D02*
X000381Y033991D01*
X000412Y034107D02*
X007010Y034107D01*
X007010Y034224D02*
X000461Y034224D01*
X000528Y034341D02*
X007010Y034341D01*
X007010Y034457D02*
X000595Y034457D01*
X000699Y034574D02*
X007010Y034574D01*
X007010Y034691D02*
X000816Y034691D01*
X000975Y034807D02*
X007010Y034807D01*
X007010Y034924D02*
X001177Y034924D01*
X001722Y035041D02*
X007010Y035041D01*
X009651Y035041D02*
X010816Y035041D01*
X010728Y034924D02*
X009651Y034924D01*
X009651Y034807D02*
X010680Y034807D01*
X010679Y034691D02*
X009651Y034691D01*
X009651Y034574D02*
X010679Y034574D01*
X010679Y034457D02*
X009651Y034457D01*
X009651Y034341D02*
X010679Y034341D01*
X010679Y034224D02*
X009651Y034224D01*
X009651Y034107D02*
X010679Y034107D01*
X010691Y033991D02*
X009651Y033991D01*
X009651Y033874D02*
X010740Y033874D01*
X010844Y033757D02*
X009651Y033757D01*
X009651Y033641D02*
X019572Y033641D01*
X019688Y033757D02*
X017431Y033757D01*
X017535Y033874D02*
X019805Y033874D01*
X019922Y033991D02*
X017584Y033991D01*
X017597Y034107D02*
X020038Y034107D01*
X020155Y034224D02*
X017597Y034224D01*
X017597Y034341D02*
X020272Y034341D01*
X020388Y034457D02*
X017597Y034457D01*
X017597Y034574D02*
X035450Y034574D01*
X035554Y034457D02*
X021076Y034457D01*
X021193Y034341D02*
X031054Y034341D01*
X031055Y034341D02*
X030883Y034169D01*
X030790Y033944D01*
X030790Y033701D01*
X030883Y033476D01*
X031055Y033304D01*
X031280Y033211D01*
X032429Y033211D01*
X032653Y033304D01*
X032826Y033476D01*
X032919Y033701D01*
X032919Y033944D01*
X032826Y034169D01*
X032653Y034341D01*
X032429Y034434D01*
X031280Y034434D01*
X031055Y034341D01*
X030938Y034224D02*
X021246Y034224D01*
X021285Y034107D02*
X030857Y034107D01*
X030809Y033991D02*
X021285Y033991D01*
X021270Y033874D02*
X030790Y033874D01*
X030790Y033757D02*
X021222Y033757D01*
X021135Y033641D02*
X030814Y033641D01*
X030863Y033524D02*
X021018Y033524D01*
X020902Y033408D02*
X030951Y033408D01*
X031087Y033291D02*
X020785Y033291D01*
X020669Y033174D02*
X035829Y033174D01*
X035829Y033058D02*
X030943Y033058D01*
X031042Y033016D02*
X030803Y033116D01*
X030544Y033116D01*
X030304Y033016D01*
X030121Y032833D01*
X030022Y032594D01*
X030022Y031824D01*
X029781Y031583D01*
X029727Y031453D01*
X029727Y031311D01*
X029727Y025899D01*
X025844Y022016D01*
X025790Y021886D01*
X025790Y021744D01*
X025790Y021526D01*
X025721Y021457D01*
X025721Y020794D01*
X025814Y020701D01*
X026477Y020701D01*
X026570Y020794D01*
X026570Y021457D01*
X026501Y021526D01*
X026501Y021667D01*
X030284Y025450D01*
X030384Y025550D01*
X030438Y025681D01*
X030438Y030873D01*
X030544Y030829D01*
X030803Y030829D01*
X031042Y030928D01*
X031225Y031111D01*
X031324Y031351D01*
X031324Y032594D01*
X031225Y032833D01*
X031042Y033016D01*
X031117Y032941D02*
X032686Y032941D01*
X032689Y032944D02*
X032517Y032772D01*
X032423Y032547D01*
X032423Y031398D01*
X032517Y031173D01*
X032689Y031001D01*
X032914Y030908D01*
X033157Y030908D01*
X033382Y031001D01*
X033554Y031173D01*
X033647Y031398D01*
X033647Y032547D01*
X033554Y032772D01*
X033382Y032944D01*
X033157Y033037D01*
X032914Y033037D01*
X032689Y032944D01*
X032569Y032824D02*
X031229Y032824D01*
X031277Y032708D02*
X032490Y032708D01*
X032442Y032591D02*
X031324Y032591D01*
X031324Y032474D02*
X032423Y032474D01*
X032423Y032358D02*
X031324Y032358D01*
X031324Y032241D02*
X032423Y032241D01*
X032423Y032124D02*
X031324Y032124D01*
X031324Y032008D02*
X032423Y032008D01*
X032423Y031891D02*
X031324Y031891D01*
X031324Y031774D02*
X032423Y031774D01*
X032423Y031658D02*
X031324Y031658D01*
X031324Y031541D02*
X032423Y031541D01*
X032423Y031424D02*
X031324Y031424D01*
X031306Y031308D02*
X032461Y031308D01*
X032509Y031191D02*
X031258Y031191D01*
X031188Y031074D02*
X032615Y031074D01*
X032793Y030958D02*
X031072Y030958D01*
X030832Y030841D02*
X035829Y030841D01*
X035829Y030724D02*
X030438Y030724D01*
X030438Y030608D02*
X035829Y030608D01*
X035829Y030491D02*
X030438Y030491D01*
X030438Y030375D02*
X035829Y030375D01*
X035829Y030258D02*
X030438Y030258D01*
X030438Y030141D02*
X035829Y030141D01*
X035829Y030025D02*
X030438Y030025D01*
X030438Y029908D02*
X035829Y029908D01*
X035829Y029791D02*
X030438Y029791D01*
X030438Y029675D02*
X035829Y029675D01*
X035829Y029558D02*
X030438Y029558D01*
X030438Y029441D02*
X035829Y029441D01*
X035829Y029325D02*
X030438Y029325D01*
X030438Y029208D02*
X035829Y029208D01*
X035829Y029091D02*
X030438Y029091D01*
X030438Y028975D02*
X035829Y028975D01*
X035829Y028858D02*
X030438Y028858D01*
X030438Y028741D02*
X035829Y028741D01*
X035829Y028625D02*
X030438Y028625D01*
X030438Y028508D02*
X035829Y028508D01*
X035829Y028391D02*
X030438Y028391D01*
X030438Y028275D02*
X035829Y028275D01*
X035829Y028158D02*
X030438Y028158D01*
X030438Y028041D02*
X035829Y028041D01*
X035829Y027925D02*
X030438Y027925D01*
X030438Y027808D02*
X035829Y027808D01*
X035829Y027691D02*
X030438Y027691D01*
X030438Y027575D02*
X035829Y027575D01*
X035829Y027458D02*
X030438Y027458D01*
X030438Y027342D02*
X031429Y027342D01*
X031429Y027363D02*
X031429Y026700D01*
X031523Y026607D01*
X032186Y026607D01*
X032279Y026700D01*
X032279Y027363D01*
X032186Y027456D01*
X031523Y027456D01*
X031429Y027363D01*
X031429Y027225D02*
X030438Y027225D01*
X030438Y027108D02*
X031429Y027108D01*
X031429Y026992D02*
X030438Y026992D01*
X030438Y026875D02*
X031429Y026875D01*
X031429Y026758D02*
X030438Y026758D01*
X030438Y026642D02*
X031487Y026642D01*
X032221Y026642D02*
X032669Y026642D01*
X032598Y026671D02*
X032754Y026607D01*
X032923Y026607D01*
X033079Y026671D01*
X033199Y026791D01*
X033263Y026947D01*
X033263Y027116D01*
X033199Y027272D01*
X033079Y027391D01*
X032923Y027456D01*
X032754Y027456D01*
X032598Y027391D01*
X032478Y027272D01*
X032414Y027116D01*
X032414Y026947D01*
X032478Y026791D01*
X032598Y026671D01*
X032511Y026758D02*
X032279Y026758D01*
X032279Y026875D02*
X032443Y026875D01*
X032414Y026992D02*
X032279Y026992D01*
X032279Y027108D02*
X032414Y027108D01*
X032459Y027225D02*
X032279Y027225D01*
X032279Y027342D02*
X032548Y027342D01*
X033129Y027342D02*
X033532Y027342D01*
X033582Y027391D02*
X033463Y027272D01*
X033398Y027116D01*
X033398Y026947D01*
X033463Y026791D01*
X033582Y026671D01*
X033738Y026607D01*
X033907Y026607D01*
X034063Y026671D01*
X034183Y026791D01*
X034247Y026947D01*
X034247Y027116D01*
X034183Y027272D01*
X034063Y027391D01*
X033907Y027456D01*
X033738Y027456D01*
X033582Y027391D01*
X033443Y027225D02*
X033218Y027225D01*
X033263Y027108D02*
X033398Y027108D01*
X033398Y026992D02*
X033263Y026992D01*
X033233Y026875D02*
X033428Y026875D01*
X033495Y026758D02*
X033166Y026758D01*
X033008Y026642D02*
X033653Y026642D01*
X033992Y026642D02*
X035829Y026642D01*
X035829Y026758D02*
X034150Y026758D01*
X034218Y026875D02*
X035829Y026875D01*
X035829Y026992D02*
X034247Y026992D01*
X034247Y027108D02*
X035829Y027108D01*
X035829Y027225D02*
X034202Y027225D01*
X034113Y027342D02*
X035829Y027342D01*
X035829Y026525D02*
X030438Y026525D01*
X030438Y026408D02*
X035829Y026408D01*
X035829Y026292D02*
X030438Y026292D01*
X030438Y026175D02*
X035829Y026175D01*
X035829Y026058D02*
X030438Y026058D01*
X030438Y025942D02*
X035829Y025942D01*
X035829Y025825D02*
X030438Y025825D01*
X030438Y025708D02*
X035829Y025708D01*
X035829Y025592D02*
X030401Y025592D01*
X030309Y025475D02*
X035829Y025475D01*
X035829Y025358D02*
X030192Y025358D01*
X030284Y025450D02*
X030284Y025450D01*
X030076Y025242D02*
X035829Y025242D01*
X035829Y025125D02*
X029959Y025125D01*
X029842Y025008D02*
X035829Y025008D01*
X035829Y024892D02*
X029726Y024892D01*
X029609Y024775D02*
X035829Y024775D01*
X035829Y024659D02*
X029492Y024659D01*
X029376Y024542D02*
X035829Y024542D01*
X035829Y024425D02*
X029259Y024425D01*
X029143Y024309D02*
X035829Y024309D01*
X035829Y024192D02*
X029026Y024192D01*
X028909Y024075D02*
X035829Y024075D01*
X035829Y023959D02*
X028793Y023959D01*
X028676Y023842D02*
X035829Y023842D01*
X035829Y023725D02*
X028559Y023725D01*
X028443Y023609D02*
X035829Y023609D01*
X035829Y023492D02*
X028326Y023492D01*
X028209Y023375D02*
X035829Y023375D01*
X035829Y023259D02*
X028093Y023259D01*
X027976Y023142D02*
X035829Y023142D01*
X035829Y023025D02*
X027859Y023025D01*
X027743Y022909D02*
X035829Y022909D01*
X035829Y022792D02*
X027626Y022792D01*
X027509Y022675D02*
X035829Y022675D01*
X035829Y022559D02*
X027393Y022559D01*
X027276Y022442D02*
X035829Y022442D01*
X035829Y022325D02*
X027159Y022325D01*
X027043Y022209D02*
X035829Y022209D01*
X035829Y022092D02*
X026926Y022092D01*
X026809Y021975D02*
X035829Y021975D01*
X035829Y021859D02*
X026693Y021859D01*
X026576Y021742D02*
X035829Y021742D01*
X035829Y021626D02*
X026501Y021626D01*
X026519Y021509D02*
X026945Y021509D01*
X026795Y021392D02*
X026570Y021392D01*
X026570Y021276D02*
X026732Y021276D01*
X026705Y021159D02*
X026570Y021159D01*
X026570Y021042D02*
X026705Y021042D01*
X026753Y020926D02*
X026570Y020926D01*
X026570Y020809D02*
X026846Y020809D01*
X026921Y020692D02*
X022562Y020692D01*
X022678Y020809D02*
X025721Y020809D01*
X025721Y020926D02*
X022795Y020926D01*
X022912Y021042D02*
X025721Y021042D01*
X025721Y021159D02*
X023028Y021159D01*
X023145Y021276D02*
X025721Y021276D01*
X025721Y021392D02*
X023262Y021392D01*
X023378Y021509D02*
X025772Y021509D01*
X025790Y021626D02*
X023495Y021626D01*
X023611Y021742D02*
X025790Y021742D01*
X025790Y021859D02*
X023696Y021859D01*
X023696Y021975D02*
X025827Y021975D01*
X025920Y022092D02*
X023696Y022092D01*
X023696Y022209D02*
X026036Y022209D01*
X026153Y022325D02*
X023696Y022325D01*
X023696Y022442D02*
X026270Y022442D01*
X026386Y022559D02*
X023696Y022559D01*
X023696Y022675D02*
X026503Y022675D01*
X026619Y022792D02*
X023696Y022792D01*
X023696Y022909D02*
X026736Y022909D01*
X026853Y023025D02*
X023696Y023025D01*
X023696Y023142D02*
X026969Y023142D01*
X027086Y023259D02*
X023696Y023259D01*
X023696Y023375D02*
X027203Y023375D01*
X027319Y023492D02*
X023696Y023492D01*
X023696Y023609D02*
X027436Y023609D01*
X027553Y023725D02*
X023696Y023725D01*
X023696Y023842D02*
X027669Y023842D01*
X027786Y023959D02*
X023696Y023959D01*
X023696Y024075D02*
X027903Y024075D01*
X028019Y024192D02*
X023696Y024192D01*
X023696Y024309D02*
X028136Y024309D01*
X028253Y024425D02*
X023696Y024425D01*
X023696Y024542D02*
X028369Y024542D01*
X028486Y024659D02*
X023696Y024659D01*
X023696Y024775D02*
X028603Y024775D01*
X028719Y024892D02*
X023658Y024892D01*
X023542Y025008D02*
X028836Y025008D01*
X028953Y025125D02*
X023425Y025125D01*
X023308Y025242D02*
X029069Y025242D01*
X029186Y025358D02*
X023192Y025358D01*
X023075Y025475D02*
X029303Y025475D01*
X029419Y025592D02*
X022958Y025592D01*
X022842Y025708D02*
X029536Y025708D01*
X029652Y025825D02*
X022725Y025825D01*
X022608Y025942D02*
X029727Y025942D01*
X029727Y026058D02*
X022492Y026058D01*
X022375Y026175D02*
X029727Y026175D01*
X029727Y026292D02*
X022258Y026292D01*
X022142Y026408D02*
X029727Y026408D01*
X029727Y026525D02*
X022027Y026525D01*
X022027Y026642D02*
X025779Y026642D01*
X025814Y026607D02*
X026477Y026607D01*
X026570Y026700D01*
X026570Y027363D01*
X026477Y027456D01*
X025814Y027456D01*
X025721Y027363D01*
X025721Y026700D01*
X025814Y026607D01*
X025721Y026758D02*
X022027Y026758D01*
X022001Y026875D02*
X025721Y026875D01*
X025721Y026992D02*
X021432Y026992D01*
X021508Y027108D02*
X025721Y027108D01*
X025721Y027225D02*
X021532Y027225D01*
X021510Y027342D02*
X025721Y027342D01*
X026570Y027342D02*
X026839Y027342D01*
X026889Y027391D02*
X026770Y027272D01*
X026705Y027116D01*
X026705Y026947D01*
X026770Y026791D01*
X026889Y026671D01*
X027045Y026607D01*
X027214Y026607D01*
X027370Y026671D01*
X027490Y026791D01*
X027555Y026947D01*
X027555Y027116D01*
X027490Y027272D01*
X027370Y027391D01*
X027214Y027456D01*
X027045Y027456D01*
X026889Y027391D01*
X026750Y027225D02*
X026570Y027225D01*
X026570Y027108D02*
X026705Y027108D01*
X026705Y026992D02*
X026570Y026992D01*
X026570Y026875D02*
X026735Y026875D01*
X026802Y026758D02*
X026570Y026758D01*
X026512Y026642D02*
X026961Y026642D01*
X027299Y026642D02*
X027945Y026642D01*
X027873Y026671D02*
X028029Y026607D01*
X028199Y026607D01*
X028355Y026671D01*
X028474Y026791D01*
X028539Y026947D01*
X028539Y027116D01*
X028474Y027272D01*
X028355Y027391D01*
X028199Y027456D01*
X028029Y027456D01*
X027873Y027391D01*
X027754Y027272D01*
X027689Y027116D01*
X027689Y026947D01*
X027754Y026791D01*
X027873Y026671D01*
X027786Y026758D02*
X027457Y026758D01*
X027525Y026875D02*
X027719Y026875D01*
X027689Y026992D02*
X027555Y026992D01*
X027555Y027108D02*
X027689Y027108D01*
X027734Y027225D02*
X027509Y027225D01*
X027420Y027342D02*
X027824Y027342D01*
X028404Y027342D02*
X029727Y027342D01*
X029727Y027458D02*
X021429Y027458D01*
X021019Y027458D02*
X016926Y027458D01*
X016809Y027342D02*
X020938Y027342D01*
X020916Y027225D02*
X016693Y027225D01*
X016454Y027575D02*
X010163Y027575D01*
X010163Y027691D02*
X016570Y027691D01*
X016687Y027808D02*
X011809Y027808D01*
X011974Y027925D02*
X016770Y027925D01*
X016770Y028041D02*
X014456Y028041D01*
X014409Y028022D02*
X014627Y028112D01*
X014793Y028279D01*
X014883Y028496D01*
X014883Y028732D01*
X014793Y028949D01*
X014627Y029116D01*
X014409Y029206D01*
X014173Y029206D01*
X013956Y029116D01*
X013789Y028949D01*
X013699Y028732D01*
X013699Y028496D01*
X013789Y028279D01*
X013956Y028112D01*
X014173Y028022D01*
X014409Y028022D01*
X014126Y028041D02*
X012091Y028041D01*
X012208Y028158D02*
X013910Y028158D01*
X013793Y028275D02*
X012324Y028275D01*
X012441Y028391D02*
X013742Y028391D01*
X013699Y028508D02*
X012557Y028508D01*
X012674Y028625D02*
X013699Y028625D01*
X013703Y028741D02*
X012791Y028741D01*
X012907Y028858D02*
X013751Y028858D01*
X013814Y028975D02*
X013024Y028975D01*
X013141Y029091D02*
X013931Y029091D01*
X013491Y029441D02*
X029727Y029441D01*
X029727Y029325D02*
X013374Y029325D01*
X013257Y029208D02*
X029727Y029208D01*
X029727Y029091D02*
X022525Y029091D01*
X022501Y029116D02*
X022283Y029206D01*
X022047Y029206D01*
X021830Y029116D01*
X021663Y028949D01*
X021573Y028732D01*
X021573Y028496D01*
X021663Y028279D01*
X021830Y028112D01*
X022047Y028022D01*
X022283Y028022D01*
X022501Y028112D01*
X022667Y028279D01*
X022757Y028496D01*
X022757Y028732D01*
X022667Y028949D01*
X022501Y029116D01*
X022642Y028975D02*
X029727Y028975D01*
X029727Y028858D02*
X022705Y028858D01*
X022753Y028741D02*
X029727Y028741D01*
X029727Y028625D02*
X022757Y028625D01*
X022757Y028508D02*
X029727Y028508D01*
X029727Y028391D02*
X022714Y028391D01*
X022663Y028275D02*
X029727Y028275D01*
X029727Y028158D02*
X022547Y028158D01*
X022330Y028041D02*
X029727Y028041D01*
X029727Y027925D02*
X017186Y027925D01*
X017186Y028041D02*
X022000Y028041D01*
X021784Y028158D02*
X017186Y028158D01*
X017186Y028275D02*
X017316Y028275D01*
X017641Y028275D02*
X017816Y028275D01*
X018141Y028275D02*
X018316Y028275D01*
X018641Y028275D02*
X018816Y028275D01*
X019141Y028275D02*
X019316Y028275D01*
X019641Y028275D02*
X019816Y028275D01*
X020141Y028275D02*
X020316Y028275D01*
X020641Y028275D02*
X021667Y028275D01*
X021616Y028391D02*
X020787Y028391D01*
X020841Y028508D02*
X021573Y028508D01*
X021573Y028625D02*
X020854Y028625D01*
X020832Y028741D02*
X021577Y028741D01*
X021625Y028858D02*
X020765Y028858D01*
X020589Y028975D02*
X021689Y028975D01*
X021805Y029091D02*
X014651Y029091D01*
X014768Y028975D02*
X015681Y028975D01*
X015603Y028858D02*
X014831Y028858D01*
X014879Y028741D02*
X015603Y028741D01*
X015603Y028625D02*
X014883Y028625D01*
X014883Y028508D02*
X015603Y028508D01*
X015603Y028391D02*
X014840Y028391D01*
X014789Y028275D02*
X015659Y028275D01*
X016297Y028275D02*
X016316Y028275D01*
X016641Y028275D02*
X016770Y028275D01*
X016770Y028158D02*
X014673Y028158D01*
X015440Y026899D02*
X015353Y026812D01*
X015306Y026699D01*
X015306Y026576D01*
X015353Y026463D01*
X015440Y026377D01*
X015553Y026330D01*
X015627Y026330D01*
X017670Y024288D01*
X017791Y024166D01*
X018635Y024166D01*
X018688Y024113D01*
X018801Y024066D01*
X018923Y024066D01*
X019036Y024113D01*
X019123Y024199D01*
X019170Y024313D01*
X019170Y024435D01*
X019123Y024548D01*
X019036Y024635D01*
X018923Y024682D01*
X018801Y024682D01*
X018688Y024635D01*
X018635Y024582D01*
X017964Y024582D01*
X015922Y026624D01*
X015922Y026699D01*
X015875Y026812D01*
X015788Y026899D01*
X015675Y026945D01*
X015553Y026945D01*
X015440Y026899D01*
X015416Y026875D02*
X012012Y026875D01*
X012129Y026992D02*
X021016Y026992D01*
X020941Y027108D02*
X012245Y027108D01*
X012006Y027458D02*
X010163Y027458D01*
X010163Y027342D02*
X011890Y027342D01*
X011773Y027225D02*
X010163Y027225D01*
X010163Y027108D02*
X011656Y027108D01*
X011540Y026992D02*
X010163Y026992D01*
X010163Y026875D02*
X011423Y026875D01*
X011306Y026758D02*
X010163Y026758D01*
X010163Y026642D02*
X011190Y026642D01*
X011073Y026525D02*
X010163Y026525D01*
X010163Y026408D02*
X010956Y026408D01*
X010840Y026292D02*
X010163Y026292D01*
X010163Y026175D02*
X010723Y026175D01*
X010606Y026058D02*
X010163Y026058D01*
X010163Y025942D02*
X010490Y025942D01*
X010386Y025825D02*
X010163Y025825D01*
X010163Y025708D02*
X010386Y025708D01*
X010386Y025592D02*
X010163Y025592D01*
X010163Y025475D02*
X010386Y025475D01*
X010386Y025358D02*
X010163Y025358D01*
X010163Y025242D02*
X010386Y025242D01*
X010386Y025125D02*
X010163Y025125D01*
X010163Y025008D02*
X010386Y025008D01*
X010386Y024892D02*
X010163Y024892D01*
X010163Y024775D02*
X010386Y024775D01*
X010386Y024659D02*
X010163Y024659D01*
X010163Y024542D02*
X010271Y024542D01*
X010154Y024425D02*
X010132Y024425D01*
X009921Y024192D02*
X005404Y024192D01*
X004577Y023375D02*
X004182Y023375D01*
X004065Y023259D02*
X004460Y023259D01*
X004344Y023142D02*
X003948Y023142D01*
X003832Y023025D02*
X004227Y023025D01*
X004110Y022909D02*
X003715Y022909D01*
X003598Y022792D02*
X003994Y022792D01*
X003877Y022675D02*
X003482Y022675D01*
X003365Y022559D02*
X003760Y022559D01*
X003644Y022442D02*
X003248Y022442D01*
X003132Y022325D02*
X003527Y022325D01*
X003410Y022209D02*
X003015Y022209D01*
X002898Y022092D02*
X003294Y022092D01*
X003177Y021975D02*
X002782Y021975D01*
X002665Y021859D02*
X003060Y021859D01*
X002944Y021742D02*
X002549Y021742D01*
X002432Y021626D02*
X002827Y021626D01*
X002437Y021509D02*
X002315Y021509D01*
X002288Y021392D02*
X002199Y021392D01*
X002224Y021276D02*
X002082Y021276D01*
X002062Y021159D02*
X002197Y021159D01*
X002197Y021042D02*
X002062Y021042D01*
X002062Y020926D02*
X002245Y020926D01*
X002338Y020809D02*
X002062Y020809D01*
X002906Y020809D02*
X003322Y020809D01*
X003366Y020766D02*
X003246Y020885D01*
X003181Y021041D01*
X003181Y021210D01*
X003246Y021366D01*
X003366Y021486D01*
X003522Y021551D01*
X003691Y021551D01*
X003847Y021486D01*
X003966Y021366D01*
X004031Y021210D01*
X004031Y021041D01*
X003966Y020885D01*
X003847Y020766D01*
X003691Y020701D01*
X003522Y020701D01*
X003366Y020766D01*
X003229Y020926D02*
X002999Y020926D01*
X003047Y021042D02*
X003181Y021042D01*
X003181Y021159D02*
X003047Y021159D01*
X003066Y021276D02*
X003208Y021276D01*
X003183Y021392D02*
X003272Y021392D01*
X003299Y021509D02*
X003421Y021509D01*
X003416Y021626D02*
X009410Y021626D01*
X009526Y021742D02*
X003533Y021742D01*
X003649Y021859D02*
X009696Y021859D01*
X009918Y021859D02*
X015219Y021859D01*
X015219Y021854D02*
X015535Y021854D01*
X015535Y022190D01*
X015357Y022190D01*
X015316Y022180D01*
X015280Y022159D01*
X015251Y022129D01*
X015230Y022093D01*
X015219Y022052D01*
X015219Y021854D01*
X015219Y021742D02*
X010088Y021742D01*
X010875Y021509D02*
X011605Y021509D01*
X011432Y021392D02*
X011048Y021392D01*
X011117Y021276D02*
X011363Y021276D01*
X011337Y021159D02*
X011143Y021159D01*
X011138Y021042D02*
X011342Y021042D01*
X011390Y020926D02*
X011089Y020926D01*
X010982Y020809D02*
X011498Y020809D01*
X011535Y020692D02*
X010945Y020692D01*
X011078Y020576D02*
X011402Y020576D01*
X011351Y020459D02*
X011129Y020459D01*
X011143Y020342D02*
X011337Y020342D01*
X011270Y020226D02*
X011126Y020226D01*
X011911Y019992D02*
X015221Y019992D01*
X015219Y020109D02*
X012054Y020109D01*
X012110Y020226D02*
X015535Y020226D01*
X015535Y020342D02*
X015614Y020342D01*
X015614Y020459D02*
X015535Y020459D01*
X015535Y020576D02*
X015614Y020576D01*
X015877Y020576D02*
X015941Y020576D01*
X015614Y020109D02*
X015535Y020109D01*
X015535Y019992D02*
X015614Y019992D01*
X015614Y019876D02*
X015535Y019876D01*
X015316Y019876D02*
X011974Y019876D01*
X012127Y020342D02*
X015219Y020342D01*
X015219Y020459D02*
X012113Y020459D01*
X012062Y020576D02*
X015272Y020576D01*
X015834Y019876D02*
X015970Y019876D01*
X017370Y018593D02*
X012086Y018593D01*
X012101Y018126D02*
X017391Y018126D01*
X018578Y018009D02*
X019392Y018009D01*
X019392Y017893D02*
X018578Y017893D01*
X018578Y017776D02*
X019392Y017776D01*
X019392Y017659D02*
X018578Y017659D01*
X018578Y017543D02*
X019392Y017543D01*
X019392Y017426D02*
X018578Y017426D01*
X018578Y017309D02*
X019392Y017309D01*
X019449Y017193D02*
X018578Y017193D01*
X018578Y017076D02*
X019566Y017076D01*
X019683Y016959D02*
X018578Y016959D01*
X018578Y016843D02*
X019799Y016843D01*
X019916Y016726D02*
X018578Y016726D01*
X018578Y016609D02*
X020033Y016609D01*
X020149Y016493D02*
X018578Y016493D01*
X018578Y016376D02*
X020266Y016376D01*
X020383Y016259D02*
X018578Y016259D01*
X018578Y016143D02*
X020499Y016143D01*
X020616Y016026D02*
X018578Y016026D01*
X018578Y015909D02*
X020733Y015909D01*
X020849Y015793D02*
X018578Y015793D01*
X018578Y015676D02*
X020966Y015676D01*
X021083Y015560D02*
X018578Y015560D01*
X018578Y015443D02*
X021199Y015443D01*
X022036Y016376D02*
X022038Y016376D01*
X022153Y016259D02*
X022154Y016259D01*
X022269Y016143D02*
X022271Y016143D01*
X022386Y016026D02*
X022388Y016026D01*
X022503Y015909D02*
X022504Y015909D01*
X022619Y015793D02*
X022621Y015793D01*
X022736Y015676D02*
X022738Y015676D01*
X022853Y015560D02*
X022854Y015560D01*
X022969Y015443D02*
X022971Y015443D01*
X023086Y015326D02*
X023088Y015326D01*
X023203Y015210D02*
X023204Y015210D01*
X023319Y015093D02*
X023321Y015093D01*
X023436Y014976D02*
X023438Y014976D01*
X023553Y014860D02*
X023554Y014860D01*
X023669Y014743D02*
X023671Y014743D01*
X023786Y014626D02*
X023787Y014626D01*
X023903Y014510D02*
X023904Y014510D01*
X024019Y014393D02*
X024021Y014393D01*
X024136Y014276D02*
X024137Y014276D01*
X023210Y015793D02*
X035829Y015793D01*
X035829Y015909D02*
X023093Y015909D01*
X022977Y016026D02*
X035829Y016026D01*
X035829Y016143D02*
X022860Y016143D01*
X022743Y016259D02*
X035829Y016259D01*
X035829Y016376D02*
X022627Y016376D01*
X022510Y016493D02*
X035829Y016493D01*
X035829Y016609D02*
X022393Y016609D01*
X022277Y016726D02*
X035829Y016726D01*
X035829Y016843D02*
X022160Y016843D01*
X022043Y016959D02*
X035829Y016959D01*
X035829Y017076D02*
X021927Y017076D01*
X021810Y017193D02*
X035829Y017193D01*
X035829Y017309D02*
X021694Y017309D01*
X021577Y017426D02*
X035829Y017426D01*
X035829Y017543D02*
X021460Y017543D01*
X021344Y017659D02*
X035829Y017659D01*
X035829Y017776D02*
X031850Y017776D01*
X031967Y017893D02*
X035829Y017893D01*
X035829Y018009D02*
X032083Y018009D01*
X032200Y018126D02*
X035829Y018126D01*
X035829Y018243D02*
X032317Y018243D01*
X032433Y018359D02*
X035829Y018359D01*
X035829Y018476D02*
X032550Y018476D01*
X032667Y018593D02*
X035829Y018593D01*
X035829Y018709D02*
X032783Y018709D01*
X032900Y018826D02*
X035829Y018826D01*
X035829Y018942D02*
X033017Y018942D01*
X033047Y019059D02*
X035829Y019059D01*
X035829Y019176D02*
X033047Y019176D01*
X033047Y019292D02*
X035829Y019292D01*
X035829Y019409D02*
X033047Y019409D01*
X033047Y019526D02*
X035829Y019526D01*
X035829Y019642D02*
X033047Y019642D01*
X033047Y019759D02*
X035829Y019759D01*
X035829Y019876D02*
X033047Y019876D01*
X033047Y019992D02*
X035829Y019992D01*
X035829Y020109D02*
X033047Y020109D01*
X033047Y020226D02*
X035829Y020226D01*
X035829Y020342D02*
X033047Y020342D01*
X033047Y020459D02*
X035829Y020459D01*
X035829Y020576D02*
X033047Y020576D01*
X033047Y020692D02*
X035829Y020692D01*
X035829Y020809D02*
X034106Y020809D01*
X034063Y020766D02*
X034183Y020885D01*
X034247Y021041D01*
X034247Y021210D01*
X034183Y021366D01*
X034063Y021486D01*
X033907Y021551D01*
X033738Y021551D01*
X033582Y021486D01*
X033463Y021366D01*
X033398Y021210D01*
X033398Y021041D01*
X033463Y020885D01*
X033582Y020766D01*
X033738Y020701D01*
X033907Y020701D01*
X034063Y020766D01*
X034199Y020926D02*
X035829Y020926D01*
X035829Y021042D02*
X034247Y021042D01*
X034247Y021159D02*
X035829Y021159D01*
X035829Y021276D02*
X034220Y021276D01*
X034157Y021392D02*
X035829Y021392D01*
X035829Y021509D02*
X034008Y021509D01*
X033637Y021509D02*
X033024Y021509D01*
X033173Y021392D02*
X033488Y021392D01*
X033425Y021276D02*
X033236Y021276D01*
X033263Y021159D02*
X033398Y021159D01*
X033398Y021042D02*
X033263Y021042D01*
X033215Y020926D02*
X033446Y020926D01*
X033539Y020809D02*
X033122Y020809D01*
X032630Y020692D02*
X032062Y020692D01*
X032062Y020576D02*
X032630Y020576D01*
X032630Y020459D02*
X032062Y020459D01*
X032062Y020342D02*
X032630Y020342D01*
X032630Y020226D02*
X032062Y020226D01*
X032062Y020109D02*
X032630Y020109D01*
X032630Y019992D02*
X032062Y019992D01*
X032062Y019876D02*
X032630Y019876D01*
X032630Y019759D02*
X032062Y019759D01*
X032062Y019642D02*
X032630Y019642D01*
X032630Y019526D02*
X032062Y019526D01*
X032062Y019409D02*
X032630Y019409D01*
X032630Y019292D02*
X032062Y019292D01*
X032062Y019176D02*
X032630Y019176D01*
X032544Y019059D02*
X032062Y019059D01*
X032032Y018942D02*
X032427Y018942D01*
X032311Y018826D02*
X031916Y018826D01*
X031799Y018709D02*
X032194Y018709D01*
X032078Y018593D02*
X031682Y018593D01*
X031566Y018476D02*
X031961Y018476D01*
X031844Y018359D02*
X031449Y018359D01*
X031332Y018243D02*
X031728Y018243D01*
X031611Y018126D02*
X031216Y018126D01*
X031093Y018593D02*
X025661Y018593D01*
X025666Y018709D02*
X031210Y018709D01*
X031327Y018826D02*
X025625Y018826D01*
X026478Y019292D02*
X021866Y019292D01*
X021647Y019531D02*
X022090Y019531D01*
X022405Y019846D01*
X022637Y019642D02*
X026828Y019642D01*
X026921Y019759D02*
X022702Y019759D01*
X022713Y019876D02*
X026921Y019876D01*
X026921Y019992D02*
X022678Y019992D01*
X022575Y020109D02*
X026921Y020109D01*
X026921Y020226D02*
X019930Y020226D01*
X019813Y020109D02*
X022235Y020109D01*
X022133Y019992D02*
X021785Y019992D01*
X021866Y019876D02*
X022098Y019876D01*
X022010Y019759D02*
X021866Y019759D01*
X022212Y020342D02*
X026921Y020342D01*
X026921Y020459D02*
X022328Y020459D01*
X022445Y020576D02*
X026921Y020576D01*
X027338Y020576D02*
X031646Y020576D01*
X031646Y020692D02*
X027338Y020692D01*
X027414Y020809D02*
X027830Y020809D01*
X027873Y020766D02*
X027754Y020885D01*
X027689Y021041D01*
X027689Y021210D01*
X027754Y021366D01*
X027873Y021486D01*
X028029Y021551D01*
X028199Y021551D01*
X028355Y021486D01*
X028474Y021366D01*
X028539Y021210D01*
X028539Y021041D01*
X028474Y020885D01*
X028355Y020766D01*
X028199Y020701D01*
X028029Y020701D01*
X027873Y020766D01*
X027737Y020926D02*
X027507Y020926D01*
X027555Y021042D02*
X027689Y021042D01*
X027689Y021159D02*
X027555Y021159D01*
X027528Y021276D02*
X027716Y021276D01*
X027780Y021392D02*
X027464Y021392D01*
X027315Y021509D02*
X027929Y021509D01*
X028299Y021509D02*
X028913Y021509D01*
X028858Y021486D02*
X029014Y021551D01*
X029183Y021551D01*
X029339Y021486D01*
X029458Y021366D01*
X029523Y021210D01*
X029523Y021041D01*
X029458Y020885D01*
X029339Y020766D01*
X029183Y020701D01*
X029014Y020701D01*
X028858Y020766D01*
X028738Y020885D01*
X028673Y021041D01*
X028673Y021210D01*
X028738Y021366D01*
X028858Y021486D01*
X028764Y021392D02*
X028448Y021392D01*
X028512Y021276D02*
X028701Y021276D01*
X028673Y021159D02*
X028539Y021159D01*
X028539Y021042D02*
X028673Y021042D01*
X028721Y020926D02*
X028491Y020926D01*
X028398Y020809D02*
X028814Y020809D01*
X029382Y020809D02*
X031429Y020809D01*
X031429Y020926D02*
X029475Y020926D01*
X029523Y021042D02*
X031429Y021042D01*
X031429Y021159D02*
X029523Y021159D01*
X029496Y021276D02*
X031429Y021276D01*
X031429Y021392D02*
X029433Y021392D01*
X029284Y021509D02*
X031481Y021509D01*
X032228Y021509D02*
X032653Y021509D01*
X032504Y021392D02*
X032279Y021392D01*
X032279Y021276D02*
X032441Y021276D01*
X032414Y021159D02*
X032279Y021159D01*
X032279Y021042D02*
X032414Y021042D01*
X032462Y020926D02*
X032279Y020926D01*
X032279Y020809D02*
X032555Y020809D01*
X031646Y020459D02*
X027338Y020459D01*
X027338Y020342D02*
X031646Y020342D01*
X031646Y020226D02*
X027338Y020226D01*
X027338Y020109D02*
X031646Y020109D01*
X031646Y019992D02*
X027338Y019992D01*
X027338Y019876D02*
X031646Y019876D01*
X031646Y019759D02*
X027338Y019759D01*
X027338Y019642D02*
X031646Y019642D01*
X031646Y019526D02*
X027301Y019526D01*
X027184Y019409D02*
X031646Y019409D01*
X031646Y019292D02*
X027067Y019292D01*
X026951Y019176D02*
X031646Y019176D01*
X031560Y019059D02*
X026834Y019059D01*
X026717Y018942D02*
X031443Y018942D01*
X026712Y019526D02*
X022393Y019526D01*
X022277Y019409D02*
X026595Y019409D01*
X021920Y016493D02*
X021921Y016493D01*
X021804Y016609D02*
X021803Y016609D01*
X021688Y016726D02*
X021686Y016726D01*
X021570Y016843D02*
X021571Y016843D01*
X021454Y016959D02*
X021453Y016959D01*
X021338Y017076D02*
X021336Y017076D01*
X021220Y017193D02*
X021221Y017193D01*
X021104Y017309D02*
X021103Y017309D01*
X020988Y017426D02*
X020986Y017426D01*
X020870Y017543D02*
X020871Y017543D01*
X020754Y017659D02*
X020753Y017659D01*
X020638Y017776D02*
X020636Y017776D01*
X020520Y017893D02*
X020521Y017893D01*
X020405Y018009D02*
X020403Y018009D01*
X020644Y018359D02*
X020645Y018359D01*
X020760Y018243D02*
X020762Y018243D01*
X020877Y018126D02*
X020878Y018126D01*
X020994Y018009D02*
X020995Y018009D01*
X021110Y017893D02*
X021112Y017893D01*
X021227Y017776D02*
X021228Y017776D01*
X019392Y018126D02*
X018955Y018126D01*
X019044Y018243D02*
X019392Y018243D01*
X019392Y018359D02*
X019071Y018359D01*
X019053Y018476D02*
X019392Y018476D01*
X019392Y018593D02*
X019041Y018593D01*
X019041Y018709D02*
X019392Y018709D01*
X019392Y018826D02*
X019041Y018826D01*
X019041Y018942D02*
X019392Y018942D01*
X019218Y019059D02*
X019215Y019059D01*
X018466Y020926D02*
X018431Y020926D01*
X018431Y021042D02*
X018582Y021042D01*
X018699Y021159D02*
X018431Y021159D01*
X018431Y021276D02*
X018707Y021276D01*
X018616Y021392D02*
X018407Y021392D01*
X018428Y021509D02*
X018614Y021509D01*
X018614Y021626D02*
X018431Y021626D01*
X018614Y021736D02*
X018832Y021736D01*
X018832Y021736D01*
X018614Y021736D01*
X018614Y021742D02*
X018114Y021742D01*
X018035Y021742D02*
X016600Y021742D01*
X016600Y021626D02*
X017719Y021626D01*
X017721Y021509D02*
X016576Y021509D01*
X016600Y021859D02*
X017719Y021859D01*
X017719Y021795D02*
X018035Y021795D01*
X018035Y022131D01*
X017857Y022131D01*
X017816Y022120D01*
X017780Y022100D01*
X017751Y022070D01*
X017730Y022034D01*
X017719Y021993D01*
X017719Y021795D01*
X017719Y021975D02*
X016699Y021975D01*
X016816Y022092D02*
X017773Y022092D01*
X018035Y022092D02*
X018114Y022092D01*
X018114Y021975D02*
X018035Y021975D01*
X018035Y021859D02*
X018114Y021859D01*
X018431Y021859D02*
X018614Y021859D01*
X018614Y021975D02*
X018431Y021975D01*
X018377Y022092D02*
X018620Y022092D01*
X020315Y023609D02*
X020671Y023609D01*
X020671Y023725D02*
X020199Y023725D01*
X020432Y023492D02*
X020671Y023492D01*
X020671Y023375D02*
X020549Y023375D01*
X020665Y023259D02*
X020671Y023259D01*
X020671Y023842D02*
X016973Y023842D01*
X017004Y023959D02*
X020671Y023959D01*
X020671Y024075D02*
X018945Y024075D01*
X018779Y024075D02*
X017424Y024075D01*
X017487Y024192D02*
X017765Y024192D01*
X017649Y024309D02*
X017497Y024309D01*
X017460Y024425D02*
X017532Y024425D01*
X017415Y024542D02*
X017350Y024542D01*
X017299Y024659D02*
X017100Y024659D01*
X017182Y024775D02*
X016984Y024775D01*
X017065Y024892D02*
X016178Y024892D01*
X016061Y025008D02*
X016949Y025008D01*
X016832Y025125D02*
X015945Y025125D01*
X015828Y025242D02*
X016715Y025242D01*
X016599Y025358D02*
X015711Y025358D01*
X015595Y025475D02*
X016482Y025475D01*
X016365Y025592D02*
X015478Y025592D01*
X015430Y025708D02*
X016249Y025708D01*
X016132Y025825D02*
X015384Y025825D01*
X015230Y025942D02*
X016015Y025942D01*
X015899Y026058D02*
X011195Y026058D01*
X011079Y025942D02*
X014029Y025942D01*
X013876Y025825D02*
X010962Y025825D01*
X010845Y025708D02*
X013830Y025708D01*
X013830Y025592D02*
X010803Y025592D01*
X010803Y025475D02*
X013881Y025475D01*
X014045Y025358D02*
X010803Y025358D01*
X010803Y025242D02*
X014255Y025242D01*
X014371Y025125D02*
X010803Y025125D01*
X010803Y025008D02*
X014488Y025008D01*
X014605Y024892D02*
X010803Y024892D01*
X010803Y024775D02*
X014721Y024775D01*
X014838Y024659D02*
X010803Y024659D01*
X010803Y024542D02*
X014955Y024542D01*
X015071Y024425D02*
X010743Y024425D01*
X010627Y024309D02*
X015188Y024309D01*
X015305Y024192D02*
X010510Y024192D01*
X010393Y024075D02*
X015421Y024075D01*
X015538Y023959D02*
X010277Y023959D01*
X010160Y023842D02*
X015655Y023842D01*
X015894Y024192D02*
X016473Y024192D01*
X016744Y024425D02*
X015660Y024425D01*
X015544Y024542D02*
X015939Y024542D01*
X015822Y024659D02*
X015427Y024659D01*
X015310Y024775D02*
X015706Y024775D01*
X015589Y024892D02*
X015194Y024892D01*
X015077Y025008D02*
X015472Y025008D01*
X015356Y025125D02*
X014960Y025125D01*
X014844Y025242D02*
X015239Y025242D01*
X015030Y025358D02*
X014727Y025358D01*
X014610Y025475D02*
X014865Y025475D01*
X014814Y025592D02*
X014494Y025592D01*
X014445Y025708D02*
X014814Y025708D01*
X014860Y025825D02*
X014400Y025825D01*
X014246Y025942D02*
X015014Y025942D01*
X015408Y026408D02*
X011545Y026408D01*
X011429Y026292D02*
X015665Y026292D01*
X015782Y026175D02*
X011312Y026175D01*
X011662Y026525D02*
X015327Y026525D01*
X015306Y026642D02*
X011779Y026642D01*
X011895Y026758D02*
X015331Y026758D01*
X015812Y026875D02*
X019660Y026875D01*
X019634Y026758D02*
X015897Y026758D01*
X015922Y026642D02*
X019634Y026642D01*
X019439Y026525D02*
X016021Y026525D01*
X016138Y026408D02*
X019322Y026408D01*
X019206Y026292D02*
X016254Y026292D01*
X016371Y026175D02*
X019146Y026175D01*
X019146Y026058D02*
X016488Y026058D01*
X016604Y025942D02*
X019146Y025942D01*
X019146Y025825D02*
X016721Y025825D01*
X016838Y025708D02*
X019201Y025708D01*
X019318Y025592D02*
X016954Y025592D01*
X017071Y025475D02*
X019435Y025475D01*
X019551Y025358D02*
X017188Y025358D01*
X017304Y025242D02*
X019668Y025242D01*
X019785Y025125D02*
X017421Y025125D01*
X017538Y025008D02*
X019901Y025008D01*
X020018Y024892D02*
X017654Y024892D01*
X017771Y024775D02*
X020135Y024775D01*
X020671Y024309D02*
X019168Y024309D01*
X019170Y024425D02*
X020784Y024425D01*
X020901Y024542D02*
X019126Y024542D01*
X018979Y024659D02*
X020927Y024659D01*
X020671Y024192D02*
X019115Y024192D01*
X018745Y024659D02*
X017888Y024659D01*
X016861Y024309D02*
X015777Y024309D01*
X016693Y022559D02*
X014604Y022559D01*
X014642Y022442D02*
X016577Y022442D01*
X016460Y022325D02*
X014634Y022325D01*
X014573Y022209D02*
X016343Y022209D01*
X015912Y021509D02*
X015904Y021509D01*
X015614Y021509D02*
X015535Y021509D01*
X015535Y021626D02*
X015614Y021626D01*
X015614Y021742D02*
X015535Y021742D01*
X015535Y021859D02*
X015614Y021859D01*
X015614Y021975D02*
X015535Y021975D01*
X015535Y022092D02*
X015614Y022092D01*
X015229Y022092D02*
X006942Y022092D01*
X006965Y022209D02*
X007600Y022209D01*
X007538Y022325D02*
X007069Y022325D01*
X007185Y022442D02*
X007531Y022442D01*
X007569Y022559D02*
X007302Y022559D01*
X007063Y022909D02*
X004699Y022909D01*
X004583Y022792D02*
X006946Y022792D01*
X006830Y022675D02*
X004466Y022675D01*
X004349Y022559D02*
X006713Y022559D01*
X006456Y022442D02*
X004233Y022442D01*
X004116Y022325D02*
X006373Y022325D01*
X006350Y022209D02*
X003999Y022209D01*
X003883Y022092D02*
X006372Y022092D01*
X006455Y021975D02*
X003766Y021975D01*
X003791Y021509D02*
X009293Y021509D01*
X009176Y021392D02*
X003940Y021392D01*
X004004Y021276D02*
X009060Y021276D01*
X008943Y021159D02*
X004031Y021159D01*
X004031Y021042D02*
X008826Y021042D01*
X008710Y020926D02*
X003983Y020926D01*
X003890Y020809D02*
X008593Y020809D01*
X006860Y021975D02*
X015219Y021975D01*
X020040Y026758D02*
X020047Y026758D01*
X020040Y026875D02*
X020047Y026875D01*
X020426Y026875D02*
X020447Y026875D01*
X020827Y026875D02*
X020834Y026875D01*
X020827Y026758D02*
X020834Y026758D01*
X021614Y026758D02*
X021621Y026758D01*
X021614Y026875D02*
X021621Y026875D01*
X020368Y028975D02*
X020089Y028975D01*
X019868Y028975D02*
X019589Y028975D01*
X019368Y028975D02*
X019089Y028975D01*
X018868Y028975D02*
X018589Y028975D01*
X018368Y028975D02*
X018089Y028975D01*
X017868Y028975D02*
X017589Y028975D01*
X017368Y028975D02*
X017089Y028975D01*
X016868Y028975D02*
X016589Y028975D01*
X016368Y028975D02*
X016275Y028975D01*
X017186Y027808D02*
X029727Y027808D01*
X029727Y027691D02*
X017159Y027691D01*
X017043Y027575D02*
X029727Y027575D01*
X029727Y027225D02*
X028494Y027225D01*
X028539Y027108D02*
X029727Y027108D01*
X029727Y026992D02*
X028539Y026992D01*
X028509Y026875D02*
X029727Y026875D01*
X029727Y026758D02*
X028442Y026758D01*
X028283Y026642D02*
X029727Y026642D01*
X029727Y029558D02*
X013607Y029558D01*
X013724Y029675D02*
X029727Y029675D01*
X029727Y029791D02*
X013841Y029791D01*
X013957Y029908D02*
X029727Y029908D01*
X029727Y030025D02*
X017519Y030025D01*
X017636Y030141D02*
X029727Y030141D01*
X029727Y030258D02*
X017752Y030258D01*
X017869Y030375D02*
X029727Y030375D01*
X029727Y030491D02*
X017985Y030491D01*
X018102Y030608D02*
X029727Y030608D01*
X029727Y030724D02*
X024218Y030724D01*
X024179Y030702D02*
X024413Y030837D01*
X024604Y031028D01*
X024739Y031262D01*
X024808Y031522D01*
X024808Y031792D01*
X024739Y032053D01*
X024604Y032287D01*
X024413Y032478D01*
X024179Y032613D01*
X023918Y032682D01*
X023648Y032682D01*
X023388Y032613D01*
X023154Y032478D01*
X022963Y032287D01*
X022828Y032053D01*
X022758Y031792D01*
X022758Y031522D01*
X022828Y031262D01*
X022963Y031028D01*
X023154Y030837D01*
X023388Y030702D01*
X023648Y030632D01*
X023918Y030632D01*
X024179Y030702D01*
X024417Y030841D02*
X029727Y030841D01*
X029727Y030958D02*
X024534Y030958D01*
X024631Y031074D02*
X029727Y031074D01*
X029727Y031191D02*
X024698Y031191D01*
X024751Y031308D02*
X029727Y031308D01*
X029727Y031424D02*
X024782Y031424D01*
X024808Y031541D02*
X029763Y031541D01*
X029855Y031658D02*
X024808Y031658D01*
X024808Y031774D02*
X029972Y031774D01*
X030022Y031891D02*
X024782Y031891D01*
X024751Y032008D02*
X030022Y032008D01*
X030022Y032124D02*
X024697Y032124D01*
X024630Y032241D02*
X030022Y032241D01*
X030022Y032358D02*
X024533Y032358D01*
X024416Y032474D02*
X030022Y032474D01*
X030022Y032591D02*
X024217Y032591D01*
X023350Y032591D02*
X020085Y032591D01*
X019969Y032474D02*
X023150Y032474D01*
X023034Y032358D02*
X019852Y032358D01*
X019735Y032241D02*
X022937Y032241D01*
X022869Y032124D02*
X019619Y032124D01*
X019502Y032008D02*
X022816Y032008D01*
X022785Y031891D02*
X019385Y031891D01*
X019269Y031774D02*
X022758Y031774D01*
X022758Y031658D02*
X019152Y031658D01*
X019035Y031541D02*
X022758Y031541D01*
X022784Y031424D02*
X018919Y031424D01*
X018802Y031308D02*
X022816Y031308D01*
X022869Y031191D02*
X018685Y031191D01*
X018569Y031074D02*
X022936Y031074D01*
X023033Y030958D02*
X018452Y030958D01*
X018335Y030841D02*
X023150Y030841D01*
X023349Y030724D02*
X018219Y030724D01*
X018639Y032708D02*
X009520Y032708D01*
X009637Y032824D02*
X018755Y032824D01*
X018872Y032941D02*
X009651Y032941D01*
X009651Y033058D02*
X018988Y033058D01*
X019105Y033174D02*
X009651Y033174D01*
X009651Y033291D02*
X019222Y033291D01*
X019338Y033408D02*
X009651Y033408D01*
X009651Y033524D02*
X019455Y033524D01*
X020202Y032708D02*
X030069Y032708D01*
X030117Y032824D02*
X020319Y032824D01*
X020435Y032941D02*
X030229Y032941D01*
X030404Y033058D02*
X020552Y033058D01*
X017597Y034691D02*
X035333Y034691D01*
X035174Y034807D02*
X017596Y034807D01*
X017547Y034924D02*
X034972Y034924D01*
X034427Y035041D02*
X017459Y035041D01*
X016816Y035041D02*
X016459Y035041D01*
X016547Y034924D02*
X016728Y034924D01*
X016680Y034807D02*
X016596Y034807D01*
X016597Y034691D02*
X016679Y034691D01*
X016679Y034574D02*
X016597Y034574D01*
X016597Y034457D02*
X016679Y034457D01*
X016679Y034341D02*
X016597Y034341D01*
X016597Y034224D02*
X016679Y034224D01*
X016679Y034107D02*
X016597Y034107D01*
X016584Y033991D02*
X016691Y033991D01*
X016740Y033874D02*
X016535Y033874D01*
X016431Y033757D02*
X016844Y033757D01*
X015844Y033757D02*
X015431Y033757D01*
X015535Y033874D02*
X015740Y033874D01*
X015691Y033991D02*
X015584Y033991D01*
X015597Y034107D02*
X015679Y034107D01*
X015679Y034224D02*
X015597Y034224D01*
X015597Y034341D02*
X015679Y034341D01*
X015679Y034457D02*
X015597Y034457D01*
X015597Y034574D02*
X015679Y034574D01*
X015679Y034691D02*
X015597Y034691D01*
X015596Y034807D02*
X015680Y034807D01*
X015728Y034924D02*
X015547Y034924D01*
X015459Y035041D02*
X015816Y035041D01*
X014816Y035041D02*
X014459Y035041D01*
X014547Y034924D02*
X014728Y034924D01*
X014680Y034807D02*
X014596Y034807D01*
X014597Y034691D02*
X014679Y034691D01*
X014679Y034574D02*
X014597Y034574D01*
X014597Y034457D02*
X014679Y034457D01*
X014679Y034341D02*
X014597Y034341D01*
X014597Y034224D02*
X014679Y034224D01*
X014679Y034107D02*
X014597Y034107D01*
X014584Y033991D02*
X014691Y033991D01*
X014740Y033874D02*
X014535Y033874D01*
X014431Y033757D02*
X014844Y033757D01*
X013844Y033757D02*
X013431Y033757D01*
X013535Y033874D02*
X013740Y033874D01*
X013691Y033991D02*
X013584Y033991D01*
X013597Y034107D02*
X013679Y034107D01*
X013679Y034224D02*
X013597Y034224D01*
X013597Y034341D02*
X013679Y034341D01*
X013679Y034457D02*
X013597Y034457D01*
X013597Y034574D02*
X013679Y034574D01*
X013679Y034691D02*
X013597Y034691D01*
X013596Y034807D02*
X013680Y034807D01*
X013728Y034924D02*
X013547Y034924D01*
X013459Y035041D02*
X013816Y035041D01*
X012816Y035041D02*
X012459Y035041D01*
X012547Y034924D02*
X012728Y034924D01*
X012680Y034807D02*
X012596Y034807D01*
X012597Y034691D02*
X012679Y034691D01*
X012679Y034574D02*
X012597Y034574D01*
X012597Y034457D02*
X012679Y034457D01*
X012679Y034341D02*
X012597Y034341D01*
X012597Y034224D02*
X012679Y034224D01*
X012679Y034107D02*
X012597Y034107D01*
X012584Y033991D02*
X012691Y033991D01*
X012740Y033874D02*
X012535Y033874D01*
X012431Y033757D02*
X012844Y033757D01*
X011844Y033757D02*
X011431Y033757D01*
X011535Y033874D02*
X011740Y033874D01*
X011691Y033991D02*
X011584Y033991D01*
X011597Y034107D02*
X011679Y034107D01*
X011679Y034224D02*
X011597Y034224D01*
X011597Y034341D02*
X011679Y034341D01*
X011679Y034457D02*
X011597Y034457D01*
X011597Y034574D02*
X011679Y034574D01*
X011679Y034691D02*
X011597Y034691D01*
X011596Y034807D02*
X011680Y034807D01*
X011728Y034924D02*
X011547Y034924D01*
X011459Y035041D02*
X011816Y035041D01*
X009451Y027691D02*
X005540Y027691D01*
X005423Y027575D02*
X009451Y027575D01*
X009451Y027458D02*
X005307Y027458D01*
X005190Y027342D02*
X009451Y027342D01*
X009451Y027225D02*
X005073Y027225D01*
X004957Y027108D02*
X009451Y027108D01*
X009451Y026992D02*
X004937Y026992D01*
X005053Y026875D02*
X009451Y026875D01*
X009451Y026758D02*
X005170Y026758D01*
X005287Y026642D02*
X008097Y026642D01*
X008281Y026642D02*
X008884Y026642D01*
X009068Y026642D02*
X009451Y026642D01*
X009451Y026525D02*
X009262Y026525D01*
X009339Y026408D02*
X009451Y026408D01*
X009451Y026292D02*
X009371Y026292D01*
X009371Y026175D02*
X009451Y026175D01*
X009451Y026058D02*
X009324Y026058D01*
X009225Y025942D02*
X009451Y025942D01*
X009451Y025825D02*
X009138Y025825D01*
X009291Y025708D02*
X009451Y025708D01*
X009451Y025592D02*
X009351Y025592D01*
X009371Y025475D02*
X009451Y025475D01*
X009451Y025358D02*
X009360Y025358D01*
X009312Y025242D02*
X009451Y025242D01*
X009451Y025125D02*
X009190Y025125D01*
X009204Y025008D02*
X009451Y025008D01*
X009451Y024892D02*
X009315Y024892D01*
X009363Y024775D02*
X009451Y024775D01*
X009451Y024659D02*
X009371Y024659D01*
X009348Y024542D02*
X009451Y024542D01*
X009482Y024425D02*
X009283Y024425D01*
X009120Y024309D02*
X009566Y024309D01*
X008833Y024309D02*
X008518Y024309D01*
X008584Y024425D02*
X008669Y024425D01*
X008604Y024542D02*
X008584Y024542D01*
X007874Y025708D02*
X004360Y025708D01*
X004466Y025825D02*
X008027Y025825D01*
X008552Y026408D02*
X008613Y026408D01*
X008690Y026525D02*
X008475Y026525D01*
X004992Y025942D02*
X004514Y025942D01*
X004523Y026058D02*
X004863Y026058D01*
X004747Y026175D02*
X004505Y026175D01*
X004454Y026292D02*
X004630Y026292D01*
X004513Y026408D02*
X004336Y026408D01*
X004320Y026525D02*
X004397Y026525D01*
X003664Y030724D02*
X000320Y030724D01*
X000320Y030841D02*
X003465Y030841D01*
X003348Y030958D02*
X000320Y030958D01*
X000320Y031074D02*
X003251Y031074D01*
X003184Y031191D02*
X000320Y031191D01*
X000320Y031308D02*
X003131Y031308D01*
X003099Y031424D02*
X000320Y031424D01*
X000320Y031541D02*
X003073Y031541D01*
X003073Y031658D02*
X000320Y031658D01*
X000320Y031774D02*
X003073Y031774D01*
X003100Y031891D02*
X000320Y031891D01*
X000320Y032008D02*
X003131Y032008D01*
X003184Y032124D02*
X000320Y032124D01*
X000320Y032241D02*
X003251Y032241D01*
X003349Y032358D02*
X000320Y032358D01*
X000320Y032474D02*
X003465Y032474D01*
X018283Y014276D02*
X018298Y014276D01*
X018347Y014160D02*
X018422Y014160D01*
X018464Y014043D02*
X019961Y014043D01*
X020938Y011710D02*
X021192Y011710D01*
X021309Y011593D02*
X021018Y011593D01*
X020534Y011243D02*
X019730Y011243D01*
X019730Y011127D02*
X022464Y011127D01*
X022581Y011010D02*
X019730Y011010D01*
X019662Y010893D02*
X022698Y010893D01*
X022814Y010777D02*
X019730Y010777D01*
X020173Y010660D02*
X022931Y010660D01*
X023048Y010543D02*
X020290Y010543D01*
X020407Y010427D02*
X023164Y010427D01*
X023281Y010310D02*
X020523Y010310D01*
X020640Y010193D02*
X023397Y010193D01*
X023514Y010077D02*
X020757Y010077D01*
X020873Y009960D02*
X023631Y009960D01*
X023747Y009844D02*
X020940Y009844D01*
X020940Y009727D02*
X023864Y009727D01*
X023981Y009610D02*
X021928Y009610D01*
X021958Y009598D02*
X021811Y009659D01*
X021653Y009659D01*
X021506Y009598D01*
X021394Y009486D01*
X021333Y009339D01*
X021333Y008700D01*
X021394Y008553D01*
X021506Y008441D01*
X021653Y008380D01*
X021811Y008380D01*
X021958Y008441D01*
X022070Y008553D01*
X022131Y008700D01*
X022131Y009339D01*
X022070Y009486D01*
X021958Y009598D01*
X022062Y009494D02*
X024097Y009494D01*
X024214Y009377D02*
X022115Y009377D01*
X022131Y009260D02*
X024331Y009260D01*
X024447Y009144D02*
X022131Y009144D01*
X022131Y009027D02*
X024564Y009027D01*
X024681Y008910D02*
X022131Y008910D01*
X022131Y008794D02*
X024038Y008794D01*
X024074Y008829D02*
X020161Y004917D01*
X019908Y004917D01*
X019815Y004824D01*
X019815Y004160D01*
X019908Y004067D01*
X020572Y004067D01*
X020665Y004160D01*
X020665Y004413D01*
X020799Y004548D01*
X020799Y004407D01*
X020864Y004251D01*
X020984Y004132D01*
X021140Y004067D01*
X021309Y004067D01*
X021465Y004132D01*
X021584Y004251D01*
X021649Y004407D01*
X021649Y004576D01*
X021584Y004733D01*
X021465Y004852D01*
X021309Y004917D01*
X021168Y004917D01*
X024577Y008326D01*
X024631Y008457D01*
X024631Y008598D01*
X024577Y008729D01*
X024477Y008829D01*
X024346Y008883D01*
X024205Y008883D01*
X024074Y008829D01*
X023922Y008677D02*
X022122Y008677D01*
X022073Y008560D02*
X023805Y008560D01*
X023688Y008444D02*
X021961Y008444D01*
X021504Y008444D02*
X020961Y008444D01*
X021073Y008560D02*
X021391Y008560D01*
X021343Y008677D02*
X021122Y008677D01*
X021131Y008794D02*
X021333Y008794D01*
X021333Y008910D02*
X021131Y008910D01*
X021131Y009027D02*
X021333Y009027D01*
X021333Y009144D02*
X021131Y009144D01*
X021131Y009260D02*
X021333Y009260D01*
X021349Y009377D02*
X021115Y009377D01*
X021062Y009494D02*
X021402Y009494D01*
X021536Y009610D02*
X020940Y009610D01*
X020524Y009610D02*
X019928Y009610D01*
X019958Y009598D02*
X019811Y009659D01*
X019653Y009659D01*
X019506Y009598D01*
X019394Y009486D01*
X019333Y009339D01*
X019333Y008700D01*
X019394Y008553D01*
X019506Y008441D01*
X019653Y008380D01*
X019811Y008380D01*
X019958Y008441D01*
X020070Y008553D01*
X020131Y008700D01*
X020131Y009339D01*
X020070Y009486D01*
X019958Y009598D01*
X020062Y009494D02*
X020402Y009494D01*
X020349Y009377D02*
X020115Y009377D01*
X020131Y009260D02*
X020333Y009260D01*
X020333Y009144D02*
X020131Y009144D01*
X020131Y009027D02*
X020333Y009027D01*
X020333Y008910D02*
X020131Y008910D01*
X020131Y008794D02*
X020333Y008794D01*
X020343Y008677D02*
X020122Y008677D01*
X020073Y008560D02*
X020391Y008560D01*
X020504Y008444D02*
X019961Y008444D01*
X019504Y008444D02*
X010707Y008444D01*
X010823Y008560D02*
X019391Y008560D01*
X019343Y008677D02*
X010940Y008677D01*
X011057Y008794D02*
X019333Y008794D01*
X019333Y008910D02*
X011173Y008910D01*
X011290Y009027D02*
X019333Y009027D01*
X019333Y009144D02*
X011407Y009144D01*
X011523Y009260D02*
X019333Y009260D01*
X019349Y009377D02*
X011640Y009377D01*
X011757Y009494D02*
X019402Y009494D01*
X019536Y009610D02*
X011873Y009610D01*
X011990Y009727D02*
X020518Y009727D01*
X020401Y009844D02*
X012107Y009844D01*
X012223Y009960D02*
X020284Y009960D01*
X020168Y010077D02*
X012340Y010077D01*
X012456Y010193D02*
X020051Y010193D01*
X019934Y010310D02*
X019730Y010310D01*
X019730Y011360D02*
X020449Y011360D01*
X020424Y011477D02*
X019730Y011477D01*
X017669Y010893D02*
X012574Y010893D01*
X012574Y010777D02*
X017601Y010777D01*
X017601Y010660D02*
X012574Y010660D01*
X012574Y010543D02*
X017601Y010543D01*
X017601Y010427D02*
X012574Y010427D01*
X012573Y010310D02*
X017601Y010310D01*
X017601Y011010D02*
X012574Y011010D01*
X010590Y008327D02*
X023572Y008327D01*
X023455Y008210D02*
X010473Y008210D01*
X010357Y008094D02*
X023338Y008094D01*
X023222Y007977D02*
X010240Y007977D01*
X010123Y007860D02*
X023105Y007860D01*
X022989Y007744D02*
X010007Y007744D01*
X009890Y007627D02*
X022872Y007627D01*
X022755Y007510D02*
X009773Y007510D01*
X009657Y007394D02*
X022639Y007394D01*
X022522Y007277D02*
X009540Y007277D01*
X009424Y007160D02*
X022405Y007160D01*
X022289Y007044D02*
X009307Y007044D01*
X009190Y006927D02*
X022172Y006927D01*
X022055Y006811D02*
X009074Y006811D01*
X008957Y006694D02*
X021939Y006694D01*
X021822Y006577D02*
X008840Y006577D01*
X008724Y006461D02*
X021705Y006461D01*
X021589Y006344D02*
X008607Y006344D01*
X008490Y006227D02*
X021472Y006227D01*
X021355Y006111D02*
X008374Y006111D01*
X008257Y005994D02*
X021239Y005994D01*
X021122Y005877D02*
X008140Y005877D01*
X008024Y005761D02*
X021005Y005761D01*
X020889Y005644D02*
X007907Y005644D01*
X007790Y005527D02*
X011800Y005527D01*
X011823Y005537D02*
X011728Y005498D01*
X011280Y005049D01*
X011276Y005051D01*
X011093Y005051D01*
X010924Y004981D01*
X010795Y004851D01*
X010725Y004682D01*
X010725Y004499D01*
X010795Y004330D01*
X010867Y004257D01*
X010701Y004257D01*
X010463Y004496D01*
X010464Y004499D01*
X010464Y004682D01*
X010394Y004851D01*
X010264Y004981D01*
X010095Y005051D01*
X009912Y005051D01*
X009743Y004981D01*
X009614Y004851D01*
X009544Y004682D01*
X009544Y004499D01*
X009614Y004330D01*
X009743Y004200D01*
X009912Y004130D01*
X010095Y004130D01*
X010099Y004131D01*
X010448Y003782D01*
X010543Y003742D01*
X010646Y003742D01*
X010725Y003742D01*
X010725Y003042D01*
X010818Y002949D01*
X011552Y002949D01*
X011645Y003042D01*
X011645Y003742D01*
X014214Y003742D01*
X014141Y003670D01*
X014071Y003501D01*
X014071Y003318D01*
X014141Y003149D01*
X014271Y003019D01*
X014440Y002949D01*
X014623Y002949D01*
X014792Y003019D01*
X014921Y003149D01*
X014992Y003318D01*
X014992Y003501D01*
X014921Y003670D01*
X014849Y003742D01*
X015173Y003742D01*
X015268Y003782D01*
X015340Y003854D01*
X015618Y004131D01*
X015621Y004130D01*
X015804Y004130D01*
X015973Y004200D01*
X016103Y004330D01*
X016173Y004499D01*
X016173Y004682D01*
X016103Y004851D01*
X015973Y004981D01*
X015873Y005022D01*
X016098Y005022D01*
X016435Y004685D01*
X016433Y004682D01*
X016433Y004499D01*
X016503Y004330D01*
X016633Y004200D01*
X016802Y004130D01*
X016985Y004130D01*
X017154Y004200D01*
X017284Y004330D01*
X017354Y004499D01*
X017354Y004682D01*
X017284Y004851D01*
X017154Y004981D01*
X016985Y005051D01*
X016802Y005051D01*
X016799Y005049D01*
X016423Y005425D01*
X016350Y005498D01*
X016256Y005537D01*
X011925Y005537D01*
X011823Y005537D01*
X011641Y005411D02*
X007674Y005411D01*
X007557Y005294D02*
X011524Y005294D01*
X011408Y005177D02*
X007440Y005177D01*
X007324Y005061D02*
X011291Y005061D01*
X010888Y004944D02*
X010301Y004944D01*
X010404Y004827D02*
X010785Y004827D01*
X010737Y004711D02*
X010452Y004711D01*
X010464Y004594D02*
X010725Y004594D01*
X010733Y004477D02*
X010481Y004477D01*
X010597Y004361D02*
X010782Y004361D01*
X010219Y004011D02*
X005738Y004011D01*
X005586Y004127D02*
X010103Y004127D01*
X010095Y003869D02*
X009912Y003869D01*
X009743Y003799D01*
X009614Y003670D01*
X009544Y003501D01*
X009544Y003318D01*
X009614Y003149D01*
X009743Y003019D01*
X009912Y002949D01*
X010095Y002949D01*
X010264Y003019D01*
X010394Y003149D01*
X010464Y003318D01*
X010464Y003501D01*
X010394Y003670D01*
X010264Y003799D01*
X010095Y003869D01*
X010286Y003778D02*
X010458Y003778D01*
X010398Y003661D02*
X010725Y003661D01*
X010725Y003544D02*
X010446Y003544D01*
X010464Y003428D02*
X010725Y003428D01*
X010725Y003311D02*
X010461Y003311D01*
X010413Y003194D02*
X010725Y003194D01*
X010725Y003078D02*
X010323Y003078D01*
X010124Y002961D02*
X010806Y002961D01*
X011564Y002961D02*
X012009Y002961D01*
X012006Y002968D02*
X012061Y002835D01*
X012162Y002734D01*
X012294Y002679D01*
X012438Y002679D01*
X012570Y002734D01*
X012671Y002835D01*
X012726Y002968D01*
X012726Y003111D01*
X012671Y003243D01*
X012570Y003344D01*
X012438Y003399D01*
X012294Y003399D01*
X012162Y003344D01*
X012061Y003243D01*
X012006Y003111D01*
X012006Y002968D01*
X012006Y003078D02*
X011645Y003078D01*
X011645Y003194D02*
X012041Y003194D01*
X012129Y003311D02*
X011645Y003311D01*
X011645Y003428D02*
X014071Y003428D01*
X014074Y003311D02*
X013587Y003311D01*
X013554Y003344D02*
X013655Y003243D01*
X013710Y003111D01*
X013710Y002968D01*
X013655Y002835D01*
X013554Y002734D01*
X013422Y002679D01*
X013279Y002679D01*
X013146Y002734D01*
X013045Y002835D01*
X012990Y002968D01*
X012990Y003111D01*
X013045Y003243D01*
X013146Y003344D01*
X013279Y003399D01*
X013422Y003399D01*
X013554Y003344D01*
X013676Y003194D02*
X014122Y003194D01*
X014212Y003078D02*
X013710Y003078D01*
X013707Y002961D02*
X014411Y002961D01*
X014652Y002961D02*
X015592Y002961D01*
X015621Y002949D02*
X015804Y002949D01*
X015973Y003019D01*
X016103Y003149D01*
X016173Y003318D01*
X016173Y003501D01*
X016103Y003670D01*
X015973Y003799D01*
X015804Y003869D01*
X015621Y003869D01*
X015452Y003799D01*
X015322Y003670D01*
X015252Y003501D01*
X015252Y003318D01*
X015322Y003149D01*
X015452Y003019D01*
X015621Y002949D01*
X015833Y002961D02*
X016515Y002961D01*
X016526Y002949D02*
X017261Y002949D01*
X017354Y003042D01*
X017354Y003776D01*
X017261Y003869D01*
X016526Y003869D01*
X016433Y003776D01*
X016433Y003042D01*
X016526Y002949D01*
X016433Y003078D02*
X016032Y003078D01*
X016121Y003194D02*
X016433Y003194D01*
X016433Y003311D02*
X016170Y003311D01*
X016173Y003428D02*
X016433Y003428D01*
X016433Y003544D02*
X016155Y003544D01*
X016106Y003661D02*
X016433Y003661D01*
X016434Y003778D02*
X015995Y003778D01*
X016017Y004244D02*
X016589Y004244D01*
X016490Y004361D02*
X016115Y004361D01*
X016164Y004477D02*
X016442Y004477D01*
X016433Y004594D02*
X016173Y004594D01*
X016161Y004711D02*
X016409Y004711D01*
X016292Y004827D02*
X016112Y004827D01*
X016176Y004944D02*
X016010Y004944D01*
X016554Y005294D02*
X020539Y005294D01*
X020655Y005411D02*
X016437Y005411D01*
X016279Y005527D02*
X020772Y005527D01*
X020422Y005177D02*
X016671Y005177D01*
X016787Y005061D02*
X020305Y005061D01*
X020189Y004944D02*
X017191Y004944D01*
X017294Y004827D02*
X019819Y004827D01*
X019815Y004711D02*
X017342Y004711D01*
X017354Y004594D02*
X019815Y004594D01*
X019815Y004477D02*
X017345Y004477D01*
X017297Y004361D02*
X019815Y004361D01*
X019815Y004244D02*
X017198Y004244D01*
X017353Y003778D02*
X035829Y003778D01*
X035829Y003894D02*
X015380Y003894D01*
X015430Y003778D02*
X015258Y003778D01*
X015319Y003661D02*
X014925Y003661D01*
X014974Y003544D02*
X015270Y003544D01*
X015252Y003428D02*
X014992Y003428D01*
X014989Y003311D02*
X015255Y003311D01*
X015303Y003194D02*
X014940Y003194D01*
X014850Y003078D02*
X015393Y003078D01*
X015497Y004011D02*
X024000Y004011D01*
X024042Y003969D02*
X024705Y003969D01*
X024799Y004062D01*
X024799Y004725D01*
X024705Y004818D01*
X024042Y004818D01*
X023949Y004725D01*
X023949Y004062D01*
X024042Y003969D01*
X023949Y004127D02*
X021454Y004127D01*
X021577Y004244D02*
X023949Y004244D01*
X023949Y004361D02*
X021630Y004361D01*
X021649Y004477D02*
X023949Y004477D01*
X023949Y004594D02*
X021642Y004594D01*
X021593Y004711D02*
X023949Y004711D01*
X024799Y004711D02*
X025075Y004711D01*
X025117Y004754D02*
X024998Y004634D01*
X024933Y004478D01*
X024933Y004309D01*
X024998Y004153D01*
X025117Y004033D01*
X025274Y003969D01*
X025443Y003969D01*
X025599Y004033D01*
X025718Y004153D01*
X025783Y004309D01*
X025783Y004478D01*
X025718Y004634D01*
X025599Y004754D01*
X025443Y004818D01*
X025274Y004818D01*
X025117Y004754D01*
X024981Y004594D02*
X024799Y004594D01*
X024799Y004477D02*
X024933Y004477D01*
X024933Y004361D02*
X024799Y004361D01*
X024799Y004244D02*
X024960Y004244D01*
X025023Y004127D02*
X024799Y004127D01*
X024748Y004011D02*
X025172Y004011D01*
X025544Y004011D02*
X026156Y004011D01*
X026102Y004033D02*
X026258Y003969D01*
X026427Y003969D01*
X026583Y004033D01*
X026702Y004153D01*
X026767Y004309D01*
X026767Y004478D01*
X026702Y004634D01*
X026583Y004754D01*
X026427Y004818D01*
X026258Y004818D01*
X026102Y004754D01*
X025982Y004634D01*
X025918Y004478D01*
X025918Y004309D01*
X025982Y004153D01*
X026102Y004033D01*
X026008Y004127D02*
X025693Y004127D01*
X025756Y004244D02*
X025944Y004244D01*
X025918Y004361D02*
X025783Y004361D01*
X025783Y004477D02*
X025918Y004477D01*
X025966Y004594D02*
X025735Y004594D01*
X025642Y004711D02*
X026059Y004711D01*
X026626Y004711D02*
X027043Y004711D01*
X027086Y004754D02*
X026966Y004634D01*
X026902Y004478D01*
X026902Y004309D01*
X026966Y004153D01*
X027086Y004033D01*
X027242Y003969D01*
X027411Y003969D01*
X027567Y004033D01*
X027687Y004153D01*
X027751Y004309D01*
X027751Y004478D01*
X027687Y004634D01*
X027567Y004754D01*
X027411Y004818D01*
X027242Y004818D01*
X027086Y004754D01*
X026950Y004594D02*
X026719Y004594D01*
X026767Y004477D02*
X026902Y004477D01*
X026902Y004361D02*
X026767Y004361D01*
X026740Y004244D02*
X026929Y004244D01*
X026992Y004127D02*
X026677Y004127D01*
X026528Y004011D02*
X027141Y004011D01*
X027513Y004011D02*
X030201Y004011D01*
X030150Y004127D02*
X027661Y004127D01*
X027724Y004244D02*
X030150Y004244D01*
X030150Y004361D02*
X027751Y004361D01*
X027751Y004477D02*
X030150Y004477D01*
X030150Y004594D02*
X027703Y004594D01*
X027610Y004711D02*
X030150Y004711D01*
X030366Y004827D02*
X021489Y004827D01*
X021312Y005061D02*
X030366Y005061D01*
X030366Y005177D02*
X021429Y005177D01*
X021545Y005294D02*
X030366Y005294D01*
X030346Y005411D02*
X021662Y005411D01*
X021779Y005527D02*
X030229Y005527D01*
X030112Y005644D02*
X021895Y005644D01*
X022012Y005761D02*
X027830Y005761D01*
X027714Y005877D02*
X022129Y005877D01*
X022245Y005994D02*
X027597Y005994D01*
X027480Y006111D02*
X022362Y006111D01*
X022479Y006227D02*
X027364Y006227D01*
X027247Y006344D02*
X022595Y006344D01*
X022712Y006461D02*
X027130Y006461D01*
X027014Y006577D02*
X022829Y006577D01*
X022945Y006694D02*
X026897Y006694D01*
X026780Y006811D02*
X023062Y006811D01*
X023178Y006927D02*
X026664Y006927D01*
X026547Y007044D02*
X023295Y007044D01*
X023412Y007160D02*
X026430Y007160D01*
X026314Y007277D02*
X023528Y007277D01*
X023645Y007394D02*
X026197Y007394D01*
X026081Y007510D02*
X023762Y007510D01*
X023878Y007627D02*
X025964Y007627D01*
X025847Y007744D02*
X023995Y007744D01*
X024112Y007860D02*
X025731Y007860D01*
X025614Y007977D02*
X024228Y007977D01*
X024345Y008094D02*
X025497Y008094D01*
X025381Y008210D02*
X024462Y008210D01*
X024578Y008327D02*
X025264Y008327D01*
X025147Y008444D02*
X024626Y008444D01*
X024631Y008560D02*
X025031Y008560D01*
X024914Y008677D02*
X024599Y008677D01*
X024512Y008794D02*
X024797Y008794D01*
X025813Y009844D02*
X028670Y009844D01*
X028664Y009869D02*
X028734Y009608D01*
X028868Y009374D01*
X029059Y009183D01*
X029293Y009048D01*
X029554Y008979D01*
X029824Y008979D01*
X030085Y009048D01*
X030318Y009183D01*
X030509Y009374D01*
X030644Y009608D01*
X030714Y009869D01*
X030714Y010139D01*
X030644Y010399D01*
X030509Y010633D01*
X030318Y010824D01*
X030085Y010959D01*
X029824Y011029D01*
X029554Y011029D01*
X029293Y010959D01*
X029059Y010824D01*
X028868Y010633D01*
X028734Y010399D01*
X028664Y010139D01*
X028664Y009869D01*
X028664Y009960D02*
X025696Y009960D01*
X025580Y010077D02*
X028664Y010077D01*
X028678Y010193D02*
X025463Y010193D01*
X025346Y010310D02*
X028710Y010310D01*
X028749Y010427D02*
X025230Y010427D01*
X025113Y010543D02*
X028817Y010543D01*
X028895Y010660D02*
X024996Y010660D01*
X024880Y010777D02*
X029012Y010777D01*
X029179Y010893D02*
X024763Y010893D01*
X024646Y011010D02*
X029483Y011010D01*
X029894Y011010D02*
X035829Y011010D01*
X035829Y010893D02*
X030198Y010893D01*
X030366Y010777D02*
X035829Y010777D01*
X035829Y010660D02*
X030482Y010660D01*
X030561Y010543D02*
X035829Y010543D01*
X035829Y010427D02*
X030628Y010427D01*
X030668Y010310D02*
X035829Y010310D01*
X035829Y010193D02*
X030699Y010193D01*
X030714Y010077D02*
X035829Y010077D01*
X035829Y009960D02*
X030714Y009960D01*
X030707Y009844D02*
X035829Y009844D01*
X035829Y009727D02*
X030676Y009727D01*
X030645Y009610D02*
X035829Y009610D01*
X035829Y009494D02*
X030578Y009494D01*
X030511Y009377D02*
X035829Y009377D01*
X035829Y009260D02*
X030395Y009260D01*
X030249Y009144D02*
X035829Y009144D01*
X035829Y009027D02*
X030004Y009027D01*
X029373Y009027D02*
X026629Y009027D01*
X026513Y009144D02*
X029128Y009144D01*
X028983Y009260D02*
X026396Y009260D01*
X026279Y009377D02*
X028867Y009377D01*
X028800Y009494D02*
X026163Y009494D01*
X026046Y009610D02*
X028733Y009610D01*
X028702Y009727D02*
X025930Y009727D01*
X026746Y008910D02*
X035829Y008910D01*
X035829Y008794D02*
X026863Y008794D01*
X026979Y008677D02*
X035829Y008677D01*
X035829Y008560D02*
X027096Y008560D01*
X027213Y008444D02*
X035829Y008444D01*
X035829Y008327D02*
X027329Y008327D01*
X027446Y008210D02*
X035829Y008210D01*
X035829Y008094D02*
X027563Y008094D01*
X027679Y007977D02*
X035829Y007977D01*
X035829Y007860D02*
X027796Y007860D01*
X027913Y007744D02*
X035829Y007744D01*
X035829Y007627D02*
X028029Y007627D01*
X028146Y007510D02*
X035829Y007510D01*
X035829Y007394D02*
X028263Y007394D01*
X028379Y007277D02*
X035829Y007277D01*
X035829Y007160D02*
X032138Y007160D01*
X032254Y007044D02*
X035829Y007044D01*
X035829Y006927D02*
X032371Y006927D01*
X032488Y006811D02*
X035829Y006811D01*
X035829Y006694D02*
X032604Y006694D01*
X032721Y006577D02*
X035829Y006577D01*
X035829Y006461D02*
X032838Y006461D01*
X032954Y006344D02*
X035829Y006344D01*
X035829Y006227D02*
X033071Y006227D01*
X033188Y006111D02*
X035829Y006111D01*
X035829Y005994D02*
X033304Y005994D01*
X033421Y005877D02*
X035829Y005877D01*
X035829Y005761D02*
X033537Y005761D01*
X033654Y005644D02*
X035829Y005644D01*
X035829Y005527D02*
X033736Y005527D01*
X033736Y005411D02*
X035829Y005411D01*
X035829Y005294D02*
X033736Y005294D01*
X033736Y005177D02*
X035829Y005177D01*
X035829Y005061D02*
X033736Y005061D01*
X033736Y004944D02*
X035829Y004944D01*
X035829Y004827D02*
X033736Y004827D01*
X033811Y004711D02*
X035829Y004711D01*
X035829Y004594D02*
X033904Y004594D01*
X033952Y004477D02*
X035829Y004477D01*
X035829Y004361D02*
X033952Y004361D01*
X033925Y004244D02*
X035829Y004244D01*
X035829Y004127D02*
X033862Y004127D01*
X033713Y004011D02*
X035829Y004011D01*
X035829Y003661D02*
X017354Y003661D01*
X017354Y003544D02*
X035829Y003544D01*
X035829Y003428D02*
X017354Y003428D01*
X017354Y003311D02*
X017837Y003311D01*
X017871Y003344D02*
X017770Y003243D01*
X017715Y003111D01*
X017715Y002968D01*
X017770Y002835D01*
X017871Y002734D01*
X018003Y002679D01*
X018146Y002679D01*
X018278Y002734D01*
X018380Y002835D01*
X018434Y002968D01*
X018434Y003111D01*
X018380Y003243D01*
X018278Y003344D01*
X018146Y003399D01*
X018003Y003399D01*
X017871Y003344D01*
X017749Y003194D02*
X017354Y003194D01*
X017354Y003078D02*
X017715Y003078D01*
X017718Y002961D02*
X017272Y002961D01*
X017766Y002844D02*
X013659Y002844D01*
X013538Y002728D02*
X017886Y002728D01*
X018263Y002728D02*
X035829Y002728D01*
X035829Y002844D02*
X018383Y002844D01*
X018432Y002961D02*
X035829Y002961D01*
X035829Y003078D02*
X018434Y003078D01*
X018400Y003194D02*
X035829Y003194D01*
X035829Y003311D02*
X018312Y003311D01*
X019848Y004127D02*
X015614Y004127D01*
X014137Y003661D02*
X011645Y003661D01*
X011645Y003544D02*
X014089Y003544D01*
X013113Y003311D02*
X012603Y003311D01*
X012691Y003194D02*
X013025Y003194D01*
X012990Y003078D02*
X012726Y003078D01*
X012723Y002961D02*
X012993Y002961D01*
X013041Y002844D02*
X012675Y002844D01*
X012554Y002728D02*
X013162Y002728D01*
X012178Y002728D02*
X007830Y002728D01*
X007845Y002734D02*
X007947Y002835D01*
X008001Y002968D01*
X008001Y003111D01*
X007947Y003243D01*
X007845Y003344D01*
X007713Y003399D01*
X007570Y003399D01*
X007438Y003344D01*
X007336Y003243D01*
X007282Y003111D01*
X007282Y002968D01*
X007336Y002835D01*
X007438Y002734D01*
X007570Y002679D01*
X007713Y002679D01*
X007845Y002734D01*
X007950Y002844D02*
X012057Y002844D01*
X010336Y003894D02*
X005919Y003894D01*
X005976Y003778D02*
X008540Y003778D01*
X008562Y003799D02*
X008433Y003670D01*
X008362Y003501D01*
X008362Y003318D01*
X008433Y003149D01*
X008562Y003019D01*
X008731Y002949D01*
X008914Y002949D01*
X009083Y003019D01*
X009213Y003149D01*
X009283Y003318D01*
X009283Y003501D01*
X009213Y003670D01*
X009083Y003799D01*
X008914Y003869D01*
X008731Y003869D01*
X008562Y003799D01*
X008429Y003661D02*
X005981Y003661D01*
X005940Y003544D02*
X008380Y003544D01*
X008362Y003428D02*
X005809Y003428D01*
X005812Y003311D02*
X007404Y003311D01*
X007316Y003194D02*
X005929Y003194D01*
X006046Y003078D02*
X007282Y003078D01*
X007284Y002961D02*
X006162Y002961D01*
X006279Y002844D02*
X007333Y002844D01*
X007453Y002728D02*
X006396Y002728D01*
X006501Y002611D02*
X035829Y002611D01*
X035829Y002494D02*
X006501Y002494D01*
X006501Y002378D02*
X035829Y002378D01*
X035829Y002261D02*
X006501Y002261D01*
X006501Y002144D02*
X035829Y002144D01*
X035829Y002028D02*
X006501Y002028D01*
X006480Y001911D02*
X035829Y001911D01*
X035829Y001794D02*
X006363Y001794D01*
X006246Y001678D02*
X035825Y001678D01*
X035818Y001561D02*
X006130Y001561D01*
X005924Y002028D02*
X005226Y002028D01*
X005268Y002144D02*
X000320Y002144D01*
X000320Y002028D02*
X004742Y002028D01*
X004683Y001911D02*
X000320Y001911D01*
X000320Y001794D02*
X004676Y001794D01*
X004716Y001678D02*
X000320Y001678D01*
X000320Y001561D02*
X004840Y001561D01*
X005182Y002261D02*
X000320Y002261D01*
X000320Y002378D02*
X005140Y002378D01*
X005140Y002494D02*
X000320Y002494D01*
X000320Y002611D02*
X005175Y002611D01*
X005251Y002728D02*
X005079Y002728D01*
X005163Y002844D02*
X005435Y002844D01*
X005490Y002961D02*
X005163Y002961D01*
X005163Y003078D02*
X005373Y003078D01*
X005257Y003194D02*
X005163Y003194D01*
X004907Y003544D02*
X000320Y003544D01*
X000320Y003428D02*
X001372Y003428D01*
X001272Y003311D02*
X000320Y003311D01*
X000320Y003194D02*
X001223Y003194D01*
X001223Y003078D02*
X000320Y003078D01*
X000320Y002961D02*
X001253Y002961D01*
X001329Y002844D02*
X000320Y002844D01*
X000320Y002728D02*
X001518Y002728D01*
X001718Y002728D02*
X002305Y002728D01*
X002505Y002728D02*
X003093Y002728D01*
X003293Y002728D02*
X003880Y002728D01*
X004080Y002728D02*
X004457Y002728D01*
X004372Y002844D02*
X004269Y002844D01*
X004345Y002961D02*
X004372Y002961D01*
X004372Y003311D02*
X004326Y003311D01*
X004384Y003428D02*
X004226Y003428D01*
X004673Y003778D02*
X000320Y003778D01*
X000320Y003894D02*
X002470Y003894D01*
X002364Y004000D02*
X002364Y004000D01*
X002353Y004011D02*
X000320Y004011D01*
X000320Y004127D02*
X002237Y004127D01*
X002120Y004244D02*
X000320Y004244D01*
X000320Y004361D02*
X002003Y004361D01*
X001887Y004477D02*
X000320Y004477D01*
X000320Y004594D02*
X001770Y004594D01*
X001483Y004711D02*
X000320Y004711D01*
X000320Y004827D02*
X001314Y004827D01*
X001247Y004944D02*
X000320Y004944D01*
X000320Y005061D02*
X001223Y005061D01*
X001229Y005177D02*
X000320Y005177D01*
X000320Y005294D02*
X001278Y005294D01*
X001387Y005411D02*
X000320Y005411D01*
X000320Y005527D02*
X001768Y005527D01*
X001885Y005644D02*
X000320Y005644D01*
X000320Y005761D02*
X002002Y005761D01*
X002118Y005877D02*
X000320Y005877D01*
X000320Y005994D02*
X002235Y005994D01*
X002352Y006111D02*
X000320Y006111D01*
X000320Y006227D02*
X002468Y006227D01*
X002585Y006344D02*
X000320Y006344D01*
X000320Y006461D02*
X002701Y006461D01*
X002818Y006577D02*
X000320Y006577D01*
X000320Y006694D02*
X002935Y006694D01*
X003051Y006811D02*
X000320Y006811D01*
X000320Y006927D02*
X003168Y006927D01*
X003285Y007044D02*
X000320Y007044D01*
X000320Y007160D02*
X006472Y007160D01*
X006589Y007277D02*
X000320Y007277D01*
X000320Y007394D02*
X006706Y007394D01*
X006822Y007510D02*
X000320Y007510D01*
X000320Y007627D02*
X006939Y007627D01*
X007056Y007744D02*
X000320Y007744D01*
X000320Y007860D02*
X007172Y007860D01*
X007289Y007977D02*
X000320Y007977D01*
X000320Y008094D02*
X007405Y008094D01*
X007522Y008210D02*
X000320Y008210D01*
X000320Y008327D02*
X007639Y008327D01*
X007755Y008444D02*
X000320Y008444D01*
X000320Y008560D02*
X007872Y008560D01*
X007989Y008677D02*
X000320Y008677D01*
X000320Y008794D02*
X008105Y008794D01*
X008222Y008910D02*
X000320Y008910D01*
X004608Y010893D02*
X007689Y010893D01*
X007743Y010777D02*
X004775Y010777D01*
X008562Y004981D02*
X008731Y005051D01*
X008914Y005051D01*
X009083Y004981D01*
X009213Y004851D01*
X009283Y004682D01*
X009283Y004499D01*
X009213Y004330D01*
X009083Y004200D01*
X008914Y004130D01*
X008731Y004130D01*
X008562Y004200D01*
X008433Y004330D01*
X008362Y004499D01*
X008362Y004682D01*
X008433Y004851D01*
X008562Y004981D01*
X008526Y004944D02*
X007207Y004944D01*
X008374Y004711D02*
X005003Y004711D01*
X005071Y004827D02*
X008423Y004827D01*
X008362Y004594D02*
X005120Y004594D01*
X005236Y004477D02*
X008371Y004477D01*
X008420Y004361D02*
X005353Y004361D01*
X005470Y004244D02*
X008518Y004244D01*
X009127Y004244D02*
X009699Y004244D01*
X009601Y004361D02*
X009226Y004361D01*
X009274Y004477D02*
X009552Y004477D01*
X009544Y004594D02*
X009283Y004594D01*
X009271Y004711D02*
X009556Y004711D01*
X009604Y004827D02*
X009223Y004827D01*
X009120Y004944D02*
X009707Y004944D01*
X009721Y003778D02*
X009105Y003778D01*
X009217Y003661D02*
X009610Y003661D01*
X009562Y003544D02*
X009265Y003544D01*
X009283Y003428D02*
X009544Y003428D01*
X009546Y003311D02*
X009280Y003311D01*
X009232Y003194D02*
X009595Y003194D01*
X009685Y003078D02*
X009142Y003078D01*
X008943Y002961D02*
X009884Y002961D01*
X008702Y002961D02*
X007999Y002961D01*
X008001Y003078D02*
X008504Y003078D01*
X008414Y003194D02*
X007967Y003194D01*
X007879Y003311D02*
X008365Y003311D01*
X006026Y002378D02*
X005970Y002378D01*
X005928Y002261D02*
X006026Y002261D01*
X006026Y002144D02*
X005841Y002144D01*
X004790Y003661D02*
X000320Y003661D01*
X001863Y003428D02*
X002160Y003428D01*
X002059Y003311D02*
X001964Y003311D01*
X001982Y002961D02*
X002041Y002961D01*
X002116Y002844D02*
X001907Y002844D01*
X002695Y002844D02*
X002903Y002844D01*
X002828Y002961D02*
X002770Y002961D01*
X002752Y003311D02*
X002846Y003311D01*
X002947Y003428D02*
X002651Y003428D01*
X003438Y003428D02*
X003735Y003428D01*
X003634Y003311D02*
X003539Y003311D01*
X003557Y002961D02*
X003616Y002961D01*
X003691Y002844D02*
X003482Y002844D01*
X000320Y001444D02*
X035788Y001444D01*
X035757Y001328D02*
X000320Y001328D01*
X000320Y001211D02*
X035726Y001211D01*
X035664Y001094D02*
X000320Y001094D01*
X000320Y000978D02*
X035596Y000978D01*
X035523Y000861D02*
X000320Y000861D01*
X000320Y000745D02*
X035407Y000745D01*
X035290Y000628D02*
X000320Y000628D01*
X000320Y000511D02*
X035099Y000511D01*
X034830Y000395D02*
X000320Y000395D01*
X020632Y004127D02*
X020994Y004127D01*
X020871Y004244D02*
X020665Y004244D01*
X020665Y004361D02*
X020819Y004361D01*
X020799Y004477D02*
X020729Y004477D01*
X021195Y004944D02*
X030366Y004944D01*
X030783Y004944D02*
X031351Y004944D01*
X031351Y004827D02*
X030783Y004827D01*
X030783Y005061D02*
X031351Y005061D01*
X031351Y005177D02*
X030783Y005177D01*
X030783Y005294D02*
X031351Y005294D01*
X031330Y005411D02*
X030783Y005411D01*
X030783Y005527D02*
X031213Y005527D01*
X031097Y005644D02*
X030701Y005644D01*
X030585Y005761D02*
X030980Y005761D01*
X030863Y005877D02*
X030468Y005877D01*
X030351Y005994D02*
X030747Y005994D01*
X030986Y006344D02*
X031381Y006344D01*
X031498Y006227D02*
X031102Y006227D01*
X031219Y006111D02*
X031614Y006111D01*
X031731Y005994D02*
X031336Y005994D01*
X031452Y005877D02*
X031848Y005877D01*
X031964Y005761D02*
X031569Y005761D01*
X031686Y005644D02*
X032081Y005644D01*
X032197Y005527D02*
X031767Y005527D01*
X031767Y005411D02*
X032314Y005411D01*
X032335Y005294D02*
X031767Y005294D01*
X031767Y005177D02*
X032335Y005177D01*
X032335Y005061D02*
X031767Y005061D01*
X031767Y004944D02*
X032335Y004944D01*
X032335Y004827D02*
X031767Y004827D01*
X031842Y004711D02*
X032260Y004711D01*
X032166Y004594D02*
X031936Y004594D01*
X031984Y004477D02*
X032118Y004477D01*
X032118Y004361D02*
X031984Y004361D01*
X031957Y004244D02*
X032145Y004244D01*
X032208Y004127D02*
X031894Y004127D01*
X031745Y004011D02*
X032357Y004011D01*
X032729Y004011D02*
X033341Y004011D01*
X033193Y004127D02*
X032878Y004127D01*
X032941Y004244D02*
X033129Y004244D01*
X033103Y004361D02*
X032968Y004361D01*
X032968Y004477D02*
X033103Y004477D01*
X033151Y004594D02*
X032920Y004594D01*
X032827Y004711D02*
X033244Y004711D01*
X033319Y004827D02*
X032751Y004827D01*
X032751Y004944D02*
X033319Y004944D01*
X033319Y005061D02*
X032751Y005061D01*
X032751Y005177D02*
X033319Y005177D01*
X033319Y005294D02*
X032751Y005294D01*
X032751Y005411D02*
X033298Y005411D01*
X033182Y005527D02*
X032751Y005527D01*
X032670Y005644D02*
X033065Y005644D01*
X032948Y005761D02*
X032553Y005761D01*
X032437Y005877D02*
X032832Y005877D01*
X032715Y005994D02*
X032320Y005994D01*
X032203Y006111D02*
X032598Y006111D01*
X032482Y006227D02*
X032087Y006227D01*
X031970Y006344D02*
X032365Y006344D01*
X032249Y006461D02*
X031853Y006461D01*
X031737Y006577D02*
X032132Y006577D01*
X032015Y006694D02*
X031620Y006694D01*
X031503Y006811D02*
X031899Y006811D01*
X031275Y004711D02*
X030999Y004711D01*
X030999Y004594D02*
X031182Y004594D01*
X031134Y004477D02*
X030999Y004477D01*
X030999Y004361D02*
X031134Y004361D01*
X031161Y004244D02*
X030999Y004244D01*
X030999Y004127D02*
X031224Y004127D01*
X031373Y004011D02*
X030948Y004011D01*
X035829Y011127D02*
X024530Y011127D01*
X024413Y011243D02*
X035829Y011243D01*
X035829Y011360D02*
X024296Y011360D01*
X024180Y011477D02*
X035829Y011477D01*
X035829Y011593D02*
X024063Y011593D01*
X023946Y011710D02*
X035829Y011710D01*
X035829Y030958D02*
X033278Y030958D01*
X033455Y031074D02*
X035829Y031074D01*
X035829Y031191D02*
X033561Y031191D01*
X033610Y031308D02*
X035829Y031308D01*
X035829Y031424D02*
X033647Y031424D01*
X033647Y031541D02*
X035829Y031541D01*
X035829Y031658D02*
X033647Y031658D01*
X033647Y031774D02*
X035829Y031774D01*
X035829Y031891D02*
X033647Y031891D01*
X033647Y032008D02*
X035829Y032008D01*
X035829Y032124D02*
X033647Y032124D01*
X033647Y032241D02*
X035829Y032241D01*
X035829Y032358D02*
X033647Y032358D01*
X033647Y032474D02*
X035829Y032474D01*
X035829Y032591D02*
X033629Y032591D01*
X033580Y032708D02*
X035829Y032708D01*
X035829Y032824D02*
X033501Y032824D01*
X033385Y032941D02*
X035829Y032941D01*
X035829Y033291D02*
X032622Y033291D01*
X032757Y033408D02*
X035829Y033408D01*
X035829Y033524D02*
X032845Y033524D01*
X032894Y033641D02*
X035828Y033641D01*
X035820Y033757D02*
X032919Y033757D01*
X032919Y033874D02*
X035800Y033874D01*
X035769Y033991D02*
X032899Y033991D01*
X032851Y034107D02*
X035737Y034107D01*
X035689Y034224D02*
X032771Y034224D01*
X032654Y034341D02*
X035621Y034341D01*
X030514Y030841D02*
X030438Y030841D01*
D29*
X030870Y026146D03*
X029689Y024177D03*
X031854Y023390D03*
X034020Y020240D03*
X030870Y013350D03*
X025516Y013586D03*
X024964Y013153D03*
X025161Y012071D03*
X024275Y008527D03*
X023882Y005181D03*
X020732Y011480D03*
X020043Y013744D03*
X020142Y014334D03*
X020043Y014925D03*
X018567Y014433D03*
X015909Y014630D03*
X015220Y011480D03*
X017583Y018370D03*
X017386Y019354D03*
X018764Y018370D03*
X017484Y021027D03*
X014827Y019354D03*
X012268Y019157D03*
X014334Y022405D03*
X016697Y023980D03*
X017189Y024275D03*
X018862Y024374D03*
X020831Y025358D03*
X021421Y025653D03*
X021224Y024571D03*
X021421Y023980D03*
X021618Y023390D03*
X021815Y022799D03*
X022405Y019846D03*
X025358Y018665D03*
X026146Y020240D03*
X025161Y026736D03*
X021224Y027228D03*
X015614Y026638D03*
X015122Y025653D03*
X014138Y025653D03*
X007838Y022405D03*
X006657Y022209D03*
X005181Y023980D03*
X001342Y016303D03*
X005279Y007642D03*
X005673Y003705D03*
X004984Y001834D03*
X008232Y033527D03*
X007642Y034512D03*
X008921Y034512D03*
X020732Y034020D03*
D30*
X017386Y019354D02*
X014827Y019354D01*
X012464Y019354D01*
X012268Y019157D01*
X004197Y027031D02*
X004295Y027130D01*
X004197Y027031D02*
X004098Y027031D01*
X001244Y017681D02*
X001244Y016401D01*
X001342Y016303D01*
X005673Y008035D02*
X005870Y008035D01*
X005673Y008035D02*
X005279Y007642D01*
X010004Y004590D02*
X010594Y004000D01*
X015122Y004000D01*
X015712Y004590D01*
X016205Y005279D02*
X011874Y005279D01*
X011185Y004590D01*
X016205Y005279D02*
X016894Y004590D01*
X023488Y005181D02*
X023882Y005181D01*
D31*
X025516Y013586D02*
X025161Y013941D01*
X030476Y013744D02*
X030870Y013350D01*
X025752Y019846D02*
X026146Y020240D01*
X029689Y023980D02*
X029689Y024177D01*
X028468Y025516D02*
X028705Y025752D01*
X030870Y026146D02*
X030870Y026539D01*
X033035Y024374D02*
X033429Y024374D01*
X034216Y026146D02*
X034610Y026146D01*
X034413Y020240D02*
X034020Y020240D01*
X025161Y026736D02*
X024768Y026933D01*
X018075Y021086D02*
X018016Y021027D01*
X017484Y021027D01*
X009413Y032937D02*
X007248Y032937D01*
X007248Y035022D01*
X009413Y035022D01*
X009413Y032937D01*
X009413Y033082D02*
X007248Y033082D01*
X007248Y033238D02*
X009413Y033238D01*
X009413Y033394D02*
X007248Y033394D01*
X007248Y033550D02*
X009413Y033550D01*
X009413Y033706D02*
X007248Y033706D01*
X007248Y033862D02*
X009413Y033862D01*
X009413Y034018D02*
X007248Y034018D01*
X007248Y034174D02*
X009413Y034174D01*
X009413Y034330D02*
X007248Y034330D01*
X007248Y034486D02*
X009413Y034486D01*
X009413Y034642D02*
X007248Y034642D01*
X007248Y034799D02*
X009413Y034799D01*
X009413Y034955D02*
X007248Y034955D01*
X002405Y005083D02*
X002996Y004492D01*
X004886Y004492D01*
X005673Y003705D01*
X004689Y004098D02*
X006264Y002523D01*
X006264Y002031D01*
X005968Y001736D01*
X005083Y001736D01*
X004984Y001834D01*
X004689Y004098D02*
X002602Y004098D01*
X001618Y005083D01*
D32*
X031460Y023586D02*
X031657Y023390D01*
X031854Y023390D01*
D33*
X020732Y034020D02*
X017189Y030476D01*
X013744Y030476D01*
X011579Y028311D01*
X009807Y028311D01*
X005378Y028311D01*
X004098Y027031D01*
D34*
X004295Y027130D02*
X005173Y026252D01*
X008189Y026252D01*
X009807Y024571D02*
X009807Y028311D01*
X009807Y021520D02*
X008035Y019748D01*
X008035Y010988D01*
X020240Y004492D02*
X024275Y008527D01*
X026146Y021126D02*
X026146Y021815D01*
X030083Y025752D01*
X030083Y031382D01*
X030673Y031972D01*
D35*
X009807Y024571D03*
X009807Y021520D03*
X008035Y010988D03*
M02*
